<svg xmlns="http://www.w3.org/2000/svg" viewBox="0 0 409.78 280.41"><defs><style>.cls-1{fill:#0b4c7c;}.cls-2{fill:#fff;}</style></defs><g id="Capa_2" data-name="Capa 2"><g id="Capa_1-2" data-name="Capa 1"><path class="cls-1" d="M44.84,209.62a6.29,6.29,0,0,1-4.28,1.4H35.28c-.21,0-.32-.09-.32-.28V191.63c0-.19.11-.28.32-.28h4.84a6.88,6.88,0,0,1,4.5,1.33,4.74,4.74,0,0,1,1.63,3.9,4.21,4.21,0,0,1-2.43,4.18c-.11.06-.12.11,0,.15a4.79,4.79,0,0,1,2,1.88,5.58,5.58,0,0,1,.71,2.87A4.94,4.94,0,0,1,44.84,209.62ZM38,193.79v6c0,.08,0,.11.13.11h2a3.15,3.15,0,0,0,2.31-.8,3,3,0,0,0,.82-2.23,3.19,3.19,0,0,0-.82-2.32,3.13,3.13,0,0,0-2.31-.83h-2C38,193.68,38,193.72,38,193.79Zm4.6,14a3.41,3.41,0,0,0,.84-2.47,3.67,3.67,0,0,0-.83-2.55,2.87,2.87,0,0,0-2.27-.91H38.13c-.09,0-.13,0-.13.11v6.58c0,.08,0,.11.13.11h2.18A3,3,0,0,0,42.6,207.79Z"/><path class="cls-1" d="M50.22,210a4.06,4.06,0,0,1-1.44-3.25V201a4,4,0,0,1,1.45-3.23,5.78,5.78,0,0,1,3.89-1.24A5.81,5.81,0,0,1,58,197.73,4,4,0,0,1,59.5,201v5.82A4,4,0,0,1,58,210a5.91,5.91,0,0,1-3.92,1.22A5.86,5.86,0,0,1,50.22,210Zm5.58-1.78a2.19,2.19,0,0,0,.66-1.67v-5.45a2.23,2.23,0,0,0-.66-1.66,2.31,2.31,0,0,0-1.68-.65,2.23,2.23,0,0,0-2.31,2.31v5.45a2.22,2.22,0,0,0,.65,1.67,2.25,2.25,0,0,0,1.66.64A2.3,2.3,0,0,0,55.8,208.25Z"/><path class="cls-1" d="M70.06,191.35h2.4c.21,0,.31.09.31.28v19.11c0,.19-.1.28-.31.28h-2.4c-.22,0-.32-.09-.32-.28v-.45a.09.09,0,0,0,0-.08s-.07,0-.11,0a4.22,4.22,0,0,1-1.36.76,5,5,0,0,1-1.52.25A4.46,4.46,0,0,1,63.4,210a4.38,4.38,0,0,1-1.22-3.22V201a4.36,4.36,0,0,1,1.22-3.27,4.49,4.49,0,0,1,3.3-1.2,5,5,0,0,1,1.52.25,4.22,4.22,0,0,1,1.36.76s.08.05.11,0a.09.09,0,0,0,0-.08v-5.82C69.74,191.44,69.84,191.35,70.06,191.35ZM69,208.4a2.14,2.14,0,0,0,.74-1.37v-6.32a2.14,2.14,0,0,0-.74-1.37,2.45,2.45,0,0,0-3.17.13,2.25,2.25,0,0,0-.64,1.66v5.48a2.25,2.25,0,0,0,.64,1.66,2.45,2.45,0,0,0,3.17.13Z"/><path class="cls-1" d="M85.06,197.78a4.33,4.33,0,0,1,1.47,3.41v9.55c0,.19-.11.28-.32.28h-2.4c-.21,0-.32-.09-.32-.28v-.62a.08.08,0,0,0,0-.08s-.06,0-.11,0a4.25,4.25,0,0,1-3.25,1.18,5.62,5.62,0,0,1-3.18-.92,3.58,3.58,0,0,1-1.37-3.24,4.06,4.06,0,0,1,1.65-3.59,7.63,7.63,0,0,1,4.35-1.13h1.84a.11.11,0,0,0,.12-.12v-.81a2.78,2.78,0,0,0-.63-1.9,2.08,2.08,0,0,0-1.64-.72,1.92,1.92,0,0,0-1.33.48,1.89,1.89,0,0,0-.63,1.24c0,.19-.11.28-.32.28H76.38c-.21,0-.32-.09-.32-.28a4,4,0,0,1,1.61-2.92,5.74,5.74,0,0,1,3.61-1.13A5.52,5.52,0,0,1,85.06,197.78Zm-2.39,10.49a2,2,0,0,0,.82-1.74v-1.92c0-.07,0-.11-.12-.11H81.44a3.13,3.13,0,0,0-2,.61,2.12,2.12,0,0,0-.75,1.75,1.92,1.92,0,0,0,.56,1.52,2.2,2.2,0,0,0,1.52.51A3.14,3.14,0,0,0,82.67,208.27Z"/><path class="cls-1" d="M90.37,210.17A3.28,3.28,0,0,1,89,207.4v-.26c0-.18.11-.28.32-.28h2.24c.21,0,.32.1.32.28v.2a1.57,1.57,0,0,0,.66,1.28,2.58,2.58,0,0,0,1.65.52,2.24,2.24,0,0,0,1.53-.51,1.61,1.61,0,0,0,.58-1.29,1.41,1.41,0,0,0-.41-1,2.94,2.94,0,0,0-1-.66c-.37-.16-.93-.38-1.69-.66a17,17,0,0,1-2-.93,4.6,4.6,0,0,1-1.44-1.29,3.46,3.46,0,0,1-.63-2.14,3.62,3.62,0,0,1,1.34-3,6.75,6.75,0,0,1,7.31,0,3.66,3.66,0,0,1,1.34,3v.09c0,.18-.11.28-.32.28H96.61c-.21,0-.32-.1-.32-.28v-.2a1.65,1.65,0,0,0-.6-1.29,2.21,2.21,0,0,0-1.54-.54,2.15,2.15,0,0,0-1.55.54,1.69,1.69,0,0,0-.57,1.29,1.33,1.33,0,0,0,.38,1,2.72,2.72,0,0,0,.91.64c.36.16.93.38,1.71.68a20,20,0,0,1,2.15,1,4.77,4.77,0,0,1,1.5,1.31,3.38,3.38,0,0,1,.65,2.11,3.43,3.43,0,0,1-1.41,2.89,7.34,7.34,0,0,1-7.55,0Z"/><path class="cls-1" d="M4.14,234.77,0,215.66v0c0-.17.09-.26.28-.26H1.39c.21,0,.33.09.35.26L5,231.54s0,.06.06.06,0,0,.06-.06l2.75-15.93a.28.28,0,0,1,.32-.26h1a.27.27,0,0,1,.31.26l2.91,15.93s0,.06.07.06,0,0,.06-.06l3-15.93a.3.3,0,0,1,.32-.26h1.1a.3.3,0,0,1,.24.09.23.23,0,0,1,.05.22l-3.92,19.11c0,.17-.14.26-.35.26h-1a.3.3,0,0,1-.32-.26l-2.84-15.9a.1.1,0,0,0-.07-.06s0,0-.06.06l-2.81,15.9a.28.28,0,0,1-.32.26h-1A.32.32,0,0,1,4.14,234.77Z"/><path class="cls-1" d="M27.88,228.48H20.61c-.08,0-.12,0-.12.11V231a2.84,2.84,0,0,0,.83,2.12,3,3,0,0,0,2.17.83,3.11,3.11,0,0,0,1.9-.59,2.79,2.79,0,0,0,1-1.54.35.35,0,0,1,.35-.26l1,.06a.51.51,0,0,1,.22.05.14.14,0,0,1,.06.17v.12a3.86,3.86,0,0,1-1.51,2.43,5.07,5.07,0,0,1-3.07.88,4.88,4.88,0,0,1-3.38-1.16,3.88,3.88,0,0,1-1.3-3v-6.21a3.89,3.89,0,0,1,1.3-3,4.8,4.8,0,0,1,3.38-1.18,4.85,4.85,0,0,1,3.41,1.18,3.89,3.89,0,0,1,1.3,3v3.35C28.2,228.38,28.09,228.48,27.88,228.48Zm-6.56-5.69a2.88,2.88,0,0,0-.83,2.15v2.13a.11.11,0,0,0,.12.12H26.4a.11.11,0,0,0,.12-.12v-2.13a2.92,2.92,0,0,0-.83-2.15,3,3,0,0,0-2.2-.83A2.92,2.92,0,0,0,21.32,222.79Z"/><path class="cls-1" d="M39.42,215.35h1c.21,0,.31.1.31.28v19.12c0,.18-.1.28-.31.28h-1c-.21,0-.31-.1-.31-.28V234a.07.07,0,0,0,0-.07.11.11,0,0,0-.11,0,3.76,3.76,0,0,1-1.39,1,4.72,4.72,0,0,1-1.77.33,4.32,4.32,0,0,1-3.15-1.16,4.07,4.07,0,0,1-1.18-3v-6.21a4.1,4.1,0,0,1,1.18-3,4.32,4.32,0,0,1,3.15-1.16,4.72,4.72,0,0,1,1.77.33A3.76,3.76,0,0,1,39,222a.11.11,0,0,0,.11,0,.07.07,0,0,0,0-.07v-6.3C39.11,215.45,39.21,215.35,39.42,215.35Zm-1.14,17.77a2.89,2.89,0,0,0,.83-2.14v-6a2.92,2.92,0,0,0-.83-2.15,2.8,2.8,0,0,0-2.11-.83,3,3,0,0,0-2.22.83,2.85,2.85,0,0,0-.85,2.15v6A2.82,2.82,0,0,0,34,233.1a3.07,3.07,0,0,0,2.22.83A2.86,2.86,0,0,0,38.28,233.12Z"/><path class="cls-1" d="M52.61,215.35h1c.21,0,.32.1.32.28v19.12c0,.18-.11.28-.32.28h-1c-.21,0-.32-.1-.32-.28V234a.07.07,0,0,0,0-.07.11.11,0,0,0-.11,0,3.76,3.76,0,0,1-1.39,1,4.72,4.72,0,0,1-1.77.33,4.3,4.3,0,0,1-3.14-1.16,4,4,0,0,1-1.19-3v-6.21a4.07,4.07,0,0,1,1.19-3A4.3,4.3,0,0,1,49,220.64a4.72,4.72,0,0,1,1.77.33,3.76,3.76,0,0,1,1.39,1,.11.11,0,0,0,.11,0,.07.07,0,0,0,0-.07v-6.3C52.29,215.45,52.4,215.35,52.61,215.35Zm-1.14,17.77a2.89,2.89,0,0,0,.82-2.14v-6a2.91,2.91,0,0,0-.82-2.15,2.84,2.84,0,0,0-2.12-.83,3,3,0,0,0-2.21.83,2.86,2.86,0,0,0-.86,2.15v6a2.83,2.83,0,0,0,.86,2.12,3,3,0,0,0,2.21.83A2.9,2.9,0,0,0,51.47,233.12Z"/><path class="cls-1" d="M58.17,217.63a1.38,1.38,0,0,1,0-2,1.6,1.6,0,0,1,1.14-.4,1.64,1.64,0,0,1,1.14.4,1.38,1.38,0,0,1,0,2,1.68,1.68,0,0,1-1.14.39A1.64,1.64,0,0,1,58.17,217.63Zm.32,17.12V221.14c0-.18.1-.28.31-.28h1c.22,0,.32.1.32.28v13.61c0,.18-.1.28-.32.28h-1C58.59,235,58.49,234.93,58.49,234.75Z"/><path class="cls-1" d="M72.84,221.82a4.66,4.66,0,0,1,1,3.23v9.7c0,.18-.1.28-.31.28h-1c-.21,0-.31-.1-.31-.28v-9.56a3.43,3.43,0,0,0-.76-2.36,3.09,3.09,0,0,0-4.3.06,3.59,3.59,0,0,0-.79,2.47v9.39c0,.18-.11.28-.32.28H65c-.21,0-.32-.1-.32-.28V221.14c0-.18.11-.28.32-.28h1c.21,0,.32.1.32.28v1.07c0,.06,0,.09,0,.09a.19.19,0,0,0,.12-.06,3.76,3.76,0,0,1,3.35-1.58A3.81,3.81,0,0,1,72.84,221.82Z"/><path class="cls-1" d="M85.48,220.86h1.08c.21,0,.32.1.32.28v13.72a6,6,0,0,1-1.49,4.41q-1.48,1.51-4.77,1.41c-.22,0-.32-.1-.32-.28v-.76c0-.19.14-.28.41-.28a4.39,4.39,0,0,0,3.43-1.16,5,5,0,0,0,1-3.45v-1.07c0-.06,0-.09-.07-.1s-.07,0-.09.07a3.32,3.32,0,0,1-1.38,1.14,4.42,4.42,0,0,1-1.84.38A4.19,4.19,0,0,1,78.67,234,4.14,4.14,0,0,1,77.52,231v-6.1a4.16,4.16,0,0,1,1.15-3,4.22,4.22,0,0,1,3.12-1.16,4.43,4.43,0,0,1,1.86.39A3.33,3.33,0,0,1,85,222.15a.17.17,0,0,0,.11.06s0,0,0-.08v-1C85.17,221,85.27,220.86,85.48,220.86ZM84.35,233a2.89,2.89,0,0,0,.82-2.13v-6a3,3,0,0,0-.82-2.15,2.84,2.84,0,0,0-2.12-.83,3,3,0,0,0-2.18.83,2.86,2.86,0,0,0-.86,2.15v6a2.83,2.83,0,0,0,.86,2.12,3,3,0,0,0,2.18.83A2.87,2.87,0,0,0,84.35,233Z"/><path class="cls-1" d="M91.32,234.17a3.11,3.11,0,0,1-1.25-2.57v-.17c0-.19.1-.28.31-.28h1c.21,0,.32.09.32.28v.17a2.1,2.1,0,0,0,.82,1.69,3.3,3.3,0,0,0,2.12.67,3,3,0,0,0,2-.69,2.25,2.25,0,0,0,.77-1.78,2,2,0,0,0-.44-1.35,3.19,3.19,0,0,0-1.11-.86,18.8,18.8,0,0,0-1.8-.74,15,15,0,0,1-2-.89,3.87,3.87,0,0,1-1.34-1.21,3.26,3.26,0,0,1-.56-1.95,3.39,3.39,0,0,1,1.2-2.73,4.83,4.83,0,0,1,3.2-1,4.76,4.76,0,0,1,3.22,1,3.4,3.4,0,0,1,1.2,2.7v.08c0,.19-.1.28-.31.28h-1c-.21,0-.32-.09-.32-.28v-.14a2.23,2.23,0,0,0-.79-1.74,3.36,3.36,0,0,0-4.08,0,2.33,2.33,0,0,0-.76,1.79,1.9,1.9,0,0,0,.42,1.26,3.05,3.05,0,0,0,1,.82c.41.21,1,.46,1.73.76a19.66,19.66,0,0,1,2.13.91,4.31,4.31,0,0,1,1.44,1.22,3.21,3.21,0,0,1,.6,2,3.35,3.35,0,0,1-1.23,2.71,4.92,4.92,0,0,1-3.26,1A5.09,5.09,0,0,1,91.32,234.17Z"/><path class="cls-2" d="M336.16,273.87c-2.28-.22-3.15,1.29-4.19,2.48a16.47,16.47,0,0,1-4.28,3.77c-.75.42-1.32.1-1.88.29-.73-1.52-1.12-3.36-2.23-4.44-1.64-1.59-1.94-4-3.68-5.37a9.37,9.37,0,0,1-1.94-2.54,2.9,2.9,0,0,0-2.23-1.51c-.46-2.29-.5-2.31-2.93-2.46a2.16,2.16,0,0,0-.65-2.63c-1.36-1.16-2.49-2.57-4-4.2l-.46,1.13a4.38,4.38,0,0,0-2.62-3.83c-.26-.12-.38-.51-.56-.78a26.33,26.33,0,0,0-4.63-5.09c-1-.89-1.61-2.19-2.54-3.16-1.19-1.22-2.09-2.75-3.77-3.49-.48-.21-.72-.89-1.13-1.31-2.1-2.17-4.21-4.34-6.35-6.48-.88-.87-1.85-1.66-2.77-2.48l-.15-.15c-.58-.7-1.91.09-2.28-1.38-.19-.79-1.34-1.37-2.09-2a21.12,21.12,0,0,0-2.34-1.9,14.67,14.67,0,0,0-2.23-1c-.58-.77-1.06-2-1.8-2.22-1.51-.38-2.12-1.72-3.31-2.35-.69-.36-1.5-.52-2.17-.91a22.84,22.84,0,0,0-2.77-1.83c-1.92-.76-3.54-2.32-5.85-2.13-.47,0-1-.57-1.71-1a11,11,0,0,0-.53,2.26c-.19,4.15-.26,8.3-.45,12.45-.15,3.49-.42,7-.61,10.45-.1,1.75-.13,3.5-.18,5.25-.08,2.94-.17,5.88-.22,8.82,0,.6.23,1.21.2,1.8-.12,1.85-.31,3.7-.47,5.66a12.39,12.39,0,0,1-4.49-.2c-1-.16-2-.21-3-.3l-3.58-2.15c-.43-.26-1.07-.42-1.24-.8a4.77,4.77,0,0,1-.4-2.12c0-1.54.26-3.07.31-4.61q.25-7.56.41-15.13c.12-5.83.13-11.66.29-17.49.09-3.21.42-6.42.59-9.64.14-2.48.17-5,.3-7.45.26-5,.63-9.92.81-14.89.08-2.28-.16-4.57-.27-6.85-.08-1.52-.18-3.05-.27-4.65,1.28-.83,1.28-.83.68-2.82,1.55-.3,1.07-1.9,1.87-2.89,1.67-.13,3.46-.25,5.25-.42a9,9,0,0,0,2.56-.43,12.9,12.9,0,0,1,5.32-.78c5.05,0,10.1,0,15.15,0a16.39,16.39,0,0,1,5.51.84,6.46,6.46,0,0,0,1.57.33,14.12,14.12,0,0,1,4,1.06c1.51.65,3.16.94,4.67,1.71a33.38,33.38,0,0,1,8.36,6,7.87,7.87,0,0,1,1.4,2.84,13.88,13.88,0,0,1,1.15,7.22,2.62,2.62,0,0,0,0,.79c.56,4-.53,7.73-2,11.38a63,63,0,0,1-2.74,6,9,9,0,0,1-1.89,2,15,15,0,0,1-8.59,4.24,33.15,33.15,0,0,0-4.78,1.37,19.14,19.14,0,0,0,2.39,2.18c1.21.76,1.92,2.32,3.61,2.34.09,0,.23.05.26.12,1.22,2.81,4.21,3.83,6.08,6s4.29,4,6.29,6.15c1.7,1.82,3.59,3.39,5.39,5.07a41.52,41.52,0,0,1,2.87,3.19c.17.2.23.57.43.66,1.74.81,2.26,2.69,3.51,3.92.14.13.24.39.4.43,1.37.3,1.7,1.6,2.46,2.5.38.46,1,.67,1.45,1.11,1.66,1.8,3.28,3.64,4.89,5.48,1.26,1.42,2.39,3,3.76,4.27a46.85,46.85,0,0,1,5.51,7c1.3,1.81,2.9,3.4,4.28,5.14a9.36,9.36,0,0,1,1.5,2.59C336.57,272.39,336.26,273.1,336.16,273.87Zm-76.43-92.5a51.37,51.37,0,0,0-2.37,17.09l1,.06c0,1.69.15,1.67,1.65,2.12,2.14.65,4.55,0,6.52,1.44a1.5,1.5,0,0,0,.78.14c1.61,0,3.23,0,4.84,0a2.7,2.7,0,0,0,1.7-.5,2.41,2.41,0,0,1,2-.58,18.68,18.68,0,0,0,8.17-1.68,1.86,1.86,0,0,0,.71-.6,14.9,14.9,0,0,0,2.32-7.05c.33-2.56-1.29-4.69-1.34-7.15,0-.23-.46-.42-.67-.66a4.38,4.38,0,0,0-2.85-1.22,14.85,14.85,0,0,1-3-1.16,1.76,1.76,0,0,0-.4,0c-2.68-.12-5.36-.34-8-.36C267.15,181.19,263.47,181.31,259.73,181.37Z"/><path class="cls-2" d="M311.35,225.94a7.89,7.89,0,0,1,6.41.19,9.58,9.58,0,0,0,3.7.74c3.36.13,6.73.12,10.1.14s6.7.11,10,0c2.34-.1,4.67-.55,7-.84a1.82,1.82,0,0,0,1.74-1.89,29.77,29.77,0,0,0,0-4.43,4.78,4.78,0,0,0-4.08-3.81c-.55-.05-1.05,0-1.29-.68-.07-.19-.41-.34-.66-.42-2.08-.62-4.18-1.21-6.27-1.84-.82-.25-1.6-.64-2.43-.84a37.54,37.54,0,0,1-4.67-1c-1.42-.52-2.67-1.4-4.29-1.36a5,5,0,0,1-1.81-.58,6.18,6.18,0,0,0-1.62-.67,9.49,9.49,0,0,1-4.46-1.91,43.1,43.1,0,0,1-4.87-3.21,19.45,19.45,0,0,1-5.1-6.21c-.31-.62-.7-1.21-1.09-1.88-.12-2.17-.23-4.49-.37-6.81a22.19,22.19,0,0,1,1.26-9.57c.53-1.34,1.18-2.91,2.26-3.65a15.71,15.71,0,0,1,2.75-1.84c1.66-.67,3.29-1.42,5-2.07,2.62-1,5.44-1.23,8-2.35,1-.45,2.32-.28,3.48-.5,1-.18,1.88-.58,2.84-.78a42.3,42.3,0,0,1,4.3-.7c2.4-.23,4.88-.05,7.18-.6,3.9-.94,7.82-.86,11.75-1.06a35,35,0,0,0,6.41-.54c5.6-1.36,11.25-.44,16.86-.76,3.48-.2,7-.47,10.44-.68,1.07-.06,2.15,0,3.33,0l.15-1.69a8.91,8.91,0,0,0,5.32,1c1.65-.15,3.42-.55,5.07.59.68.48,1.82.3,2.74.46,1.53.26,1.91.64,2.12,2.22s.39,2.92.48,4.39a5.41,5.41,0,0,0,.54,1.85,4.23,4.23,0,0,1-4.5,5.59c-2.4-.14-4.8-.26-7.21-.3s-5-.06-7.48,0c-4.43.1-8.87.25-13.3.41-2.08.07-4.16.17-6.23.32a7.41,7.41,0,0,0-1.63.48,3.14,3.14,0,0,1-.72.26c-1.65.06-3.3.12-5,.14s-3.38-.08-5.06,0c-3.2.18-6.5.05-9.57.83-2.86.72-5.67.47-8.49.77l-3.8.41c-.2,0-.5,0-.57.14-.83,1.46-2.23.85-3.42,1-1.64.17-3.29-.13-4.79,1.1-.66.54-1.91.44-2.91.51a1.88,1.88,0,0,0-1.77,1.36c-1,2.5-.26,4.91,1.93,6.87a21.42,21.42,0,0,0,8,4.53,17.2,17.2,0,0,0,4.48,1.29,1.88,1.88,0,0,1,1.21.6,3.36,3.36,0,0,0,2.38.88c.92.12,1.82-.1,2.65.92.51.63,2,.49,3.05.63a2.62,2.62,0,0,1,1.36.59,10.36,10.36,0,0,0,2.58.91c.7.26,1.52-.05,2.07,1,.27.51,1.55.48,2.59.75a2.36,2.36,0,0,0,1.75,1.61c.43.11.7.78,1.07,1.18,1.19,1.27,2.12,2.77,3.21,4.1s1.27,2.72,2.07,4a4.26,4.26,0,0,1,.63,2.11c.05,3,.08,5.94-.06,8.91-.06,1.29.56,2.7-.43,3.9.24,2.29-1.37,3.83-2.56,5.34s-3,2.4-4.53,3.48c-.33.23-.93.06-1.39.13-1.48.26-3,.27-4.24,1.43-.28.27-.88.25-1.33.27-4.63.15-9.27.33-13.9.4-4.29.06-8.57,0-12.86,0-2.06,0-4.13-.15-6.19-.32a2.76,2.76,0,0,1-1.58-.7c-1.23-1.24-2.37-2.57-3.51-3.9a1.76,1.76,0,0,1-.47-1.07C311.15,232,311.26,229,311.35,225.94Z"/><path class="cls-2" d="M204.75,148c0-.69.1-1.38.1-2.06,0-7.15-.11-14.29-.14-21.43,0-4.78,0-9.57,0-14.36-.08-5.38-.09-10.77-.46-16.13a39.78,39.78,0,0,0-1.32-9.5,6.06,6.06,0,0,1-.18-2.61,3.28,3.28,0,0,1,.9-2.1c1.15-.82,2.27-1.76,4-1.63,2.34.19,4.71,0,7,0,1.26,1.33,2.71,2.41,3.08,4.27.07.39.3.82.21,1.15a7.15,7.15,0,0,0,.35,3.65,16.71,16.71,0,0,1,.16,6,19.38,19.38,0,0,0-.07,2q-.09,9.38-.15,18.76c0,5,0,10.06,0,15.1,0,2,.27,4.05.35,6.08,0,.78-.21,1.57-.21,2.35,0,4.31.11,8.61.17,12.91,0,2.47,0,4.95.09,7.43a23.76,23.76,0,0,0,.38,2.76c.42,3.07.84,6.14,1.25,9.09-1.09,1.92-2.76,2.21-4.67,2.14-2.43-.08-4.85,0-7.28,0a2.76,2.76,0,0,1-2.93-2.17,2,2,0,0,0-1.37-1.56,8.19,8.19,0,0,1-4.17-4.17c-.11-.22-.48-.32-.73-.47l-.7,1.17c.59-2.21-1.4-3.23-1.37-5-1.35-.35-1.21-1.91-2.07-2.57s-1.21-2-2.06-2.6c-1.51-1-1.86-3.12-3.67-3.81a.44.44,0,0,1-.2-.32c.1-1.86-1.38-2-2.67-2.37.11-1,.31-2-.87-2.47-.39-.18-.53-.87-.86-1.27s-.94-1-1.43-1.54c-.14-.14-.43-.2-.47-.34-.45-1.75-2.17-2.52-3-4-.1-.17-.18-.41-.33-.5a5.89,5.89,0,0,1-2.53-3c0-.06-.06-.15-.11-.16-2.43-.84-2.79-3.57-4.6-5a9.15,9.15,0,0,1-2.93-3.24c-.1-.24-.8-.21-1.55-.37,0,4,0,7.72,0,11.47,0,.34.09.67.1,1,.09,4.1.21,8.2.24,12.31,0,2.39-.19,4.78-.19,7.17s.17,4.82.19,7.23c0,1.19-.16,2.38-.23,3.39a19.19,19.19,0,0,1-3.29,1.22A17.56,17.56,0,0,1,161,170c-.33,0-.72-.24-1-.14-2,.76-3.5-.63-5.47-.85a36.22,36.22,0,0,1-.23-3.83c.68-12.64.39-25.29.35-37.93,0-4.75-.45-9.51-.89-14.25-.1-1-.23-2-.36-2.92a4.67,4.67,0,0,0-1.16-2c-1.52-1.94-1.61-3.15-.29-5.26a9.17,9.17,0,0,0,1-1.47c.43-1.18,1.41-1.28,2.41-1.47a9.51,9.51,0,0,0,2.47-.61c2.3-1.11,4.59-.63,6.84,0,.63.17,1.1,1.06,1.58,1.67,1.93,2.5,3.78,5.06,5.76,7.52s4,4.67,5.92,7a11.38,11.38,0,0,1,1.76,2.8c.49,1.21,1.74,1.55,2.45,2.6a39.1,39.1,0,0,0,3.73,4.47c.13.14.17.41.33.5,2.18,1.26,2.8,3.9,4.68,5.35,1.43,1.11,1.94,3,3.61,3.82a.63.63,0,0,1,.22.32c.88,2.11,2.71,3.46,4.12,5.15.54.65.79,1.54,1.32,2.21,1,1.28,2.13,2.48,3.18,3.74.4.48.73,1,1.09,1.55Z"/><path class="cls-2" d="M128.08,246.1a10.46,10.46,0,0,0-.93-1.47c-1.41-1.57-3.24-2.7-4.54-4.39-1.68-.13-1.6-2.39-3.18-2.63.4-1.68-1.18-2.53-1.63-3.87-.77-2.24-1.73-4.42-2.58-6.63a4.74,4.74,0,0,1-.33-1.32c-.18-2.74-.44-5.49-.44-8.23,0-3.27.23-6.55.41-9.82,0-.4.37-.78.54-1.18.43-1.09,1.18-2,1-3.37a1.84,1.84,0,0,1,.79-2.06c.44-.27.49-1.18.72-1.81s.29-1.52.74-1.94c.86-.79,1.69-1.41,1.55-2.78-.06-.6.91-.48,1.28-1.2a22.53,22.53,0,0,1,3.4-4.63c1.37-1.52,2.93-2.86,4.44-4.24.82-.76,1.67-1.5,2.56-2.18a23.06,23.06,0,0,1,2.6-1.79c2.5-1.4,4.9-3.12,7.58-4,3.92-1.31,8-2.33,12.24-1.68,2.84.43,5.68.9,8.48,1.51a8.6,8.6,0,0,1,3,1.45c2.43,1.75,4.85,3.54,7.13,5.48,1,.82,1.52,2.1,2.38,3.07a20.42,20.42,0,0,1,3.33,5.75,3.17,3.17,0,0,0,.76.84,3.33,3.33,0,0,0,.49.24c-.47,1.38.82,2.17,1.16,3.28a21.86,21.86,0,0,0,2.38,6,2,2,0,0,1,.2,1c.14,1.71,0,3.42.71,5.11a6.57,6.57,0,0,1,0,3.15,119.75,119.75,0,0,1-1.61,13c-.91,4.12-1.69,8.31-4.2,12A39,39,0,0,1,167,247.87a51,51,0,0,1-5.62,3,8.42,8.42,0,0,1-3.88,1.17.66.66,0,0,0-.4.05c-2.55,1.8-5.44.94-8.21,1.05a3.29,3.29,0,0,1-2.06-.51,6.91,6.91,0,0,0-2.7-.62c-1.23-.17-2.54.1-3.55-1-.25-.27-.88-.23-1.34-.27a6.61,6.61,0,0,1-3-1c-1.25-.78-2.72-1.2-4.06-1.86-.66-.32-1.44-.31-1.94-1.16C130,246.21,128.83,246.27,128.08,246.1Zm9.26-9.61c.58.09,1.44,0,1.59.27.7,1.3,1.86,1.38,3.07,1.5.53.05,1.19,0,1.53.32a4.32,4.32,0,0,0,3,.89c1.88.08,3.76.24,5.64.22a11.59,11.59,0,0,0,4-.5c2.55-1,5-2.29,6.45-4.8.83-1.38,2.06-2.55,2.71-4,1.17-2.6,2.11-5.3,3-8a18.37,18.37,0,0,0,1.18-6.49,6.07,6.07,0,0,1,.05-1.81,10.41,10.41,0,0,0,.09-6.25c-.77-2.45-.52-5.12-1.76-7.55-.48-1-.6-2.06-1.64-2.66.13-1.85-1.71-2.61-2.27-4.08a22.5,22.5,0,0,0-2.45-2.43c-1.12-.86-2.24-1.74-3.47-2.7a8.53,8.53,0,0,1-1.88,0c-.61-.13-1.14-.6-1.75-.78a5.83,5.83,0,0,0-2.17-.31c-2.65.31-5.21.78-7.37,2.67-1.8,1.58-3.87,2.9-5.28,4.86-2.11,2.94-4.21,5.93-5.16,9.52a3.76,3.76,0,0,1-.67,1.2c-1,1.33-.88,3.22-2.17,4.42,0,0,0,.13,0,.19-.22,1.52-.51,3-.64,4.56a41,41,0,0,1-.3,4.27,1.63,1.63,0,0,0,1.36,2.09c-1,.23-1.4.63-1.07,1.57a13.49,13.49,0,0,1,.6,2.51,23.74,23.74,0,0,0,3.18,8.08c.06.12.52,0,.79,0,.08,1.52.09,1.49,1.38,2.25C137.11,235.66,137.16,236.11,137.34,236.49Z"/><path class="cls-2" d="M58.21,166.66c0-.59.22-1.32,0-1.76-.94-1.62-1.31-3.54-2.64-5-.14-.14-.12-.43-.15-.66a4.87,4.87,0,0,0-.13-1.1c-.33-.81-1.38-1.12-1.13-2.44.16-.85-.79-1.91-1.26-2.87s-.94-1.74-1.31-2.65c-1.32-3.23-2.51-6.53-3.94-9.71-.52-1.14-.8-2.31-1.22-3.45s-1.72-2.19-1.85-3.37c-.16-1.47-1.35-2.37-1.48-3.75a1.75,1.75,0,0,0-.62-1.22c-.73-.47-.74-1.17-1-1.87-.44-1.35-1-2.66-1.54-4-.74-1.86-1.5-3.7-2.24-5.56a30.56,30.56,0,0,0-2.5-5.54,17.16,17.16,0,0,1-1.76-4.07c-.29-.88-.47-1.66-1.61-1.62.37-1.07.47-1.93-.45-2.66-.31-.25-.37-.8-.58-1.19a12.19,12.19,0,0,0-.82-1.33c-.14-.2-.46-.31-.54-.52-.6-1.49-1.11-3-1.76-4.47-.18-.41-.71-.66-1.19-1.07a4,4,0,0,0-1.18-3.62c-.09-.09-.29-.15-.3-.24-.3-2.39-2.13-4.06-3-6.2a24.15,24.15,0,0,0-2.12-4.22c-.58-.92-1.07-2.13-2.35-2-.25-.67-.41-1.16-.59-1.64s-.41-.86-.54-1.3c-.64-2.2.21-3.78,2.34-4.21a34.26,34.26,0,0,1,7.76-.87,4.69,4.69,0,0,1,4.1,2.48,69.24,69.24,0,0,1,4.53,7.53c1.41,2.86,2.7,5.78,4.08,8.65s2.74,5.58,4.11,8.37l.15.37c1.92,4.5,3.86,9,5.76,13.5,1.6,3.79,3,7.67,4.79,11.37,1.86,3.88,3.46,7.87,5.13,11.83.89,2.11,1.43,4.38,2.47,6.41,1.74,3.41,2.84,7.08,4.68,10.44a46.16,46.16,0,0,1,2.31,5.91c.17-.07.34-.1.35-.16.64-2.51,1.25-5,1.9-7.53a13.32,13.32,0,0,1,.65-1.57,2.42,2.42,0,0,0,.27-.72c.22-2.21,1.37-4.14,1.9-6.26s.65-4.38,1.52-6.34c1.7-3.83,2.15-8,3.58-11.89a46.41,46.41,0,0,0,1.36-6c.31-1.35.36-2.89,1-4a7.18,7.18,0,0,0,1.15-4.27c1.83-1.24,1.11-3.55,2.14-5.15.31-.47.13-1.25.18-1.91.31-.34.87-.71,1-1.2.94-2.7,1.83-5.41,2.65-8.15.27-.93.17-1.95,1.23-2.54.29-.17.3-.85.41-1.31.32-1.43.63-2.87.93-4.3a3.41,3.41,0,0,1,2-2.33,1.54,1.54,0,0,1,1.87.21,23.49,23.49,0,0,0,4.43,2.84,15.55,15.55,0,0,1,3.18,3,1.93,1.93,0,0,1,.08,1.54c-.69,2.08-1.48,4.13-2.2,6.2-1.08,3.08-2.15,6.15-3.18,9.25a15.28,15.28,0,0,0-.43,2.24c0,.13.06.31,0,.38C95,109.22,95,111.72,94.27,114c-.87,2.79-1.86,5.55-2.66,8.36-.9,3.21-1.6,6.48-2.46,9.71-.67,2.49-1.68,4.92-2.13,7.45-.5,2.76-1.44,5.38-2.16,8.06-1,3.74-2.32,7.39-3.38,11.12s-2.07,7.76-3.09,11.65a1.58,1.58,0,0,0-.11.59c.31,1.89-.78,3.33-1.47,4.93A1.65,1.65,0,0,1,75,177c-1.8-.12-3.6-.33-5.4-.48a7,7,0,0,0-1.29,0c-1.2.12-2.39.38-3.58.4-1.89,0-2.67-.63-3-2.5a6.44,6.44,0,0,0-1.11-2.22c-.56-1-.57-2.29-1-3.4a13.77,13.77,0,0,0-1.15-2.09Z"/><path class="cls-2" d="M227.2,159c.24-1.56.46-3,.69-4.49,3.13-.52,6.32-.32,9.49-.46a2.85,2.85,0,0,1,2.7,1.69,4.9,4.9,0,0,1,.73,3.62,35.73,35.73,0,0,0-.4,6.22c-.09,4.64-.1,9.29-.18,13.94,0,3.15-.11,6.31-.26,9.45-.11,2.28-.38,4.55-.55,6.83-.11,1.45-.1,2.91-.25,4.36q-.46,4.47-1,8.92c-.32,2.5-.71,5-1.12,7.48a35.77,35.77,0,0,1-1.06,5.28c-1.22,3.76-2.53,7.48-4,11.14a18.74,18.74,0,0,1-2.58,4.22c-.63.85-1.52,1.5-1.74,2.63a.78.78,0,0,1-.34.49c-2.88,1.54-4.79,4.4-8.23,5.31a20,20,0,0,1-8.84.32c-2.49-.43-5-.67-7.54-.88a4.22,4.22,0,0,1-3.09-1.41c-1.19-1.36-1.22-1.33-2.76-1.61-.43-1.67-.91-2.7-2.57-2.63a18,18,0,0,0-2.78-5.29,1.34,1.34,0,0,1-.26-.52c-.63-2.85-2.06-5.41-3-8.15a27.25,27.25,0,0,1-.62-2.74,89.88,89.88,0,0,1-1.55-23.49c.22-4.16.59-8.31.77-12.47a32.88,32.88,0,0,0-.27-5.43,9.72,9.72,0,0,1,.32-4.81c1.09-.37,2.24-.74,3.37-1.14a8.94,8.94,0,0,1,7,.2,16.07,16.07,0,0,0,1.52.53,3.14,3.14,0,0,1,1.84,1.68c.29.56.65,1.07,1.08,1.76-.49,1.31-1.05,2.79-.27,4.41a2.08,2.08,0,0,1-.23,1.53,7.84,7.84,0,0,0-.68,3.51,19,19,0,0,1-.35,2.56,16.38,16.38,0,0,0-.21,5.19c.22,1.19-.29,2.49-.32,3.74-.06,3.42-.11,6.85,0,10.27a8.8,8.8,0,0,0,.82,4.45c-.65,2.05.53,3.89.68,5.86a2.75,2.75,0,0,0,1.4,2.51c.21.11.33.41.5.61a33.17,33.17,0,0,0,6.07,5.21,4.16,4.16,0,0,0,1.6.73c1.64.31,3.29.53,4.95.76a1.7,1.7,0,0,0,1-.06c1.35-.71,2.67-1.48,4-2.25l-.9-1.06,2.14.18c.56-2.25,2.21-4.11,1.9-6.6,0-.16.28-.37.42-.56s.47-.52.48-.79c.08-2,1.08-4,.61-6.11-.08-.36,0-1,.17-1.14,1.25-.63,1-1.77.82-2.67a19.47,19.47,0,0,1,.14-6c.25-1.79.3-3.61.39-5.42.18-3.56.31-7.12.48-10.68.11-2.08.3-4.15.37-6.23.14-4.14.23-8.29.33-12.44q.07-3.73.1-7.46C228.16,160.51,228.19,159.41,227.2,159Z"/><path class="cls-2" d="M104.93,100.19c3.82-3.09,8.07-4.49,12.92-2.84l2.22,2.89a.67.67,0,0,1,.18.34c-.07,2.87,1.8,5,2.69,7.57,1.23,3.51,2.43,7,3.87,10.48,1.58,3.77,2.73,7.72,4.76,11.32.89,1.59,1.23,3.51,2.13,5.1.73,1.3.5,3.07,2,4,.06,1.23.91,2.13,1.31,3.19a33.88,33.88,0,0,0,3,6.5,21,21,0,0,1,1.22,2.87c1.68,3.79,3.36,7.58,5.09,11.35a23.9,23.9,0,0,0,1.61,2.57l1.34-.28c.08.11.24.23.23.31-.43,1.93.37,4-.42,5.93-.92,0-1.73,0-2.52.17a7.94,7.94,0,0,0-1.7.52c-.23.09-.4.45-.62.47a41.7,41.7,0,0,1-6.19.46,3.47,3.47,0,0,1-2.89-3c-.36-2.13-1.62-3.71-2.46-5.53-.08-.17-.43-.29-.42-.41.21-1.78-1.11-2.9-1.89-4.23a43.33,43.33,0,0,1-2.3-5.51c-.69-1.69-.77-1.92-2.56-1.77-3.12.26-6.23.65-9.35.93-1.33.12-2.68.09-4,.11-2.42,0-4.85.05-7.27.1s-2.67.3-3.33,2.57c-.89,3.07-1.91,6.11-2.81,9.17a34.84,34.84,0,0,0-1,4.27,3.43,3.43,0,0,1-5.27,2.47,2.54,2.54,0,0,0-1.08-.35,2.76,2.76,0,0,1-2.07-.56c-.17-.15-.6,0-.91,0s-.79.19-.95,0c-1.07-1.07-2.5-1.86-2.87-3.48a3.51,3.51,0,0,1,0-1.37c.22-1.3.51-2.6.81-4.07.92,0,1.13-.76,1.45-1.65.73-2,1.27-4.1,1.87-6.13.86-2.9,2.12-5.65,2.87-8.57.21-.83.11-1.75,1-2.23.08,0,.08-.24.12-.37.74-2.75,1.44-5.51,2.24-8.23.22-.77.15-1.76,1.14-2.19.19-.08.3-.43.37-.67.55-1.79,1.06-3.59,1.63-5.36.48-1.5,1.45-2.82,1.39-4.53,0-.44.91-.87,1-1.36.62-4.12,2.8-7.71,3.81-11.69.12-.51.4-1.14.22-1.55a1.61,1.61,0,0,1,.43-2.1,2.81,2.81,0,0,0,.47-1.87C105.33,102.78,105.1,101.59,104.93,100.19Zm13.79,39.86,2.32,1.26a6.22,6.22,0,0,0-.15-1.54c-.8-2.07-2.27-3.87-2.53-6.16a.67.67,0,0,0-.17-.36c-1.92-1.92-1.76-4.75-3-7a41.28,41.28,0,0,1-1.77-3.92c-.42,1.32-.74,2.45-1.14,3.54-.47,1.29-1.15,2.5-.75,4,.1.4-.36.93-.5,1.42s0,.93-.26,1.19a2.57,2.57,0,0,0-.72,1.09,21,21,0,0,1-1,3.72,6.34,6.34,0,0,0-.74,3.89h9.88Z"/><path class="cls-2" d="M245.19,109.84l-11,.49a4.65,4.65,0,0,1-1,.11,2.77,2.77,0,0,0-3.43,1.8l-.43-1.1c-1.45.12-2.91.29-4.37.34a3.13,3.13,0,0,1-2.82-2.3c-.33-3.18-.55-6.36-.82-9.58a5.28,5.28,0,0,0,1-.26c2.72-1.55,5.72-1.11,8.65-1.22,4.07-.15,8.13-.49,12.2-.66,2.36-.1,4.72,0,7.08,0,2.09,0,4.18.07,6.27,0s4-.42,6-.54c2.53-.14,5.06-.26,7.58-.2,1.36,0,2.71.56,4.08.69,2.33.23,4.67.31,7,.47,1,.07,2,.2,3,.3l1,1.6c-.06.16-.11.35-.19.52-.19.42-.64.94-.52,1.22.54,1.24-.45,2.18-.55,3.29a14.07,14.07,0,0,1-1,3.43,3,3,0,0,1-3.47,2.09c-2.85-.31-5.69-.84-8.55-1-3.29-.2-6.59-.17-9.88-.16-.94,0-1.29.89-1.33,2.1-.06,1.94.38,3.88-.17,5.84a13,13,0,0,0-.06,3c-.13,5.51-.35,11-.38,16.53a79.55,79.55,0,0,0,.45,11.67c.33,2.25-.17,4.38,0,6.55.07.77-.22,1.62.55,2.25a.8.8,0,0,1,.18.74c-.84,1.14-.09,2.19.15,3.25a5.41,5.41,0,0,1-.58,4.19c-3.42,0-6.92.1-10.41,0-2.44-.09-3.42-1.57-3-4a4.25,4.25,0,0,0,0-1c-.25-6.31-.56-12.62-.75-18.94-.07-2.28.15-4.56.19-6.84.07-3.57.18-7.14.13-10.7,0-3.41-.21-6.83-.39-10.24C245.64,112.33,245.39,111.21,245.19,109.84Z"/><path class="cls-1" d="M156,40.4a143,143,0,0,0-.32-15.9c-.31-5,.31-9.64-3.21-13.64C147.86,5.6,140.06.35,132.9,0c-7.5-.34-14.11,3.92-19.14,9.14-1.41,1.46-1.89,3.23-3.15,4.73-.59.7-1.52.9-2.12,1.73-.81,1.13-1.14,3.05-1.52,4.37a54.82,54.82,0,0,0-2.15,17.5,59.64,59.64,0,0,0,5.91,22.78c1.39,3,8.28,19.28,12.27,17.9-.72.35-.52,1.43-.14,2.13a11.36,11.36,0,0,0,3.69,4c2.1,1.4,2.48,3.8,5.45,4.65,3.16.91,5.2-.11,6.6-3.06,1.7-3.58,5-6.8,7-10.35a97,97,0,0,0,5.09-10.76A75.38,75.38,0,0,0,156,40.4Zm-12.1-27.54a12.85,12.85,0,0,1,1,1.4c2.7,4.19,3.55,9,3.84,13.87.15,2.57-.52,5.29-.89,7.86,0,3-.91,6.22-1.37,9.17-.43,2.65-1.33,5.43-1.41,8.1a31.41,31.41,0,0,1-2.29,10.82c-1.22,3.08-2.28,6.4-3.72,9.45a27.74,27.74,0,0,1-2.7,4.89c-.44.58-1.11,1.53-1.88,1.7-1.24.28-1.81-1.14-2.52-2-2.85-3.63-5.57-7.35-8.1-11.21A85.21,85.21,0,0,1,116,52.48,45.14,45.14,0,0,1,113,35.79c-.05-3.38-.2-7.39,1.16-10.57,1.15-2.67,2.54-6,4.5-8.23,1.57-1.76,3.74-2.84,5.53-4.34,2.15-1.81,4.07-3,7-2.84,2,.13,4,.7,6.07.73,1.82,0,3.44-.25,5.05.84A7.76,7.76,0,0,1,143.94,12.86Zm-19.19-11h0Z"/><path class="cls-1" d="M142.85,29.67A10.94,10.94,0,0,0,139,24.06c-1.91-1.58-4.42-2.18-6.84-2.74a15.3,15.3,0,0,0-4.55-.59c-3.88.26-6.1,4.27-7,7.65a12.77,12.77,0,0,0,2,11,3.88,3.88,0,0,0,5,2.1,2.17,2.17,0,0,0,2,2c2.43.25,6.62-2.59,8.53-4a11.63,11.63,0,0,0,4.67-6.21A7.25,7.25,0,0,0,142.85,29.67Zm-11.08,2.77a7.26,7.26,0,0,0-1.93.62,3,3,0,0,1,.14-4.55c.79.26,3.23,0,3.66.59.16.23-.46,3.17-.3,3.15C132.81,32.3,132.29,32.35,131.77,32.44Z"/></g></g></svg>