<svg xmlns="http://www.w3.org/2000/svg" viewBox="0 0 399.28 218.93"><defs><style>.cls-1{fill:#0b4c7c;}.cls-2{fill:#d2990d;}</style></defs><g id="Capa_2" data-name="Capa 2"><g id="Capa_1-2" data-name="Capa 1"><path class="cls-1" d="M324.57,205.62c-2.32-.21-3.2,1.32-4.26,2.53A16.92,16.92,0,0,1,316,212c-.76.43-1.34.1-1.91.29-.74-1.54-1.13-3.4-2.26-4.5-1.67-1.61-2-4-3.74-5.45a9.43,9.43,0,0,1-2-2.58,3,3,0,0,0-2.27-1.53c-.47-2.32-.5-2.35-3-2.5a2.19,2.19,0,0,0-.66-2.67,57.55,57.55,0,0,1-4.1-4.27l-.47,1.16A4.44,4.44,0,0,0,293,186c-.26-.13-.38-.52-.56-.79a27.14,27.14,0,0,0-4.7-5.17c-1-.9-1.64-2.22-2.58-3.2-1.21-1.25-2.12-2.8-3.83-3.55-.48-.21-.73-.91-1.14-1.33-2.14-2.2-4.28-4.4-6.45-6.57-.89-.89-1.87-1.68-2.81-2.52l-.15-.15c-.59-.71-1.95.09-2.31-1.4-.2-.81-1.37-1.39-2.13-2a22.86,22.86,0,0,0-2.37-1.92,16.73,16.73,0,0,0-2.26-1c-.6-.78-1.08-2.06-1.83-2.25-1.53-.39-2.16-1.74-3.36-2.38-.7-.37-1.52-.53-2.21-.93a24.82,24.82,0,0,0-2.81-1.86c-1.94-.77-3.59-2.35-5.93-2.16-.48,0-1-.57-1.74-1a12,12,0,0,0-.54,2.29c-.19,4.21-.26,8.43-.45,12.64-.16,3.54-.43,7.07-.62,10.61-.1,1.77-.14,3.54-.19,5.32-.08,3-.17,6-.22,8.95,0,.61.24,1.22.2,1.82-.11,1.89-.31,3.76-.48,5.75a12.07,12.07,0,0,1-4.55-.21c-1-.16-2-.2-3.06-.3l-3.64-2.18c-.44-.26-1.08-.43-1.26-.81a4.9,4.9,0,0,1-.4-2.15c0-1.56.27-3.12.32-4.68.16-5.12.31-10.24.41-15.35.12-5.92.13-11.84.3-17.75.09-3.27.42-6.52.6-9.79.13-2.52.17-5,.3-7.56.27-5,.64-10.07.82-15.11.08-2.31-.17-4.63-.28-6.95-.07-1.55-.17-3.1-.27-4.72,1.3-.84,1.3-.84.69-2.86,1.58-.3,1.09-1.93,1.9-2.93,1.7-.14,3.51-.26,5.32-.44a8.65,8.65,0,0,0,2.61-.43,13.07,13.07,0,0,1,5.39-.79c5.13,0,10.26,0,15.38,0a16.37,16.37,0,0,1,5.59.86,7.22,7.22,0,0,0,1.6.33,13.83,13.83,0,0,1,4,1.08c1.54.65,3.22.94,4.75,1.73a33.84,33.84,0,0,1,8.48,6.07,8.09,8.09,0,0,1,1.42,2.88,14.09,14.09,0,0,1,1.17,7.33,2.68,2.68,0,0,0,0,.8c.56,4.06-.54,7.85-2,11.55a62.52,62.52,0,0,1-2.79,6.06,9,9,0,0,1-1.91,2,15.12,15.12,0,0,1-8.72,4.31,34.13,34.13,0,0,0-4.85,1.39,19,19,0,0,0,2.43,2.21c1.23.78,1.95,2.36,3.66,2.37a.35.35,0,0,1,.27.13c1.23,2.85,4.26,3.89,6.16,6.11s4.36,4.07,6.39,6.25c1.72,1.84,3.64,3.43,5.47,5.13,1.06,1,1.95,2.15,2.91,3.24.18.2.23.58.44.68,1.76.81,2.29,2.72,3.55,4,.15.14.25.4.41.44,1.4.31,1.73,1.62,2.5,2.53.39.47,1.06.69,1.48,1.14,1.68,1.82,3.32,3.69,5,5.55,1.27,1.45,2.42,3,3.81,4.34a46.91,46.91,0,0,1,5.59,7.08c1.32,1.84,2.94,3.45,4.35,5.22a9.75,9.75,0,0,1,1.52,2.63C325,204.12,324.67,204.84,324.57,205.62ZM247,111.75a52.1,52.1,0,0,0-2.41,17.34l1,.06c0,1.72.15,1.7,1.67,2.16,2.18.65,4.62,0,6.62,1.46a1.53,1.53,0,0,0,.79.14c1.64,0,3.28,0,4.92,0a2.76,2.76,0,0,0,1.72-.5,2.37,2.37,0,0,1,2.06-.59,19.06,19.06,0,0,0,8.29-1.71,1.84,1.84,0,0,0,.72-.61,15,15,0,0,0,2.35-7.15c.35-2.6-1.3-4.77-1.36-7.26,0-.23-.46-.43-.68-.67a4.41,4.41,0,0,0-2.89-1.24,15.23,15.23,0,0,1-3-1.17,1.11,1.11,0,0,0-.41,0c-2.72-.13-5.44-.35-8.15-.37C254.53,111.57,250.8,111.69,247,111.75Z"/><path class="cls-1" d="M299.39,157a8,8,0,0,1,6.5.2,9.88,9.88,0,0,0,3.75.75c3.42.13,6.84.12,10.26.14s6.8.11,10.19,0c2.37-.1,4.73-.56,7.1-.85a1.85,1.85,0,0,0,1.77-1.92,30.7,30.7,0,0,0,0-4.5,4.88,4.88,0,0,0-4.15-3.87c-.55,0-1.06,0-1.31-.68-.07-.2-.41-.35-.66-.43-2.12-.63-4.25-1.23-6.36-1.87-.84-.25-1.63-.65-2.48-.85a39.06,39.06,0,0,1-4.74-1c-1.43-.54-2.7-1.43-4.35-1.38a5.27,5.27,0,0,1-1.84-.59,6.6,6.6,0,0,0-1.64-.69,9.57,9.57,0,0,1-4.53-1.93,44.73,44.73,0,0,1-4.93-3.26,19.52,19.52,0,0,1-5.18-6.3c-.31-.64-.71-1.23-1.11-1.92-.12-2.19-.24-4.55-.38-6.91a22.55,22.55,0,0,1,1.29-9.71c.53-1.35,1.19-2.94,2.29-3.7a15.28,15.28,0,0,1,2.79-1.87c1.69-.67,3.34-1.44,5-2.09,2.66-1,5.52-1.26,8.14-2.39,1.05-.46,2.36-.29,3.53-.51,1-.19,1.91-.59,2.89-.79a43,43,0,0,1,4.36-.71c2.43-.24,4.95,0,7.29-.61,3.95-.95,7.93-.87,11.92-1.08a35.1,35.1,0,0,0,6.51-.54c5.68-1.39,11.41-.45,17.11-.78,3.53-.19,7.06-.47,10.59-.68,1.09-.07,2.18,0,3.38,0,.05-.57.1-1,.16-1.72a9,9,0,0,0,5.39,1c1.68-.15,3.48-.56,5.15.61.69.48,1.84.3,2.78.45,1.55.27,1.94.66,2.15,2.26s.4,3,.49,4.46a5.75,5.75,0,0,0,.54,1.87,4.26,4.26,0,0,1,0,2.69,4.34,4.34,0,0,1-4.61,3c-2.43-.13-4.87-.25-7.31-.3s-5.07-.06-7.6,0c-4.5.1-9,.25-13.5.41-2.11.07-4.22.17-6.32.32a7.85,7.85,0,0,0-1.66.49,2.9,2.9,0,0,1-.73.26c-1.67.07-3.34.12-5,.14s-3.42-.07-5.13,0c-3.25.18-6.6,0-9.71.84-2.9.73-5.76.47-8.62.78l-3.86.42c-.2,0-.51,0-.57.14-.85,1.48-2.27.86-3.48,1-1.66.16-3.34-.14-4.86,1.11-.67.55-1.94.45-2.95.52a1.9,1.9,0,0,0-1.8,1.38c-1,2.54-.27,5,2,7a21.63,21.63,0,0,0,8.09,4.6A17.67,17.67,0,0,0,326,128.6a1.89,1.89,0,0,1,1.24.61,3.39,3.39,0,0,0,2.41.89c.93.12,1.85-.1,2.69.94.51.63,2,.49,3.1.63a2.62,2.62,0,0,1,1.38.6,10.4,10.4,0,0,0,2.62.93c.7.25,1.54,0,2.09,1,.28.51,1.57.48,2.63.76a2.4,2.4,0,0,0,1.78,1.64c.43.11.71.79,1.08,1.19,1.22,1.29,2.16,2.81,3.26,4.16s1.29,2.77,2.11,4.05a4.48,4.48,0,0,1,.63,2.14c0,3,.08,6-.06,9-.06,1.32.57,2.75-.43,4,.24,2.32-1.39,3.88-2.6,5.42s-3,2.43-4.6,3.53c-.34.23-.94.05-1.41.13-1.5.26-3.08.27-4.31,1.45-.28.27-.88.25-1.35.27-4.7.15-9.4.33-14.1.41-4.35.06-8.7,0-13.05,0-2.09,0-4.19-.14-6.28-.32a2.73,2.73,0,0,1-1.61-.71c-1.25-1.26-2.4-2.61-3.56-3.95a1.85,1.85,0,0,1-.48-1.09C299.18,163.14,299.3,160.05,299.39,157Z"/><path class="cls-1" d="M146.93,162c0-.7.1-1.4.1-2.09,0-7.25-.11-14.5-.15-21.75,0-4.85.05-9.71,0-14.57-.08-5.46-.09-10.93-.47-16.37a40.59,40.59,0,0,0-1.34-9.65,6.35,6.35,0,0,1-.19-2.64,3.38,3.38,0,0,1,.92-2.14c1.17-.82,2.3-1.78,4-1.64,2.38.18,4.78,0,7.11,0,1.27,1.35,2.75,2.45,3.12,4.34.07.39.31.82.21,1.17a7.24,7.24,0,0,0,.35,3.7,17,17,0,0,1,.17,6.07,19.77,19.77,0,0,0-.07,2q-.09,9.53-.15,19.05c0,5.1,0,10.21,0,15.32,0,2.06.27,4.11.35,6.17,0,.79-.21,1.59-.21,2.39,0,4.37.11,8.73.17,13.1,0,2.51,0,5,.09,7.54a27.29,27.29,0,0,0,.39,2.8c.43,3.11.85,6.23,1.26,9.22-1.1,1.95-2.8,2.25-4.74,2.18-2.45-.09-4.92,0-7.38,0a2.81,2.81,0,0,1-3-2.19,2.06,2.06,0,0,0-1.38-1.59,8.27,8.27,0,0,1-4.23-4.23c-.12-.23-.5-.32-.75-.48l-.71,1.19c.61-2.24-1.42-3.28-1.39-5-1.36-.36-1.23-1.94-2.1-2.62s-1.23-2-2.09-2.63c-1.53-1.06-1.88-3.17-3.72-3.87a.42.42,0,0,1-.21-.32c.1-1.89-1.4-2.08-2.71-2.41.11-1.05.32-2-.88-2.51-.4-.17-.54-.88-.87-1.28s-1-1.06-1.46-1.57c-.13-.14-.43-.2-.47-.34-.45-1.77-2.21-2.56-3-4-.1-.18-.18-.42-.33-.51a5.94,5.94,0,0,1-2.56-3c0-.07-.07-.15-.12-.17-2.46-.85-2.83-3.62-4.67-5.07a9.23,9.23,0,0,1-3-3.29c-.1-.24-.81-.21-1.57-.37,0,4,0,7.84,0,11.64,0,.34.08.68.09,1,.09,4.16.22,8.33.25,12.49,0,2.43-.19,4.85-.19,7.28s.17,4.89.19,7.34c0,1.21-.16,2.42-.23,3.44a20.69,20.69,0,0,1-3.34,1.24,19,19,0,0,1-3.54.06c-.33,0-.72-.24-1-.14-2,.77-3.55-.65-5.55-.87a34.75,34.75,0,0,1-.23-3.88c.68-12.83.39-25.67.35-38.5,0-4.82-.45-9.65-.91-14.45-.09-1-.22-2-.35-3a5,5,0,0,0-1.19-2c-1.53-2-1.63-3.19-.29-5.33a8.76,8.76,0,0,0,1-1.49c.44-1.2,1.44-1.3,2.45-1.49a9.92,9.92,0,0,0,2.51-.62c2.33-1.13,4.66-.65,6.94,0,.64.18,1.12,1.08,1.6,1.71,2,2.53,3.84,5.12,5.85,7.62s4,4.74,6,7.16a11,11,0,0,1,1.79,2.84c.5,1.22,1.77,1.57,2.49,2.64a38.39,38.39,0,0,0,3.79,4.53c.13.15.17.42.33.51,2.21,1.28,2.84,4,4.75,5.43,1.45,1.13,2,3,3.66,3.88a.64.64,0,0,1,.23.33c.9,2.14,2.75,3.5,4.18,5.22.55.66.8,1.56,1.34,2.24,1,1.31,2.16,2.52,3.22,3.79.41.5.74,1,1.11,1.58Z"/><path class="cls-1" d="M42.6,195.49c0-.6.23-1.34,0-1.79-1-1.64-1.33-3.59-2.68-5-.14-.14-.12-.44-.15-.67a4.44,4.44,0,0,0-.14-1.11c-.33-.83-1.4-1.14-1.14-2.49.16-.85-.8-1.93-1.28-2.91s-1-1.76-1.33-2.68c-1.34-3.29-2.54-6.63-4-9.86-.52-1.16-.81-2.34-1.23-3.5s-1.75-2.23-1.88-3.42c-.17-1.49-1.37-2.4-1.5-3.81A1.82,1.82,0,0,0,26.6,157c-.74-.47-.76-1.19-1-1.89-.44-1.37-1-2.7-1.56-4-.75-1.88-1.53-3.75-2.28-5.63a30.89,30.89,0,0,0-2.53-5.63,17.79,17.79,0,0,1-1.79-4.12c-.29-.9-.47-1.69-1.63-1.65.37-1.09.47-2-.46-2.7-.32-.25-.37-.82-.58-1.21a11.71,11.71,0,0,0-.84-1.35c-.14-.2-.46-.31-.55-.53-.61-1.5-1.13-3-1.78-4.54-.18-.41-.73-.66-1.21-1.08a4,4,0,0,0-1.2-3.67c-.09-.1-.29-.15-.31-.24-.3-2.43-2.15-4.13-3-6.3a24.53,24.53,0,0,0-2.14-4.29c-.59-.92-1.09-2.15-2.4-2-.24-.69-.41-1.18-.6-1.67s-.41-.86-.54-1.32c-.65-2.22.21-3.83,2.38-4.27A35.16,35.16,0,0,1,10.46,98a4.78,4.78,0,0,1,4.16,2.51,70.79,70.79,0,0,1,4.6,7.65c1.43,2.9,2.74,5.86,4.14,8.78s2.78,5.66,4.17,8.49c.06.12.1.25.15.38,1.95,4.57,3.92,9.13,5.85,13.7,1.62,3.84,3,7.78,4.86,11.53,1.89,3.95,3.51,8,5.2,12,.9,2.15,1.46,4.45,2.51,6.51,1.77,3.46,2.88,7.18,4.76,10.59a47.55,47.55,0,0,1,2.34,6c.17-.07.34-.1.35-.16.65-2.55,1.27-5.1,1.93-7.65a12,12,0,0,1,.66-1.58,3,3,0,0,0,.28-.73c.22-2.25,1.38-4.21,1.92-6.36s.67-4.45,1.55-6.43c1.73-3.89,2.18-8.12,3.63-12.07A47.8,47.8,0,0,0,64.9,145c.31-1.37.36-2.93,1.07-4.07a7.3,7.3,0,0,0,1.16-4.33c1.85-1.26,1.13-3.6,2.18-5.23.3-.48.13-1.27.18-1.93.31-.36.87-.73,1.05-1.23,1-2.73,1.86-5.49,2.69-8.26.28-1,.17-2,1.25-2.59.29-.16.31-.86.41-1.32.33-1.46.65-2.91,1-4.37a3.43,3.43,0,0,1,2.07-2.36,1.55,1.55,0,0,1,1.9.21,23.32,23.32,0,0,0,4.49,2.88,15.53,15.53,0,0,1,3.23,3,1.93,1.93,0,0,1,.08,1.56c-.7,2.11-1.5,4.19-2.23,6.29-1.1,3.12-2.19,6.25-3.23,9.39a15.31,15.31,0,0,0-.43,2.28c0,.12,0,.31,0,.38-1.79,1.88-1.8,4.41-2.51,6.69-.89,2.83-1.89,5.62-2.7,8.48-.92,3.26-1.62,6.58-2.5,9.85-.68,2.53-1.7,5-2.16,7.56-.5,2.81-1.46,5.46-2.19,8.19-1,3.79-2.36,7.5-3.43,11.27-1.13,3.93-2.1,7.89-3.14,11.83a1.45,1.45,0,0,0-.11.6c.31,1.92-.79,3.38-1.49,5A1.67,1.67,0,0,1,59.62,206c-1.83-.12-3.65-.33-5.48-.49a6.37,6.37,0,0,0-1.31,0c-1.21.12-2.42.38-3.64.4-1.91,0-2.7-.64-3-2.53a6.67,6.67,0,0,0-1.13-2.26c-.57-1-.58-2.32-1-3.45a15.15,15.15,0,0,0-1.17-2.12Z"/><path class="cls-1" d="M188,121.39l-11.19.49a4.94,4.94,0,0,1-1,.12,2.82,2.82,0,0,0-3.49,1.82l-.43-1.11c-1.48.12-3,.29-4.44.34a3.19,3.19,0,0,1-2.87-2.34c-.33-3.22-.56-6.45-.82-9.71a4.61,4.61,0,0,0,1-.27c2.76-1.57,5.8-1.12,8.78-1.24,4.13-.15,8.25-.49,12.38-.67,2.39-.1,4.79,0,7.18,0,2.12,0,4.25.07,6.36,0s4.08-.44,6.13-.55c2.56-.15,5.13-.27,7.69-.21,1.38,0,2.75.57,4.14.71,2.36.23,4.74.31,7.11.47,1,.07,2,.2,3,.3l1,1.62c-.06.17-.12.36-.2.54-.19.42-.65,1-.53,1.23.55,1.27-.45,2.22-.56,3.34a13.81,13.81,0,0,1-1,3.49,3.09,3.09,0,0,1-3.52,2.11c-2.9-.31-5.78-.85-8.68-1-3.34-.21-6.69-.17-10-.16-.95,0-1.31.9-1.34,2.12-.06,2,.38,3.95-.17,5.93a12.89,12.89,0,0,0-.07,3.05c-.13,5.59-.36,11.18-.39,16.78a80.54,80.54,0,0,0,.47,11.84c.32,2.28-.18,4.44,0,6.65.08.78-.22,1.64.56,2.28a.82.82,0,0,1,.18.75c-.85,1.15-.09,2.22.15,3.3a5.43,5.43,0,0,1-.58,4.25c-3.48,0-7,.1-10.56,0-2.49-.1-3.48-1.59-3-4.06a4.34,4.34,0,0,0,0-1c-.26-6.41-.57-12.81-.76-19.22-.08-2.32.14-4.63.19-6.95.07-3.62.18-7.24.14-10.86,0-3.46-.22-6.92-.4-10.38C188.43,123.92,188.17,122.78,188,121.39Z"/><path class="cls-2" d="M73.19,215.55a1.49,1.49,0,0,0-.51.1,1.55,1.55,0,0,0-1.05,1.74,1.33,1.33,0,0,0,.32.86,1.39,1.39,0,0,0,1,.48,1.35,1.35,0,0,0,.44-.07,1.63,1.63,0,0,0,1.2-1.81A1.51,1.51,0,0,0,73.19,215.55Z"/><path class="cls-2" d="M300.77,215.77a1.57,1.57,0,0,0-.3-.37,4.09,4.09,0,0,0-.61-1l-.21-.28a1.34,1.34,0,0,0-.43-1,1.36,1.36,0,0,0-.94-.38,1.47,1.47,0,0,0-.42.06,5.15,5.15,0,0,1-.57-.29,5.58,5.58,0,0,0-2.18-.76,1.41,1.41,0,0,0-.84-.28,1.32,1.32,0,0,0-.64.16h0a1,1,0,0,1-.25,0,1.27,1.27,0,0,0-.6-.27,23.54,23.54,0,0,1-3.57-.89c-.78-.25-1.64-.52-2.79-.81a1.33,1.33,0,0,0-.34-.05,1.27,1.27,0,0,0-.39.06,1.26,1.26,0,0,0-.47-.08,1.39,1.39,0,0,0-.63.15l-.54-.1a9.7,9.7,0,0,1-1.53-.35,1.33,1.33,0,0,0-.88-.56,2.75,2.75,0,0,0-.49-.05,1.58,1.58,0,0,0-.32,0,1.89,1.89,0,0,0-.27-.2l0,0a5.84,5.84,0,0,0-2.46-.51l-.41,0a1.1,1.1,0,0,0-.31,0,1.5,1.5,0,0,0-.55.11c-.5-.07-1-.16-1.56-.25a30.91,30.91,0,0,0-4.84-.54l-.73,0a1.41,1.41,0,0,0-.61.19,3.28,3.28,0,0,1-.56-.14,7.57,7.57,0,0,0-1.78-.38,1.4,1.4,0,0,0-.41-.06,1.37,1.37,0,0,0-.34,0,.93.93,0,0,1-.25,0,1.37,1.37,0,0,0-1.23-.75h0a4.36,4.36,0,0,0-2.27.37,1.41,1.41,0,0,0-.54-.11h-.19a1.33,1.33,0,0,0-.47-.37,5.64,5.64,0,0,0-2.5-.55c-.28,0-.54,0-.79,0l-.44,0h-.15a1.3,1.3,0,0,0-1-.49,1.32,1.32,0,0,0-.73.22,2,2,0,0,0-.3.22A5.21,5.21,0,0,0,254,205l-.17-.09a2.81,2.81,0,0,0-1.18-.23H252c-.17,0-.21,0-.24,0a1.43,1.43,0,0,0-.39-.15,2.34,2.34,0,0,0-1.14-.26h0a1.43,1.43,0,0,0-.83-.28,1.33,1.33,0,0,0-.83.29l-.27-.06a5.22,5.22,0,0,0-1-.16,1.38,1.38,0,0,0-1.09-.54,1.34,1.34,0,0,0-.4.06h0a2,2,0,0,1-.64-.18,4.49,4.49,0,0,0-1.56-.35,2.25,2.25,0,0,0-.44,0,1.16,1.16,0,0,0-.41.13,4.53,4.53,0,0,0-2.06-.49h-.26l-.15,0a1.45,1.45,0,0,0-.42-.11h-.42a1.87,1.87,0,0,0-1.42.48l-.19,0a4.74,4.74,0,0,0-1-.13l-.36,0a1.49,1.49,0,0,0-.3-.09,1.4,1.4,0,0,0-1-.39,1.43,1.43,0,0,0-.29,0,3.45,3.45,0,0,1-.71.1,4.26,4.26,0,0,1-.88-.15l-.24-.05-.15-.09a5.19,5.19,0,0,0-2.32-.39h-.47a1.38,1.38,0,0,1-1.47-.4h-.1l-.12,0h0l-1.22.16a1.44,1.44,0,0,0-.7-.45,3.74,3.74,0,0,0-.85-.1,8.84,8.84,0,0,0-1.36.15c-.16,0-.3,0-.46.05a1.3,1.3,0,0,0-.85-.41h-.28a1.75,1.75,0,0,0-1.23.46l-.36-.07a9.57,9.57,0,0,0-2-.25,5.53,5.53,0,0,0-.71,0l-.33-.26a1.37,1.37,0,0,0-.85-.29h-.06a1.38,1.38,0,0,0-.84-.46,3,3,0,0,0-.42,0h-1a1.25,1.25,0,0,0-.39.11l-.23-.14a1.35,1.35,0,0,0-.67-.18,1.38,1.38,0,0,0-.59.14,1.33,1.33,0,0,0-.49.39h-1.23a5.23,5.23,0,0,0-1.66.21,2.37,2.37,0,0,0-.69-.11,1.83,1.83,0,0,0-.65.16,1.34,1.34,0,0,0-.76-.35h-.32a1.35,1.35,0,0,0-1,.52h0l-.46.09a1.32,1.32,0,0,0-.3-.07h-1.25a1.43,1.43,0,0,0-.53-.17h-.14a1.39,1.39,0,0,0-.48.14,1.92,1.92,0,0,0-1.22-.45,2.14,2.14,0,0,0-.54.07,3.67,3.67,0,0,0-1.82-.71,5.08,5.08,0,0,1-.9-.21,1.36,1.36,0,0,0-.48-.09,1.31,1.31,0,0,0-.75.26,1.25,1.25,0,0,0-.26-.07,1.28,1.28,0,0,0-1,.43,3,3,0,0,0-.93.35,1.49,1.49,0,0,0-1-.6l-.33,0a1.55,1.55,0,0,0-1.38.66h-.09a8.88,8.88,0,0,0-1.76.2,1.07,1.07,0,0,0-.22-.15,1.43,1.43,0,0,0-.64-.15,1.33,1.33,0,0,0-.66.17l-.07,0h-.1a1.24,1.24,0,0,0-.33,0,1.81,1.81,0,0,0-1.07.68h0l-.18-.06a6.06,6.06,0,0,0-1.67-.38,1.38,1.38,0,0,0-.91-.35,1.49,1.49,0,0,0-.36,0l-.77.21a9.35,9.35,0,0,0-1.74.58l-.69-.19h0a4.84,4.84,0,0,0-.89-.25,1.24,1.24,0,0,0-.27,0,1.44,1.44,0,0,0-.5.1,1.34,1.34,0,0,0-.62-.17h-.14a1.31,1.31,0,0,0-.44.12l-1.26-.22a1,1,0,0,0-.24,0,1.24,1.24,0,0,0-.54.11l-.66.3a1.35,1.35,0,0,0-1-.41,1.86,1.86,0,0,0-.33,0l-1.33.33a2.84,2.84,0,0,0-.77-.21,1.37,1.37,0,0,1-.28-.05,1.64,1.64,0,0,0-.37,0,1.41,1.41,0,0,0-.93.36,2.35,2.35,0,0,0-.77-.13,2.58,2.58,0,0,0-1.52.54h-.1a1.46,1.46,0,0,0-.57.12h-.05a1.44,1.44,0,0,0-.79-.27h-.44a20.06,20.06,0,0,0-3.7.27l0,0a1.37,1.37,0,0,0-.91-.34l-.15,0a1.32,1.32,0,0,0-.8-.29h0a1.38,1.38,0,0,0-.88.32l-.13.09h0s0,0-.08-.05h-.21l-.07,0h0a3.58,3.58,0,0,0-.69-.07,5,5,0,0,0-1.44.23,1.61,1.61,0,0,0-.45.24l-.26-.09h0l-.2-.06a1.24,1.24,0,0,0-.33,0,1.14,1.14,0,0,0-.37.05h-.14a1.38,1.38,0,0,0-.77.24h0l-.18.12-.2-.15a1.43,1.43,0,0,0-.74-.21,1.24,1.24,0,0,0-.54.11h-.33a6,6,0,0,0-1.19.1,1.37,1.37,0,0,0-.91-.52l-.42,0a1.86,1.86,0,0,0-1.22.39,1.37,1.37,0,0,0-.7.28s0,0,0,.06a1.38,1.38,0,0,0-1.06-.58l-2.38,0h0a1.39,1.39,0,0,0-1.09.53l-.07.11-.17,0c-.12.05-.31.11-.51.21h-.14a1.25,1.25,0,0,0-.54.12,1.18,1.18,0,0,0-.31-.08,2.19,2.19,0,0,0-.36,0,3.36,3.36,0,0,0-1.49.4,1.87,1.87,0,0,1-.39.16,2.12,2.12,0,0,0-.4-.1l-.23-.1a2.57,2.57,0,0,0-1.08-.29,1.46,1.46,0,0,0-1.34.84,2.24,2.24,0,0,0-.92-.22h-.09a1.42,1.42,0,0,0-.75.27,1,1,0,0,0-.16,0,1.33,1.33,0,0,0-.66.3,1.51,1.51,0,0,0-.74.24H133a5.3,5.3,0,0,0-.63,0,1.37,1.37,0,0,0-1.15.93,1.5,1.5,0,0,0-.06.29l0,0a1.76,1.76,0,0,0-.57-.14c-.06,0-.1,0-.15,0-.64,0-1.19,0-1.69,0-.69,0-1.35,0-2.16.07a1.41,1.41,0,0,0-.73-.41l-.17-.11a1.4,1.4,0,0,0-1.33-.06,1.44,1.44,0,0,0-.43.34l-.29.1a1.54,1.54,0,0,0-.89-.3,5.08,5.08,0,0,0-.63,0,1.35,1.35,0,0,0-.64.27,1.92,1.92,0,0,0-.84.71,1.42,1.42,0,0,0-.25-.24,1.4,1.4,0,0,0-.66-.16,1.34,1.34,0,0,0-.67.17l-.45.25a1.35,1.35,0,0,0-.56.6l-1,.09c-1,.1-2.07.2-2.88.2h-.36a1.31,1.31,0,0,0-.69.19l-.17.09a2.89,2.89,0,0,0-.75.53h-.52a1.37,1.37,0,0,0-.7.24,1.28,1.28,0,0,0-.72-.23h-.95a1.35,1.35,0,0,0-.81.29h-.4a1.37,1.37,0,0,0-.88.37,1.35,1.35,0,0,0-.83-.33,1.31,1.31,0,0,0-.47.09h0a1.41,1.41,0,0,0-.22-.06l-.22,0a1.35,1.35,0,0,0-.86.31,1.33,1.33,0,0,0-.26.27l-.17,0-.16,0a1.49,1.49,0,0,0-.36-.05,1.44,1.44,0,0,0-.57.13c-.09,0-.14.13-.23.19a1.55,1.55,0,0,0-.58-.13h0a1.26,1.26,0,0,0-.47.08,1.69,1.69,0,0,0-.59.21,1.35,1.35,0,0,0-.66,1.08,2.17,2.17,0,0,0-1,.6l0,0a1.35,1.35,0,0,0-.73-.47l-.73-.19a1.34,1.34,0,0,0-1.3.33,1.52,1.52,0,0,0-1,1.26.54.54,0,0,0,0,.18h0a1.37,1.37,0,0,0-1-.41h-.12a1.32,1.32,0,0,0-.49.13l-.1.05-.06,0a.32.32,0,0,0,0-.14,1.44,1.44,0,0,0-1.37-1l-.25,0a1.36,1.36,0,0,0-1.2,1.18,1.27,1.27,0,0,0,.08.67.89.89,0,0,0-.24.63.43.43,0,0,0-.15.27,1.33,1.33,0,0,0-1.3-1.1h-.15l-.16,0-.22.05a1.19,1.19,0,0,0-.4.14l-1.1.59-.09,0h0a1.34,1.34,0,0,0-.35.05c-.46.11-1.59.41-1.85,1.32l0,0h0a1.44,1.44,0,0,0,0-.94,1.38,1.38,0,0,0-1.12-.88l-.57-.07h-.16a1.38,1.38,0,0,0-.76.23l-.43.28a1.45,1.45,0,0,0-.4.42c-.17.06-.38.13-.54.17a1.61,1.61,0,0,0-.43-.07,1.34,1.34,0,0,0-.94.44,1.32,1.32,0,0,0-.53-.11h0l-.28,0a1.4,1.4,0,0,0-.36.13l-.65.33a1.37,1.37,0,0,0-.64.66l-.07.16a1.37,1.37,0,0,0,2,1.71l.43-.28a1.35,1.35,0,0,0,.72.24,1.41,1.41,0,0,0,.35,0c.39-.1.81-.24,1.23-.37a8.47,8.47,0,0,1,1.69-.44,1.34,1.34,0,0,0,.93-.42v.08A1.51,1.51,0,0,0,86,216.43a1.57,1.57,0,0,0,.75-.18h0a1.29,1.29,0,0,0,.63-.28,2.21,2.21,0,0,0,.49.17,1.44,1.44,0,0,0,.58.13,1.23,1.23,0,0,0,.42-.07c.35-.11,1.43-.46,1.43-1.57,0,0,0,0,0,0a1.35,1.35,0,0,0,.21-.61,1.41,1.41,0,0,0,.25-.7.83.83,0,0,0,.06.21l.06.05a1.63,1.63,0,0,0-.08.43A1.39,1.39,0,0,0,92,215.13l.3,0h.08a1.38,1.38,0,0,0,.69.19h.12a1.33,1.33,0,0,0,1.15-1l.13.06a1.73,1.73,0,0,0,.16.3,1.38,1.38,0,0,0,1.06.49,1.34,1.34,0,0,0,.84-.29l.66-.51a1.36,1.36,0,0,0,1.08.59,1.17,1.17,0,0,0,.32,0,5.59,5.59,0,0,0,1.73-.81s0,0,0,0a4,4,0,0,0,.73-.42s0-.06.09-.09l.21,0a1.61,1.61,0,0,0,1.11-.55h0a4.52,4.52,0,0,1,.71.19,1.25,1.25,0,0,0,.43.07,1.17,1.17,0,0,0,.36-.08,1.28,1.28,0,0,0,.45.13,1.34,1.34,0,0,0,.92-.35l.22-.2h0a1.33,1.33,0,0,0,.72.2,1.37,1.37,0,0,0,.7-.19l.44-.26s0-.05.06-.07a1.29,1.29,0,0,0,1.43-.1,1.4,1.4,0,0,0,.64.18.9.9,0,0,0,.23,0l.2,0h0l.71-.19a1.22,1.22,0,0,0,.49-.26,1.3,1.3,0,0,1,.36.1,1.37,1.37,0,0,0,.52.1,1.39,1.39,0,0,0,.84-.3c.08,0,.16,0,.26-.05h0a3,3,0,0,0,.43-.07l.24,0,.12,0a1.28,1.28,0,0,0,.32.09,2.66,2.66,0,0,0,1.16-.4h.16l.92-.09a5.94,5.94,0,0,0,1,.07,5,5,0,0,0,1.5-.2,3.12,3.12,0,0,0,.8-.22l.07,0,1.23-.3h.28a15.11,15.11,0,0,0,2-.35l.61-.12s.07,0,.12,0a7.17,7.17,0,0,0,1.19.1h.28a3.4,3.4,0,0,0,.62.08,2.9,2.9,0,0,0,1.59-.46s0,0,0,0a3.38,3.38,0,0,1,.48-.11,1.35,1.35,0,0,0,.81.26,1.47,1.47,0,0,0,.36,0,1.32,1.32,0,0,1,.41,0h.88a4.08,4.08,0,0,0,.79-.06,4,4,0,0,0,1.31.19,13.93,13.93,0,0,0,2.2-.23,11.85,11.85,0,0,1,1.4-.17,1.49,1.49,0,0,0,1.13-.52c.67-.1,1.34-.26,2.13-.45a1.37,1.37,0,0,0,.76-.48l.79,0,.9.05a4.61,4.61,0,0,0,1.4.21,9.06,9.06,0,0,0,2.25-.36,6.28,6.28,0,0,1,1.44-.27,1.36,1.36,0,0,1,.36,0,1.2,1.2,0,0,0,.38.05,1.37,1.37,0,0,0,.49-.09,1.39,1.39,0,0,0,.4.06h0l.26.08.3.14a3,3,0,0,0,1.29.42,1.56,1.56,0,0,0,1.16-.56,1.42,1.42,0,0,0,.23-.5l.35-.06a1.38,1.38,0,0,0,.72.21h0a1.41,1.41,0,0,0,.8-.26l.46-.11a6,6,0,0,0,1.66-.56h.43a1.42,1.42,0,0,0,.53.28,1.47,1.47,0,0,0,.36,0,1.32,1.32,0,0,0,.64-.16,1.3,1.3,0,0,0,.82.29,1.37,1.37,0,0,0,.49-.09,5.73,5.73,0,0,1,1.22-.39l.58-.15a1.57,1.57,0,0,0,.37,0h.09a4.56,4.56,0,0,0,1-.22l.18-.06a7,7,0,0,0,2.48.29l1.67,0c.62,0,1.27,0,1.92,0a16.64,16.64,0,0,1,2.63.16h.22a1.29,1.29,0,0,0,.64-.16,1.38,1.38,0,0,0,.93.37l.22,0a3.91,3.91,0,0,1,.57,0,6.28,6.28,0,0,1,.64,0l.7,0h.19a1.39,1.39,0,0,0,1,.39h0a3,3,0,0,0,2.6-1.22,1.35,1.35,0,0,0,.54.14l.25,0c.4,0,1.06.07,1.67.07a4.8,4.8,0,0,0,1.81-.27,2.91,2.91,0,0,0,.69-.09l.62,0h.7l1,0a1.41,1.41,0,0,0,.81-.31l.26,0,.12,0a7.29,7.29,0,0,0,1.52.22,2.87,2.87,0,0,0,.58-.06h0a4.43,4.43,0,0,1,.9.18,1.34,1.34,0,0,0,.35,0,1.38,1.38,0,0,0,1-.41l0,0a5.3,5.3,0,0,0,1.62.31,3.11,3.11,0,0,0,.43,0l.21.15.09.08a1.38,1.38,0,0,0,.93.93,4,4,0,0,0,1.11.21,1.63,1.63,0,0,0,.64-.13,1.76,1.76,0,0,0,.49.11,1.7,1.7,0,0,0,.46.06,5.51,5.51,0,0,0,1.28-.23,6.84,6.84,0,0,1,1.47-.27.79.79,0,0,1,.27,0,1.42,1.42,0,0,0,.6.14,1.38,1.38,0,0,0,1-.41,6.47,6.47,0,0,0,1.75.32h0a1.42,1.42,0,0,0,.57.15,1.53,1.53,0,0,0,.3,0,2.09,2.09,0,0,0,.52-.22l.58-.08a14.09,14.09,0,0,0,1.44-.21,3.33,3.33,0,0,0,1.57.34A12.45,12.45,0,0,0,211,207l.64-.08h0a1.35,1.35,0,0,0,1,.43l1.58,0a1.16,1.16,0,0,0,.44.12,8.13,8.13,0,0,0,.92.06,4.8,4.8,0,0,0,1.39-.19l.07,0a12,12,0,0,0,2.2.28,6,6,0,0,0,1.51-.21l.19.1a1.45,1.45,0,0,0,.54.11l.24,0c.16,0,.51.1.77.16a14.57,14.57,0,0,0,3.1.43h.15a1.25,1.25,0,0,0,.51.1h.21a3,3,0,0,1,.42,0,10.67,10.67,0,0,1,2.2.35,10.63,10.63,0,0,0,2.27.35,2.88,2.88,0,0,0,1.88-.6l1.07-.16.1,0a6.58,6.58,0,0,0,1.14.23l.34,0a1.34,1.34,0,0,0,.82.36c2.49.21,4.95.6,7.34,1,1.23.2,2.46.39,3.66.56h.41a2.81,2.81,0,0,0,.63.09,1.46,1.46,0,0,0,.69.29l.85.05h.07a1.39,1.39,0,0,0,1-.41h.07a1.48,1.48,0,0,0,.36.29,1.83,1.83,0,0,0,1.08.28l1.45.22.21,0a1.39,1.39,0,0,0,1.06-.5,26.54,26.54,0,0,0,3.34.54c.6.08,1.41.17,1.67.25a1.39,1.39,0,0,0,.6.14,1.24,1.24,0,0,0,.27,0,3.7,3.7,0,0,1,.76-.07,10.65,10.65,0,0,1,1.89.23l.24,0h.15a4.92,4.92,0,0,0,1.16.42,3.76,3.76,0,0,1,.8.26.43.43,0,0,0,.11.12,1.35,1.35,0,0,0,.94.37,1.36,1.36,0,0,0,.75-.22h.07l.71,0h0a1.43,1.43,0,0,0,.24.16,1.33,1.33,0,0,0,.68.18h.41a13.39,13.39,0,0,1,3.1.57,22.26,22.26,0,0,0,3.29.69h.16a1.34,1.34,0,0,0,.4-.06l.21.16a1.38,1.38,0,0,0,.81.29h0a1.92,1.92,0,0,0,.92-.22,1.44,1.44,0,0,0,.51.09,1.42,1.42,0,0,0,.57-.12,51.21,51.21,0,0,0,5.37,1,28.31,28.31,0,0,1,8.38,2.15,1.42,1.42,0,0,0,.6.14,1.36,1.36,0,0,0,.65-.19,2.51,2.51,0,0,0,.31,0h.07a1.55,1.55,0,0,0,.31-.06l.44.2a1.38,1.38,0,0,0,.59.14.29.29,0,0,0,.1,0,1.33,1.33,0,0,0,.64.6l.71.32a1.38,1.38,0,0,0,.56.12,1.44,1.44,0,0,0,.61-.15,1.55,1.55,0,0,0,.31.06,1.35,1.35,0,0,0,.79-.25l.55-.38a1.38,1.38,0,0,0,.52-1.5A1.34,1.34,0,0,0,300.77,215.77Z"/><path class="cls-2" d="M218.63,38.41a136.22,136.22,0,0,0-.3-15.12c-.3-4.72.29-9.16-3.06-13-4.42-5-11.83-10-18.65-10.31-7.12-.33-13.41,3.72-18.19,8.69-1.34,1.39-1.8,3.06-3,4.49-.56.67-1.45.86-2,1.65A14.78,14.78,0,0,0,172,19a52.51,52.51,0,0,0-2,16.63,56.74,56.74,0,0,0,5.62,21.66c1.32,2.85,7.87,18.33,11.66,17-.68.33-.49,1.35-.13,2a10.87,10.87,0,0,0,3.51,3.84c2,1.34,2.36,3.61,5.18,4.42,3,.87,4.95-.1,6.27-2.9,1.62-3.41,4.74-6.47,6.61-9.84a92,92,0,0,0,4.84-10.24A71.73,71.73,0,0,0,218.63,38.41Zm-11.5-26.19a13.08,13.08,0,0,1,1,1.34c2.56,4,3.37,8.53,3.64,13.18.14,2.45-.49,5-.84,7.48,0,2.83-.86,5.91-1.31,8.71-.4,2.52-1.26,5.17-1.33,7.71a30,30,0,0,1-2.18,10.28c-1.17,2.93-2.17,6.08-3.54,9A26.84,26.84,0,0,1,200,74.55c-.42.55-1.06,1.46-1.79,1.62-1.18.26-1.73-1.08-2.4-1.94-2.71-3.45-5.29-7-7.7-10.66a80.05,80.05,0,0,1-7.53-13.68A42.65,42.65,0,0,1,177.75,34c-.05-3.21-.2-7,1.1-10,1.1-2.54,2.42-5.75,4.27-7.83,1.5-1.67,3.56-2.69,5.27-4.13,2-1.71,3.86-2.87,6.64-2.69,1.93.12,3.83.67,5.77.69,1.73,0,3.27-.24,4.8.8A7.54,7.54,0,0,1,207.13,12.22ZM188.88,1.77h0Z"/><path class="cls-2" d="M206.09,28.21a10.48,10.48,0,0,0-3.66-5.34c-1.82-1.5-4.21-2.07-6.5-2.6a14.57,14.57,0,0,0-4.33-.57c-3.69.26-5.81,4.07-6.68,7.28a12.09,12.09,0,0,0,1.89,10.5,3.69,3.69,0,0,0,4.77,2,2.06,2.06,0,0,0,1.92,1.86c2.31.24,6.29-2.46,8.11-3.77a11,11,0,0,0,4.44-5.91A7,7,0,0,0,206.09,28.21Zm-10.54,2.63a7.18,7.18,0,0,0-1.84.59,2.87,2.87,0,0,1,.14-4.33c.75.25,3.07,0,3.48.57.15.21-.44,3-.29,3C196.55,30.7,196.05,30.75,195.55,30.84Z"/></g></g></svg>