<svg xmlns="http://www.w3.org/2000/svg" viewBox="0 0 450.19 280.41"><defs><style>.cls-1{fill:#fff;}.cls-2{fill:#e26b0e;}</style></defs><g id="Capa_2" data-name="Capa 2"><g id="Capa_1-2" data-name="Capa 1"><path class="cls-1" d="M376.57,273.87c-2.29-.22-3.15,1.29-4.19,2.48a16.52,16.52,0,0,1-4.29,3.77c-.74.42-1.32.1-1.87.29-.73-1.52-1.12-3.36-2.24-4.44-1.64-1.59-1.94-4-3.68-5.37a9.34,9.34,0,0,1-1.93-2.54,2.91,2.91,0,0,0-2.24-1.51c-.46-2.29-.49-2.31-2.93-2.46a2.16,2.16,0,0,0-.64-2.63,57.56,57.56,0,0,1-4-4.2l-.47,1.13a4.36,4.36,0,0,0-2.62-3.83c-.25-.12-.38-.51-.55-.78a26.33,26.33,0,0,0-4.63-5.09c-1-.89-1.61-2.19-2.55-3.16-1.18-1.22-2.08-2.75-3.77-3.49-.47-.21-.72-.89-1.12-1.31-2.11-2.17-4.21-4.34-6.36-6.48-.87-.87-1.84-1.66-2.77-2.48l-.14-.15c-.58-.7-1.92.09-2.28-1.38-.2-.79-1.35-1.37-2.09-2a21.22,21.22,0,0,0-2.35-1.9,14.57,14.57,0,0,0-2.22-1c-.59-.77-1.06-2-1.8-2.22-1.51-.38-2.13-1.72-3.31-2.35-.69-.36-1.5-.52-2.18-.91a22.74,22.74,0,0,0-2.76-1.83c-1.92-.76-3.55-2.32-5.85-2.13-.47,0-1-.57-1.71-1a11.68,11.68,0,0,0-.54,2.26c-.18,4.15-.26,8.3-.44,12.45-.16,3.49-.43,7-.62,10.45-.09,1.75-.13,3.5-.18,5.25-.08,2.94-.17,5.88-.22,8.82,0,.6.24,1.21.2,1.8-.11,1.85-.3,3.7-.47,5.66a12.39,12.39,0,0,1-4.49-.2c-1-.16-2-.21-3-.3l-3.59-2.15c-.43-.26-1.06-.42-1.24-.8A4.91,4.91,0,0,1,282,256c0-1.54.26-3.07.31-4.61.16-5,.31-10.09.41-15.13.12-5.83.13-11.66.29-17.49.09-3.21.42-6.42.59-9.64.13-2.48.17-5,.3-7.45.26-5,.63-9.92.81-14.89.08-2.28-.17-4.57-.28-6.85-.07-1.52-.17-3.05-.26-4.65,1.27-.83,1.27-.83.67-2.82,1.56-.3,1.08-1.9,1.87-2.89,1.68-.13,3.47-.25,5.25-.42a9,9,0,0,0,2.57-.43,12.86,12.86,0,0,1,5.31-.78c5.05,0,10.11,0,15.16,0a16.37,16.37,0,0,1,5.5.84,6.54,6.54,0,0,0,1.58.33,14.05,14.05,0,0,1,4,1.06c1.52.65,3.17.94,4.68,1.71a33.51,33.51,0,0,1,8.35,6,8.05,8.05,0,0,1,1.41,2.84,14,14,0,0,1,1.15,7.22,3,3,0,0,0,0,.79c.57,4-.52,7.73-2,11.38a60.61,60.61,0,0,1-2.74,6,8.73,8.73,0,0,1-1.88,2,15,15,0,0,1-8.6,4.24,33.15,33.15,0,0,0-4.78,1.37,19.18,19.18,0,0,0,2.4,2.18c1.21.76,1.92,2.32,3.61,2.34.09,0,.23.05.26.12,1.22,2.81,4.2,3.83,6.07,6s4.3,4,6.3,6.15c1.69,1.82,3.58,3.39,5.39,5.07,1,1,1.92,2.11,2.87,3.19.17.2.22.57.43.66,1.74.81,2.25,2.69,3.5,3.92.14.13.25.39.4.43,1.38.3,1.71,1.6,2.46,2.5.39.46,1.05.67,1.46,1.11,1.66,1.8,3.27,3.64,4.89,5.48,1.25,1.42,2.39,3,3.76,4.27a46.85,46.85,0,0,1,5.51,7c1.3,1.81,2.89,3.4,4.28,5.14a9.61,9.61,0,0,1,1.5,2.59A5.2,5.2,0,0,1,376.57,273.87Zm-76.44-92.5a51.36,51.36,0,0,0-2.36,17.09l1,.06c0,1.69.14,1.67,1.65,2.12,2.14.65,4.54,0,6.51,1.44a1.54,1.54,0,0,0,.78.14c1.62,0,3.24,0,4.85,0a2.67,2.67,0,0,0,1.69-.5,2.43,2.43,0,0,1,2-.58,18.64,18.64,0,0,0,8.16-1.68,1.79,1.79,0,0,0,.71-.6,14.79,14.79,0,0,0,2.32-7.05c.34-2.56-1.29-4.69-1.34-7.15,0-.23-.46-.42-.67-.66a4.38,4.38,0,0,0-2.85-1.22,15.09,15.09,0,0,1-3-1.16,1.7,1.7,0,0,0-.4,0c-2.68-.12-5.35-.34-8-.36C307.56,181.19,303.88,181.31,300.13,181.37Z"/><path class="cls-1" d="M351.76,225.94a7.86,7.86,0,0,1,6.4.19,9.62,9.62,0,0,0,3.7.74c3.37.13,6.74.12,10.11.14s6.7.11,10,0c2.34-.1,4.66-.55,7-.84a1.82,1.82,0,0,0,1.74-1.89,29.77,29.77,0,0,0,0-4.43,4.78,4.78,0,0,0-4.09-3.81c-.54-.05-1,0-1.29-.68-.07-.19-.41-.34-.65-.42-2.09-.62-4.18-1.21-6.27-1.84-.82-.25-1.6-.64-2.44-.84a37.92,37.92,0,0,1-4.67-1c-1.41-.52-2.66-1.4-4.28-1.36a5.15,5.15,0,0,1-1.82-.58,6.18,6.18,0,0,0-1.62-.67,9.54,9.54,0,0,1-4.46-1.91,42.1,42.1,0,0,1-4.86-3.21,19.32,19.32,0,0,1-5.1-6.21c-.31-.62-.7-1.21-1.09-1.88-.12-2.17-.24-4.49-.38-6.81A22.35,22.35,0,0,1,349,179c.52-1.34,1.17-2.91,2.26-3.65a15.35,15.35,0,0,1,2.75-1.84c1.66-.67,3.29-1.42,5-2.07,2.62-1,5.43-1.23,8-2.35,1-.45,2.33-.28,3.48-.5,1-.18,1.89-.58,2.85-.78a41.85,41.85,0,0,1,4.3-.7c2.39-.23,4.87-.05,7.18-.6,3.89-.94,7.82-.86,11.74-1.06a35,35,0,0,0,6.42-.54c5.59-1.36,11.24-.44,16.86-.76,3.48-.2,7-.47,10.44-.68,1.07-.06,2.14,0,3.33,0l.15-1.69a8.88,8.88,0,0,0,5.32,1c1.65-.15,3.42-.55,5.06.59.69.48,1.82.3,2.75.46,1.52.26,1.9.64,2.12,2.22s.39,2.92.48,4.39a5.62,5.62,0,0,0,.53,1.85,4.21,4.21,0,0,1,.05,2.65,4.3,4.3,0,0,1-4.54,2.94c-2.4-.14-4.81-.26-7.21-.3s-5-.06-7.48,0c-4.44.1-8.87.25-13.31.41-2.08.07-4.15.17-6.23.32a7.57,7.57,0,0,0-1.63.48,3,3,0,0,1-.72.26c-1.65.06-3.3.12-4.94.14s-3.38-.08-5.06,0c-3.2.18-6.51.05-9.57.83-2.86.72-5.67.47-8.5.77l-3.79.41c-.2,0-.5,0-.57.14-.83,1.46-2.23.85-3.43,1-1.63.17-3.29-.13-4.78,1.1-.67.54-1.92.44-2.91.51a1.9,1.9,0,0,0-1.78,1.36c-1,2.5-.26,4.91,1.94,6.87a21.3,21.3,0,0,0,8,4.53,17.31,17.31,0,0,0,4.48,1.29,1.92,1.92,0,0,1,1.22.6,3.35,3.35,0,0,0,2.37.88c.93.12,1.83-.1,2.65.92.51.63,2,.49,3.06.63a2.62,2.62,0,0,1,1.36.59,10.22,10.22,0,0,0,2.58.91c.69.26,1.52-.05,2.06,1,.28.51,1.55.48,2.6.75a2.36,2.36,0,0,0,1.75,1.61c.42.11.7.78,1.06,1.18,1.2,1.27,2.13,2.77,3.21,4.1s1.27,2.72,2.08,4a4.25,4.25,0,0,1,.62,2.11c.05,3,.08,5.94-.05,8.91-.06,1.29.55,2.7-.43,3.9.24,2.29-1.37,3.83-2.56,5.34s-3,2.4-4.54,3.48c-.33.23-.92.06-1.38.13-1.48.26-3,.27-4.25,1.43-.27.27-.87.25-1.32.27-4.64.15-9.27.33-13.91.4-4.28.06-8.57,0-12.85,0-2.07,0-4.13-.15-6.19-.32a2.76,2.76,0,0,1-1.58-.7c-1.23-1.24-2.37-2.57-3.51-3.9a1.83,1.83,0,0,1-.48-1.07C351.56,232,351.67,229,351.76,225.94Z"/><path class="cls-1" d="M245.16,148c0-.69.1-1.38.1-2.06q-.07-10.73-.15-21.43c0-4.78,0-9.57,0-14.36-.08-5.38-.09-10.77-.46-16.13a40.82,40.82,0,0,0-1.32-9.5,6.22,6.22,0,0,1-.19-2.61,3.28,3.28,0,0,1,.9-2.1c1.15-.82,2.27-1.76,4-1.63,2.34.19,4.7,0,7,0,1.25,1.33,2.71,2.41,3.07,4.27.08.39.31.82.22,1.15a7.15,7.15,0,0,0,.34,3.65,16.94,16.94,0,0,1,.17,6,19.38,19.38,0,0,0-.08,2c0,6.25-.11,12.5-.14,18.76,0,5,0,10.06,0,15.1,0,2,.27,4.05.34,6.08,0,.78-.21,1.57-.2,2.35,0,4.31.11,8.61.16,12.91,0,2.47,0,4.95.09,7.43,0,.92.26,1.84.38,2.76.43,3.07.85,6.14,1.25,9.09-1.09,1.92-2.76,2.21-4.67,2.14-2.42-.08-4.85,0-7.27,0a2.77,2.77,0,0,1-2.94-2.17,2,2,0,0,0-1.36-1.56A8.19,8.19,0,0,1,240.2,164c-.12-.22-.49-.32-.74-.47l-.7,1.17c.6-2.21-1.39-3.23-1.36-5-1.35-.35-1.22-1.91-2.08-2.57s-1.21-2-2-2.6c-1.51-1-1.86-3.12-3.67-3.81a.39.39,0,0,1-.2-.32c.1-1.86-1.38-2-2.67-2.37.1-1,.31-2-.87-2.47-.39-.18-.54-.87-.86-1.27s-.95-1-1.44-1.54c-.13-.14-.43-.2-.46-.34-.45-1.75-2.18-2.52-3-4-.1-.17-.17-.41-.33-.5a5.82,5.82,0,0,1-2.52-3c0-.06-.06-.15-.11-.16-2.43-.84-2.79-3.57-4.6-5a9.06,9.06,0,0,1-2.93-3.24c-.1-.24-.8-.21-1.55-.37,0,4,0,7.72,0,11.47,0,.34.08.67.09,1,.09,4.1.22,8.2.25,12.31,0,2.39-.19,4.78-.19,7.17s.17,4.82.19,7.23c0,1.19-.16,2.38-.23,3.39a19.5,19.5,0,0,1-3.29,1.22,17.65,17.65,0,0,1-3.49.06c-.33,0-.71-.24-1-.14-1.95.76-3.49-.63-5.46-.85a31.58,31.58,0,0,1-.23-3.83c.67-12.64.39-25.29.35-37.93,0-4.75-.45-9.51-.9-14.25-.09-1-.22-2-.35-2.92a4.7,4.7,0,0,0-1.17-2c-1.51-1.94-1.61-3.15-.28-5.26a8.48,8.48,0,0,0,1-1.47c.43-1.18,1.42-1.28,2.42-1.47a9.71,9.71,0,0,0,2.47-.61c2.3-1.11,4.59-.63,6.83,0,.64.17,1.11,1.06,1.59,1.67,1.93,2.5,3.78,5.06,5.75,7.52s4,4.67,5.92,7a10.81,10.81,0,0,1,1.76,2.8c.49,1.21,1.75,1.55,2.45,2.6a39.2,39.2,0,0,0,3.74,4.47c.13.14.17.41.32.5,2.18,1.26,2.8,3.9,4.69,5.35,1.42,1.11,1.93,3,3.6,3.82a.63.63,0,0,1,.22.32c.89,2.11,2.72,3.46,4.13,5.15.54.65.79,1.54,1.32,2.21,1,1.28,2.12,2.48,3.17,3.74.4.48.73,1,1.09,1.55Z"/><path class="cls-1" d="M168.49,246.1a12.67,12.67,0,0,0-.93-1.47c-1.41-1.57-3.25-2.7-4.55-4.39-1.67-.13-1.59-2.39-3.17-2.63.4-1.68-1.18-2.53-1.64-3.87-.77-2.24-1.72-4.42-2.57-6.63a4.43,4.43,0,0,1-.34-1.32c-.17-2.74-.43-5.49-.43-8.23,0-3.27.23-6.55.41-9.82,0-.4.37-.78.53-1.18.44-1.09,1.19-2,1-3.37a1.85,1.85,0,0,1,.8-2.06c.44-.27.49-1.18.71-1.81s.29-1.52.75-1.94c.86-.79,1.68-1.41,1.55-2.78-.07-.6.91-.48,1.28-1.2a22.53,22.53,0,0,1,3.4-4.63c1.37-1.52,2.93-2.86,4.43-4.24.83-.76,1.68-1.5,2.57-2.18a22.19,22.19,0,0,1,2.6-1.79c2.49-1.4,4.9-3.12,7.57-4,3.92-1.31,8-2.33,12.24-1.68,2.84.43,5.68.9,8.48,1.51a8.73,8.73,0,0,1,3,1.45c2.43,1.75,4.84,3.54,7.13,5.48,1,.82,1.52,2.1,2.38,3.07a20.66,20.66,0,0,1,3.33,5.75,2.86,2.86,0,0,0,.76.84,3.38,3.38,0,0,0,.48.24c-.46,1.38.83,2.17,1.17,3.28a21.83,21.83,0,0,0,2.37,6,2.18,2.18,0,0,1,.21,1c.14,1.71,0,3.42.7,5.11a6.69,6.69,0,0,1,0,3.15c-.48,4.35-.67,8.76-1.61,13s-1.7,8.31-4.21,12a39,39,0,0,1-11.47,11.06,52.92,52.92,0,0,1-5.62,3,8.42,8.42,0,0,1-3.89,1.17.62.62,0,0,0-.39.05c-2.55,1.8-5.45.94-8.21,1.05a3.27,3.27,0,0,1-2.06-.51,7,7,0,0,0-2.71-.62c-1.23-.17-2.54.1-3.54-1-.25-.27-.88-.23-1.35-.27a6.57,6.57,0,0,1-3-1c-1.26-.78-2.73-1.2-4.07-1.86-.66-.32-1.43-.31-1.93-1.16C170.41,246.21,169.23,246.27,168.49,246.1Zm9.25-9.61c.59.09,1.45,0,1.6.27.69,1.3,1.86,1.38,3.07,1.5.52.05,1.19,0,1.53.32a4.32,4.32,0,0,0,3,.89c1.88.08,3.76.24,5.63.22a11.65,11.65,0,0,0,4-.5c2.55-1,5-2.29,6.45-4.8.82-1.38,2-2.55,2.7-4,1.18-2.6,2.12-5.3,3-8a18.36,18.36,0,0,0,1.17-6.49,6.07,6.07,0,0,1,0-1.81,10.33,10.33,0,0,0,.09-6.25c-.77-2.45-.52-5.12-1.75-7.55-.49-1-.6-2.06-1.65-2.66.14-1.85-1.7-2.61-2.26-4.08a23.43,23.43,0,0,0-2.45-2.43c-1.13-.86-2.24-1.74-3.47-2.7a8.52,8.52,0,0,1-1.88,0c-.62-.13-1.15-.6-1.76-.78a5.8,5.8,0,0,0-2.17-.31c-2.65.31-5.21.78-7.36,2.67-1.8,1.58-3.88,2.9-5.28,4.86-2.11,2.94-4.21,5.93-5.16,9.52a3.76,3.76,0,0,1-.67,1.2c-1,1.33-.89,3.22-2.17,4.42,0,0,0,.13,0,.19-.22,1.52-.52,3-.64,4.56s0,2.84-.3,4.27a1.62,1.62,0,0,0,1.35,2.09c-1,.23-1.39.63-1.06,1.57a13.47,13.47,0,0,1,.59,2.51,23.74,23.74,0,0,0,3.18,8.08c.07.12.53,0,.8,0,.07,1.52.09,1.49,1.37,2.25C177.51,235.66,177.57,236.11,177.74,236.49Z"/><path class="cls-1" d="M98.62,166.66c0-.59.22-1.32,0-1.76-.94-1.62-1.32-3.54-2.65-5-.13-.14-.11-.43-.14-.66a4.36,4.36,0,0,0-.14-1.1c-.33-.81-1.38-1.12-1.13-2.44.17-.85-.79-1.91-1.25-2.87s-.94-1.74-1.31-2.65c-1.33-3.23-2.51-6.53-3.95-9.71-.51-1.14-.79-2.31-1.21-3.45s-1.72-2.19-1.85-3.37c-.17-1.47-1.35-2.37-1.48-3.75a1.75,1.75,0,0,0-.62-1.22c-.73-.47-.75-1.17-1-1.87-.44-1.35-1-2.66-1.54-4-.74-1.86-1.51-3.7-2.25-5.56a31.22,31.22,0,0,0-2.49-5.54,17.61,17.61,0,0,1-1.77-4.07c-.28-.88-.46-1.66-1.61-1.62.37-1.07.47-1.93-.45-2.66-.31-.25-.36-.8-.57-1.19a14,14,0,0,0-.82-1.33c-.15-.2-.46-.31-.55-.52-.6-1.49-1.11-3-1.75-4.47-.18-.41-.72-.66-1.2-1.07a3.94,3.94,0,0,0-1.18-3.62c-.08-.09-.29-.15-.3-.24-.3-2.39-2.12-4.06-3-6.2a24.15,24.15,0,0,0-2.12-4.22c-.58-.92-1.07-2.13-2.36-2-.24-.67-.4-1.16-.59-1.64s-.4-.86-.53-1.3c-.64-2.2.2-3.78,2.34-4.21A34.19,34.19,0,0,1,67,70.58,4.68,4.68,0,0,1,71,73.06a66.2,66.2,0,0,1,4.53,7.53c1.42,2.86,2.71,5.78,4.09,8.65s2.73,5.58,4.1,8.37c.06.12.1.25.15.37q2.9,6.75,5.77,13.5c1.6,3.79,3,7.67,4.78,11.37,1.87,3.88,3.46,7.87,5.13,11.83.89,2.11,1.44,4.38,2.48,6.41,1.73,3.41,2.83,7.08,4.68,10.44a47.68,47.68,0,0,1,2.31,5.91c.17-.07.33-.1.35-.16.63-2.51,1.24-5,1.89-7.53a13.39,13.39,0,0,1,.66-1.57,2.73,2.73,0,0,0,.27-.72c.22-2.21,1.37-4.14,1.9-6.26s.65-4.38,1.52-6.34c1.7-3.83,2.15-8,3.58-11.89a46.41,46.41,0,0,0,1.36-6c.31-1.35.35-2.89,1-4a7.25,7.25,0,0,0,1.15-4.27c1.82-1.24,1.11-3.55,2.14-5.15.3-.47.13-1.25.18-1.91.31-.34.86-.71,1-1.2.94-2.7,1.82-5.41,2.64-8.15.28-.93.17-1.95,1.24-2.54.29-.17.3-.85.4-1.31.32-1.43.64-2.87.94-4.3a3.38,3.38,0,0,1,2-2.33,1.54,1.54,0,0,1,1.87.21,23.1,23.1,0,0,0,4.42,2.84,15.35,15.35,0,0,1,3.19,3A1.89,1.89,0,0,1,143,89.3c-.68,2.08-1.47,4.13-2.2,6.2-1.07,3.08-2.15,6.15-3.18,9.25a15.26,15.26,0,0,0-.42,2.24c0,.13.05.31,0,.38-1.76,1.85-1.77,4.35-2.47,6.59-.87,2.79-1.87,5.55-2.66,8.36-.9,3.21-1.6,6.48-2.47,9.71-.66,2.49-1.67,4.92-2.13,7.45-.49,2.76-1.43,5.38-2.15,8.06-1,3.74-2.32,7.39-3.39,11.12s-2.06,7.76-3.09,11.65a1.58,1.58,0,0,0-.11.59c.31,1.89-.77,3.33-1.46,4.93a1.65,1.65,0,0,1-1.83,1.17c-1.81-.12-3.6-.33-5.41-.48a6.94,6.94,0,0,0-1.29,0c-1.19.12-2.38.38-3.58.4-1.88,0-2.66-.63-3-2.5a6.62,6.62,0,0,0-1.11-2.22c-.56-1-.57-2.29-1-3.4a13.77,13.77,0,0,0-1.15-2.09Z"/><path class="cls-1" d="M267.61,159c.24-1.56.45-3,.69-4.49,3.13-.52,6.32-.32,9.49-.46a2.85,2.85,0,0,1,2.7,1.69,5,5,0,0,1,.73,3.62,34.78,34.78,0,0,0-.41,6.22c-.09,4.64-.09,9.29-.17,13.94-.05,3.15-.12,6.31-.27,9.45-.11,2.28-.38,4.55-.55,6.83-.11,1.45-.1,2.91-.25,4.36q-.45,4.47-1,8.92c-.33,2.5-.71,5-1.12,7.48a37.13,37.13,0,0,1-1.07,5.28c-1.21,3.76-2.52,7.48-4,11.14a18.74,18.74,0,0,1-2.58,4.22c-.64.85-1.52,1.5-1.74,2.63a.83.83,0,0,1-.35.49c-2.87,1.54-4.78,4.4-8.22,5.31a20,20,0,0,1-8.84.32c-2.49-.43-5-.67-7.55-.88a4.23,4.23,0,0,1-3.09-1.41c-1.18-1.36-1.22-1.33-2.76-1.61-.42-1.67-.9-2.7-2.57-2.63a17.76,17.76,0,0,0-2.78-5.29,1.47,1.47,0,0,1-.25-.52c-.64-2.85-2.06-5.41-3-8.15a24.73,24.73,0,0,1-.61-2.74,89.88,89.88,0,0,1-1.55-23.49c.22-4.16.58-8.31.76-12.47a31.82,31.82,0,0,0-.26-5.43,9.6,9.6,0,0,1,.31-4.81c1.1-.37,2.24-.74,3.37-1.14a9,9,0,0,1,7,.2,16.07,16.07,0,0,0,1.52.53,3.12,3.12,0,0,1,1.83,1.68c.29.56.65,1.07,1.08,1.76-.49,1.31-1,2.79-.26,4.41a2.13,2.13,0,0,1-.23,1.53A7.84,7.84,0,0,0,241,189a22.79,22.79,0,0,1-.35,2.56,16.38,16.38,0,0,0-.21,5.19c.21,1.19-.3,2.49-.32,3.74-.07,3.42-.11,6.85,0,10.27a8.69,8.69,0,0,0,.81,4.45c-.64,2.05.54,3.89.68,5.86a2.77,2.77,0,0,0,1.4,2.51c.22.11.34.41.51.61a33.11,33.11,0,0,0,6.06,5.21,4.2,4.2,0,0,0,1.61.73c1.64.31,3.29.53,4.94.76a1.7,1.7,0,0,0,1-.06c1.35-.71,2.67-1.48,4-2.25l-.91-1.06,2.15.18c.55-2.25,2.21-4.11,1.9-6.6,0-.16.28-.37.42-.56s.47-.52.48-.79c.08-2,1.08-4,.6-6.11-.08-.36,0-1,.18-1.14,1.24-.63,1-1.77.81-2.67a19.78,19.78,0,0,1,.14-6c.25-1.79.31-3.61.4-5.42.17-3.56.3-7.12.48-10.68.1-2.08.3-4.15.37-6.23.14-4.14.23-8.29.32-12.44.06-2.49.09-5,.11-7.46C268.57,160.51,268.6,159.41,267.61,159Z"/><path class="cls-1" d="M145.33,100.19c3.83-3.09,8.08-4.49,12.92-2.84l2.23,2.89c.07.1.18.23.18.34-.08,2.87,1.8,5,2.68,7.57,1.24,3.51,2.44,7,3.88,10.48C168.8,122.4,170,126.35,172,130c.9,1.59,1.23,3.51,2.13,5.1.73,1.3.5,3.07,2,4,.07,1.23.92,2.13,1.32,3.19a33.88,33.88,0,0,0,3,6.5,22.28,22.28,0,0,1,1.22,2.87c1.68,3.79,3.35,7.58,5.08,11.35a25.81,25.81,0,0,0,1.62,2.57l1.33-.28c.09.11.25.23.23.31-.42,1.93.38,4-.42,5.93-.91,0-1.72,0-2.51.17a7.94,7.94,0,0,0-1.7.52c-.24.09-.4.45-.62.47a41.7,41.7,0,0,1-6.19.46,3.47,3.47,0,0,1-2.89-3c-.37-2.13-1.62-3.71-2.46-5.53-.08-.17-.43-.29-.42-.41.2-1.78-1.12-2.9-1.89-4.23a43.33,43.33,0,0,1-2.3-5.51c-.69-1.69-.77-1.92-2.56-1.77-3.12.26-6.23.65-9.35.93-1.34.12-2.69.09-4,.11-2.43,0-4.85.05-7.27.1s-2.68.3-3.33,2.57c-.89,3.07-1.91,6.11-2.82,9.17a34.81,34.81,0,0,0-1,4.27,3.44,3.44,0,0,1-5.28,2.47,2.46,2.46,0,0,0-1.08-.35,2.79,2.79,0,0,1-2.07-.56c-.16-.15-.6,0-.91,0s-.79.19-.94,0c-1.07-1.07-2.5-1.86-2.88-3.48a3.51,3.51,0,0,1,0-1.37c.22-1.3.51-2.6.81-4.07.92,0,1.12-.76,1.44-1.65.73-2,1.28-4.1,1.88-6.13.86-2.9,2.12-5.65,2.86-8.57.22-.83.12-1.75,1.05-2.23.09,0,.09-.24.12-.37.74-2.75,1.44-5.51,2.24-8.23.23-.77.15-1.76,1.15-2.19.18-.08.29-.43.37-.67.55-1.79,1.05-3.59,1.63-5.36.48-1.5,1.45-2.82,1.39-4.53,0-.44.9-.87,1-1.36.62-4.12,2.8-7.71,3.8-11.69.13-.51.4-1.14.23-1.55a1.61,1.61,0,0,1,.42-2.1,2.7,2.7,0,0,0,.47-1.87C145.73,102.78,145.51,101.59,145.33,100.19Zm13.8,39.86,2.31,1.26a6.27,6.27,0,0,0-.14-1.54c-.81-2.07-2.27-3.87-2.54-6.16a.66.66,0,0,0-.16-.36c-1.93-1.92-1.76-4.75-3-7a38.91,38.91,0,0,1-1.77-3.92c-.42,1.32-.74,2.45-1.14,3.54-.47,1.29-1.15,2.5-.76,4,.11.4-.35.93-.49,1.42s0,.93-.27,1.19a2.56,2.56,0,0,0-.71,1.09,21,21,0,0,1-1.06,3.72,6.41,6.41,0,0,0-.73,3.89h9.88Z"/><path class="cls-1" d="M285.59,109.84l-11,.49a4.81,4.81,0,0,1-1,.11,2.77,2.77,0,0,0-3.43,1.8l-.43-1.1c-1.45.12-2.91.29-4.38.34a3.14,3.14,0,0,1-2.82-2.3c-.33-3.18-.55-6.36-.81-9.58a5.12,5.12,0,0,0,1-.26c2.73-1.55,5.72-1.11,8.66-1.22,4.07-.15,8.13-.49,12.2-.66,2.35-.1,4.72,0,7.08,0,2.09,0,4.18.07,6.26,0s4-.42,6-.54c2.52-.14,5-.26,7.57-.2,1.37,0,2.71.56,4.08.69,2.33.23,4.67.31,7,.47,1,.07,2,.2,3,.3l1,1.6c-.06.16-.12.35-.2.52-.18.42-.64.94-.52,1.22.54,1.24-.44,2.18-.55,3.29a13.64,13.64,0,0,1-1,3.43,3,3,0,0,1-3.46,2.09c-2.86-.31-5.7-.84-8.56-1-3.28-.2-6.58-.17-9.88-.16-.94,0-1.29.89-1.32,2.1-.06,1.94.38,3.88-.17,5.84a12.48,12.48,0,0,0-.06,3c-.13,5.51-.36,11-.39,16.53a79.55,79.55,0,0,0,.46,11.67c.32,2.25-.18,4.38,0,6.55.07.77-.22,1.62.54,2.25a.75.75,0,0,1,.18.74c-.83,1.14-.08,2.19.15,3.25a5.36,5.36,0,0,1-.57,4.19c-3.43,0-6.92.1-10.41,0-2.45-.09-3.42-1.57-3-4a4.85,4.85,0,0,0,.05-1c-.26-6.31-.56-12.62-.76-18.94-.07-2.28.15-4.56.2-6.84.07-3.57.17-7.14.13-10.7,0-3.41-.22-6.83-.39-10.24C286.05,112.33,285.79,111.21,285.59,109.84Z"/><path class="cls-1" d="M7.34,209.8l-.45-2.48c0-.08,0-.12-.14-.12H3.31c-.09,0-.14,0-.14.12l-.45,2.48c0,.17-.11.25-.3.25H.27c-.22,0-.3-.1-.26-.3L3.5,193.82a.28.28,0,0,1,.31-.26H6.3a.28.28,0,0,1,.31.26l3.49,15.93v.09c0,.14-.09.21-.26.21H7.65C7.46,210.05,7.36,210,7.34,209.8Zm-3.63-4.74H6.33c.09,0,.13,0,.11-.12l-1.36-7.45s0-.07-.07-.07a.08.08,0,0,0-.07.07l-1.35,7.45Q3.58,205.06,3.71,205.06Z"/><path class="cls-1" d="M17,198.09a.28.28,0,0,1,.2-.08h2.17a.27.27,0,0,1,.28.28v11.32a6,6,0,0,1-1.15,3.92c-.77.92-2.15,1.38-4.13,1.38l-.77,0a.28.28,0,0,1-.29-.31v-1.82c0-.2.1-.29.31-.26a4.47,4.47,0,0,0,2.06-.33,1.86,1.86,0,0,0,1-1,5.25,5.25,0,0,0,.26-1.79v-.26c0-.05,0-.08-.05-.08s-.06,0-.09.06a2.65,2.65,0,0,1-2.22,1,2.88,2.88,0,0,1-2.4-1,4.32,4.32,0,0,1-.83-2.79v-4.62a4.27,4.27,0,0,1,.84-2.82,3,3,0,0,1,2.39-1,2.65,2.65,0,0,1,2.22,1s.06.07.09.06.05,0,.05-.08v-.52A.26.26,0,0,1,17,198.09Zm-.47,9.17a1.78,1.78,0,0,0,.39-1.19v-4.22a1.81,1.81,0,0,0-.39-1.21,1.27,1.27,0,0,0-1-.46,1.29,1.29,0,0,0-1,.47,1.76,1.76,0,0,0-.4,1.2v4.22a1.73,1.73,0,0,0,.4,1.19,1.28,1.28,0,0,0,1,.46A1.27,1.27,0,0,0,16.5,207.26Z"/><path class="cls-1" d="M29.72,205a.26.26,0,0,1-.2.08H24.31a.11.11,0,0,0-.12.12v1.06a1.81,1.81,0,0,0,.4,1.2,1.28,1.28,0,0,0,1,.47,1.39,1.39,0,0,0,.93-.33,1.63,1.63,0,0,0,.51-.89.28.28,0,0,1,.3-.24l2.1.1a.28.28,0,0,1,.2.08.24.24,0,0,1,.06.22,3.65,3.65,0,0,1-1.2,2.54,4.33,4.33,0,0,1-2.9.88,4.34,4.34,0,0,1-3.05-1,3.61,3.61,0,0,1-1.12-2.8v-4.78a3.6,3.6,0,0,1,1.12-2.77,4.26,4.26,0,0,1,3.05-1.05,4.26,4.26,0,0,1,3.05,1.05,3.6,3.6,0,0,1,1.12,2.77v3.11A.28.28,0,0,1,29.72,205Zm-5.13-4.3a1.81,1.81,0,0,0-.4,1.2v1.06a.11.11,0,0,0,.12.12H27a.11.11,0,0,0,.12-.12v-1.06a1.77,1.77,0,0,0-.4-1.21,1.33,1.33,0,0,0-1.06-.46A1.31,1.31,0,0,0,24.59,200.65Z"/><path class="cls-1" d="M39.17,198.85a4.65,4.65,0,0,1,.79,2.91v8a.28.28,0,0,1-.08.2.27.27,0,0,1-.2.08H37.51a.24.24,0,0,1-.2-.08.25.25,0,0,1-.09-.2V202a2.14,2.14,0,0,0-.35-1.32,1.19,1.19,0,0,0-1-.47,1.23,1.23,0,0,0-1.06.5,2.18,2.18,0,0,0-.38,1.36v7.73a.28.28,0,0,1-.08.2.26.26,0,0,1-.2.08H32a.27.27,0,0,1-.28-.28V198.29a.26.26,0,0,1,.08-.2A.28.28,0,0,1,32,198h2.17a.27.27,0,0,1,.28.28v.48a.08.08,0,0,0,.06.08s.08,0,.13-.08a2.77,2.77,0,0,1,2.24-1A2.74,2.74,0,0,1,39.17,198.85Z"/><path class="cls-1" d="M43,209.21a3.68,3.68,0,0,1-1.12-2.81v-4.76A3.64,3.64,0,0,1,43,198.87a4.3,4.3,0,0,1,3-1.05,4.39,4.39,0,0,1,3.07,1,3.36,3.36,0,0,1,1.13,2.6v.33a.28.28,0,0,1-.08.2.27.27,0,0,1-.2.08l-2.17.1a.26.26,0,0,1-.29-.28v-.24a1.41,1.41,0,0,0-.41-1,1.37,1.37,0,0,0-1.05-.44,1.29,1.29,0,0,0-1,.47,1.76,1.76,0,0,0-.4,1.2v4.36a1.76,1.76,0,0,0,.4,1.2,1.26,1.26,0,0,0,1,.47,1.37,1.37,0,0,0,1.05-.43,1.45,1.45,0,0,0,.41-1v-.23a.31.31,0,0,1,.29-.29l2.17,0a.27.27,0,0,1,.2.08.28.28,0,0,1,.08.2v.42a3.35,3.35,0,0,1-1.13,2.63,4.47,4.47,0,0,1-3.07,1A4.33,4.33,0,0,1,43,209.21Z"/><path class="cls-1" d="M52.21,195.89a1.64,1.64,0,0,1-.47-1.2A1.59,1.59,0,0,1,53.42,193a1.61,1.61,0,0,1,1.19.46,1.7,1.7,0,0,1,.46,1.21,1.61,1.61,0,0,1-1.65,1.67A1.67,1.67,0,0,1,52.21,195.89ZM52.16,210a.25.25,0,0,1-.09-.2V198.29a.27.27,0,0,1,.09-.2.28.28,0,0,1,.2-.08h2.16a.28.28,0,0,1,.2.08.27.27,0,0,1,.09.2v11.48a.25.25,0,0,1-.09.2.24.24,0,0,1-.2.08H52.36A.24.24,0,0,1,52.16,210Z"/><path class="cls-1" d="M64.16,198.91a3.72,3.72,0,0,1,1.16,2.85v8a.27.27,0,0,1-.29.28H62.87a.24.24,0,0,1-.2-.08.25.25,0,0,1-.09-.2v-.45s0-.08,0-.09-.07,0-.1.05a3,3,0,0,1-2.4,1,3.84,3.84,0,0,1-2.37-.76,3.3,3.3,0,0,1-1-2.8,3.48,3.48,0,0,1,1.24-3,5.62,5.62,0,0,1,3.36-.9h1.23c.07,0,.11,0,.11-.12V202a2.07,2.07,0,0,0-.42-1.36,1.35,1.35,0,0,0-1.06-.5,1.16,1.16,0,0,0-.83.32,1.47,1.47,0,0,0-.4.86.26.26,0,0,1-.3.28H57.28c-.19,0-.27-.09-.26-.28a3.56,3.56,0,0,1,1.26-2.57,4.33,4.33,0,0,1,2.87-1A4.19,4.19,0,0,1,64.16,198.91ZM62,207.53a1.53,1.53,0,0,0,.54-1.25v-1.34c0-.08,0-.12-.11-.12H61.24a1.87,1.87,0,0,0-1.29.44,1.56,1.56,0,0,0-.5,1.26,1.4,1.4,0,0,0,.38,1.09,1.3,1.3,0,0,0,1,.37A1.9,1.9,0,0,0,62,207.53Z"/><path class="cls-1" d="M77.47,193.64a.28.28,0,0,1,.2-.08h2.16a.32.32,0,0,1,.21.08.3.3,0,0,1,.08.2v15.93a.27.27,0,0,1-.29.28H77.67a.24.24,0,0,1-.2-.08.25.25,0,0,1-.09-.2v-.28c0-.05,0-.08,0-.09s-.06,0-.1,0a2.9,2.9,0,0,1-2.12.82,3,3,0,0,1-2.45-1,4.22,4.22,0,0,1-.87-2.79v-4.78a4.15,4.15,0,0,1,.88-2.81,3.08,3.08,0,0,1,2.44-1,3.43,3.43,0,0,1,1.11.2,2.74,2.74,0,0,1,1,.65s.06,0,.1,0a.11.11,0,0,0,0-.1v-4.76A.27.27,0,0,1,77.47,193.64Zm-.56,13.88a1.6,1.6,0,0,0,.47-1v-5a1.62,1.62,0,0,0-.47-1,1.3,1.3,0,0,0-.94-.36,1.33,1.33,0,0,0-1.06.46,1.77,1.77,0,0,0-.4,1.21v4.36a1.79,1.79,0,0,0,.4,1.22,1.35,1.35,0,0,0,1.06.45A1.26,1.26,0,0,0,76.91,207.52Z"/><path class="cls-1" d="M90.35,205a.24.24,0,0,1-.19.08H85a.11.11,0,0,0-.12.12v1.06a1.76,1.76,0,0,0,.4,1.2,1.28,1.28,0,0,0,1,.47,1.39,1.39,0,0,0,.93-.33,1.56,1.56,0,0,0,.5-.89.3.3,0,0,1,.31-.24l2.1.1a.3.3,0,0,1,.2.08.28.28,0,0,1,.06.22,3.62,3.62,0,0,1-1.21,2.54,4.29,4.29,0,0,1-2.89.88,4.38,4.38,0,0,1-3.06-1,3.64,3.64,0,0,1-1.11-2.8v-4.78a3.63,3.63,0,0,1,1.11-2.77,5,5,0,0,1,6.11,0,3.64,3.64,0,0,1,1.12,2.77v3.11A.25.25,0,0,1,90.35,205Zm-5.12-4.3a1.76,1.76,0,0,0-.4,1.2v1.06A.11.11,0,0,0,85,203h2.66a.11.11,0,0,0,.12-.12v-1.06a1.82,1.82,0,0,0-.4-1.21,1.33,1.33,0,0,0-1.06-.46A1.31,1.31,0,0,0,85.23,200.65Z"/><path class="cls-1" d="M99.28,209.82,96.4,198.29v-.09c0-.14.09-.21.26-.21h2.4a.27.27,0,0,1,.31.26l1.41,7.33s0,.07.08.07,0,0,.06-.07l1.4-7.33c0-.18.11-.26.3-.26l2.4,0c.23,0,.31.1.27.3l-2.86,11.48a.3.3,0,0,1-.33.23H99.61A.3.3,0,0,1,99.28,209.82Z"/><path class="cls-1" d="M107.05,195.89a1.64,1.64,0,0,1-.47-1.2,1.59,1.59,0,0,1,1.67-1.67,1.62,1.62,0,0,1,1.2.46,1.7,1.7,0,0,1,.46,1.21,1.62,1.62,0,0,1-1.66,1.67A1.66,1.66,0,0,1,107.05,195.89ZM107,210a.28.28,0,0,1-.08-.2V198.29a.27.27,0,0,1,.28-.28h2.17a.28.28,0,0,1,.2.08.26.26,0,0,1,.08.2v11.48a.27.27,0,0,1-.28.28h-2.17A.26.26,0,0,1,107,210Z"/><path class="cls-1" d="M119,198.91a3.72,3.72,0,0,1,1.16,2.85v8a.25.25,0,0,1-.09.2.24.24,0,0,1-.2.08H117.7a.22.22,0,0,1-.19-.08.25.25,0,0,1-.09-.2v-.45a.09.09,0,0,0,0-.09s-.06,0-.09.05a3,3,0,0,1-2.4,1,3.84,3.84,0,0,1-2.37-.76,3.3,3.3,0,0,1-1-2.8,3.46,3.46,0,0,1,1.24-3,5.58,5.58,0,0,1,3.36-.9h1.22a.11.11,0,0,0,.12-.12V202a2.07,2.07,0,0,0-.42-1.36,1.35,1.35,0,0,0-1.06-.5,1.16,1.16,0,0,0-.83.32,1.42,1.42,0,0,0-.4.86.27.27,0,0,1-.3.28h-2.29c-.19,0-.28-.09-.26-.28a3.56,3.56,0,0,1,1.26-2.57,4.31,4.31,0,0,1,2.87-1A4.19,4.19,0,0,1,119,198.91Zm-2.12,8.62a1.53,1.53,0,0,0,.54-1.25v-1.34a.11.11,0,0,0-.12-.12h-1.22a1.89,1.89,0,0,0-1.3.44,1.59,1.59,0,0,0-.49,1.26,1.44,1.44,0,0,0,.37,1.09,1.34,1.34,0,0,0,1,.37A1.9,1.9,0,0,0,116.88,207.53Z"/><path class="cls-1" d="M119.92,214.6v-1.76a.26.26,0,0,1,.29-.29,1.82,1.82,0,0,0,1.47-.56,2.46,2.46,0,0,0,.43-1.56V198.29a.27.27,0,0,1,.09-.2.28.28,0,0,1,.2-.08h2.16a.32.32,0,0,1,.21.08.3.3,0,0,1,.08.2v12.14a8.1,8.1,0,0,1-.31,2.51,2.48,2.48,0,0,1-1.32,1.45,6.65,6.65,0,0,1-3,.5A.26.26,0,0,1,119.92,214.6Zm2.36-18.71a1.6,1.6,0,0,1-.47-1.2,1.59,1.59,0,0,1,1.67-1.67,1.58,1.58,0,0,1,1.19.46,1.79,1.79,0,0,1,0,2.41,1.74,1.74,0,0,1-2.38,0Z"/><path class="cls-1" d="M135.16,205a.26.26,0,0,1-.2.08h-5.21a.11.11,0,0,0-.12.12v1.06a1.81,1.81,0,0,0,.4,1.2,1.28,1.28,0,0,0,1,.47,1.39,1.39,0,0,0,.93-.33,1.63,1.63,0,0,0,.51-.89.28.28,0,0,1,.3-.24l2.1.1a.28.28,0,0,1,.2.08.24.24,0,0,1,.06.22,3.65,3.65,0,0,1-1.2,2.54,5.14,5.14,0,0,1-5.95-.14,3.61,3.61,0,0,1-1.12-2.8v-4.78a3.6,3.6,0,0,1,1.12-2.77,5,5,0,0,1,6.1,0,3.6,3.6,0,0,1,1.12,2.77v3.11A.28.28,0,0,1,135.16,205Zm-5.13-4.3a1.81,1.81,0,0,0-.4,1.2v1.06a.11.11,0,0,0,.12.12h2.66a.11.11,0,0,0,.12-.12v-1.06a1.77,1.77,0,0,0-.4-1.21,1.33,1.33,0,0,0-1.06-.46A1.31,1.31,0,0,0,130,200.65Z"/><path class="cls-1" d="M137.83,209.3a3,3,0,0,1-1.1-2.43v-.16a.24.24,0,0,1,.08-.2.25.25,0,0,1,.2-.09h2a.23.23,0,0,1,.19.09.25.25,0,0,1,.09.2v.11a1.2,1.2,0,0,0,.43,1,1.6,1.6,0,0,0,1.08.38,1.27,1.27,0,0,0,1-.36,1.2,1.2,0,0,0,.36-.89,1.1,1.1,0,0,0-.31-.79,2,2,0,0,0-.66-.49l-1.27-.54a7,7,0,0,1-2.21-1.32,3.11,3.11,0,0,1-.86-2.38,3.27,3.27,0,0,1,1-2.58,4.81,4.81,0,0,1,5.75,0,3.36,3.36,0,0,1,1.07,2.62.27.27,0,0,1-.28.29h-2a.3.3,0,0,1-.2-.08.32.32,0,0,1-.08-.21v-.14a1.26,1.26,0,0,0-.39-.94,1.35,1.35,0,0,0-1-.38,1.29,1.29,0,0,0-1,.39,1.32,1.32,0,0,0-.36.93,1.08,1.08,0,0,0,.28.76,2.29,2.29,0,0,0,.64.48c.23.12.63.3,1.18.53a13.8,13.8,0,0,1,1.66.79A3.75,3.75,0,0,1,144.4,205a3,3,0,0,1,.5,1.78,3.09,3.09,0,0,1-1.11,2.5,4.53,4.53,0,0,1-3,.91A4.57,4.57,0,0,1,137.83,209.3Z"/><path class="cls-1" d="M44.41,219.57v1a.21.21,0,0,1-.24.24H41.06a.08.08,0,0,0-.09.09V235.6a.21.21,0,0,1-.24.23h-1.2a.2.2,0,0,1-.23-.23V220.89c0-.06,0-.09-.1-.09H36.28a.21.21,0,0,1-.24-.24v-1a.21.21,0,0,1,.24-.23h7.89A.21.21,0,0,1,44.41,219.57Z"/><path class="cls-1" d="M51.12,224.05a.25.25,0,0,1,.12.31L51,225.58c0,.14-.11.19-.28.14a1.66,1.66,0,0,0-.71-.14,1,1,0,0,0-.28,0,1.71,1.71,0,0,0-1.39.88,3.69,3.69,0,0,0-.54,2v7.07a.21.21,0,0,1-.24.23h-1.2a.21.21,0,0,1-.24-.23V224.14a.21.21,0,0,1,.24-.23h1.2a.21.21,0,0,1,.24.23v1.42c0,.05,0,.07,0,.07a.15.15,0,0,0,.08,0,2.36,2.36,0,0,1,2.24-1.79A1.92,1.92,0,0,1,51.12,224.05Z"/><path class="cls-1" d="M59.05,224.79a4.07,4.07,0,0,1,1,2.87v7.94a.21.21,0,0,1-.24.23H58.6a.21.21,0,0,1-.24-.23v-.71a.06.06,0,0,0,0-.06.12.12,0,0,0-.09,0A3.06,3.06,0,0,1,55.63,236a3.5,3.5,0,0,1-2.25-.74,3.15,3.15,0,0,1-1-2.63,3.55,3.55,0,0,1,1.16-2.93,4.69,4.69,0,0,1,3-.93h1.65c.06,0,.09,0,.09-.1v-.92a3,3,0,0,0-.54-1.88,1.75,1.75,0,0,0-1.46-.71,1.72,1.72,0,0,0-1.21.47,1.92,1.92,0,0,0-.6,1.2.21.21,0,0,1-.24.24l-1.32,0a.25.25,0,0,1-.18-.07.17.17,0,0,1,0-.17,3.18,3.18,0,0,1,1.13-2.25,3.74,3.74,0,0,1,2.5-.86A3.45,3.45,0,0,1,59.05,224.79Zm-1.4,9.14a2.15,2.15,0,0,0,.71-1.73v-2a.08.08,0,0,0-.09-.09H56.59a2.57,2.57,0,0,0-1.79.6,2.29,2.29,0,0,0-.66,1.78,2.07,2.07,0,0,0,.51,1.54,1.79,1.79,0,0,0,1.33.51A2.41,2.41,0,0,0,57.65,233.93Z"/><path class="cls-1" d="M64.58,235.62l-2.92-11.45,0-.1c0-.11.07-.16.21-.16h1.37a.25.25,0,0,1,.26.21l2,8.93s0,.07,0,.07,0,0,0-.07l2-8.93a.24.24,0,0,1,.26-.21l1.37,0a.24.24,0,0,1,.17.07.16.16,0,0,1,0,.19l-2.89,11.43a.23.23,0,0,1-.26.21H64.84A.25.25,0,0,1,64.58,235.62Z"/><path class="cls-1" d="M78.16,230.51H72.78a.08.08,0,0,0-.09.09v1.72a2.36,2.36,0,0,0,.55,1.61,1.85,1.85,0,0,0,1.45.63A1.87,1.87,0,0,0,76,234.1a2.17,2.17,0,0,0,.69-1.19.27.27,0,0,1,.26-.21l1.18.05a.22.22,0,0,1,.17.07.21.21,0,0,1,0,.19,3.33,3.33,0,0,1-1.14,2.2,3.71,3.71,0,0,1-2.49.81A3.64,3.64,0,0,1,72,235a3.5,3.5,0,0,1-1-2.61v-5.09a3.53,3.53,0,0,1,1-2.61,3.61,3.61,0,0,1,2.67-1,3.65,3.65,0,0,1,2.7,1,3.53,3.53,0,0,1,1,2.61v2.94A.22.22,0,0,1,78.16,230.51Zm-4.92-4.7a2.4,2.4,0,0,0-.55,1.63V229c0,.07,0,.1.09.1h3.87c.06,0,.09,0,.09-.1v-1.58a2.35,2.35,0,0,0-.56-1.63,1.91,1.91,0,0,0-1.49-.63A1.85,1.85,0,0,0,73.24,225.81Z"/><path class="cls-1" d="M80.73,235.6v-16a.21.21,0,0,1,.23-.23h1.21a.21.21,0,0,1,.23.23v16a.21.21,0,0,1-.23.23H81A.21.21,0,0,1,80.73,235.6Z"/><path class="cls-1" d="M96,224.79a4,4,0,0,1,1,2.87v7.94a.21.21,0,0,1-.24.23h-1.2a.21.21,0,0,1-.24-.23v-.71a.06.06,0,0,0,0-.06.12.12,0,0,0-.09,0A3.06,3.06,0,0,1,92.56,236a3.5,3.5,0,0,1-2.25-.74,3.15,3.15,0,0,1-1-2.63,3.55,3.55,0,0,1,1.16-2.93,4.69,4.69,0,0,1,3-.93H95.2c.06,0,.09,0,.09-.1v-.92a3,3,0,0,0-.54-1.88,1.75,1.75,0,0,0-1.46-.71,1.7,1.7,0,0,0-1.21.47,1.94,1.94,0,0,0-.61,1.2c0,.16-.07.24-.23.24l-1.32,0a.25.25,0,0,1-.18-.07.17.17,0,0,1,0-.17,3.14,3.14,0,0,1,1.13-2.25,3.73,3.73,0,0,1,2.49-.86A3.42,3.42,0,0,1,96,224.79Zm-1.39,9.14a2.15,2.15,0,0,0,.71-1.73v-2a.08.08,0,0,0-.09-.09H93.52a2.57,2.57,0,0,0-1.79.6,2.29,2.29,0,0,0-.66,1.78,2.07,2.07,0,0,0,.51,1.54,1.79,1.79,0,0,0,1.33.51A2.43,2.43,0,0,0,94.58,233.93Z"/><path class="cls-1" d="M105.24,223.91h1.2a.2.2,0,0,1,.23.23V235.6a5.64,5.64,0,0,1-1.16,3.83c-.78.87-2.08,1.26-3.9,1.19a.24.24,0,0,1-.24-.26v-1a.21.21,0,0,1,.24-.23,3.21,3.21,0,0,0,2.64-.86,4.34,4.34,0,0,0,.75-2.8v-.7a.08.08,0,0,0,0-.07s-.06,0-.09,0a2.52,2.52,0,0,1-1,.9,3,3,0,0,1-1.33.3,2.94,2.94,0,0,1-2.35-1,3.85,3.85,0,0,1-.86-2.61v-5a3.86,3.86,0,0,1,.86-2.63,3,3,0,0,1,2.35-1,3.18,3.18,0,0,1,1.33.29,2.57,2.57,0,0,1,1,.89s.06.07.09.06,0,0,0-.08v-.74A.21.21,0,0,1,105.24,223.91Zm-.79,9.91a2.34,2.34,0,0,0,.55-1.62v-4.76a2.35,2.35,0,0,0-.55-1.63,1.82,1.82,0,0,0-1.43-.63,1.87,1.87,0,0,0-1.46.63,2.31,2.31,0,0,0-.57,1.63v4.76a2.31,2.31,0,0,0,.57,1.62,1.9,1.9,0,0,0,1.46.62A1.85,1.85,0,0,0,104.45,233.82Z"/><path class="cls-1" d="M116.2,230.51h-5.38a.08.08,0,0,0-.09.09v1.72a2.31,2.31,0,0,0,.55,1.61,1.84,1.84,0,0,0,1.45.63,1.91,1.91,0,0,0,1.29-.46,2.17,2.17,0,0,0,.69-1.19.26.26,0,0,1,.26-.21l1.18.05a.2.2,0,0,1,.16.07.18.18,0,0,1,0,.19,3.42,3.42,0,0,1-1.14,2.2,3.73,3.73,0,0,1-2.49.81,3.61,3.61,0,0,1-2.67-1,3.5,3.5,0,0,1-1-2.61v-5.09a3.53,3.53,0,0,1,1-2.61,3.57,3.57,0,0,1,2.67-1,3.65,3.65,0,0,1,2.7,1,3.53,3.53,0,0,1,1,2.61v2.94A.21.21,0,0,1,116.2,230.51Zm-4.92-4.7a2.35,2.35,0,0,0-.55,1.63V229c0,.07,0,.1.09.1h3.87c.06,0,.09,0,.09-.1v-1.58a2.35,2.35,0,0,0-.56-1.63,1.92,1.92,0,0,0-1.49-.63A1.84,1.84,0,0,0,111.28,225.81Z"/><path class="cls-1" d="M125.38,224.73a4.36,4.36,0,0,1,.78,2.76v8.11a.21.21,0,0,1-.23.23h-1.2a.21.21,0,0,1-.24-.23v-8a2.8,2.8,0,0,0-.51-1.79,1.68,1.68,0,0,0-1.4-.63,1.73,1.73,0,0,0-1.47.68,3,3,0,0,0-.53,1.86v7.85a.21.21,0,0,1-.24.23h-1.2a.2.2,0,0,1-.23-.23V224.14a.2.2,0,0,1,.23-.23h1.2a.21.21,0,0,1,.24.23v.76s0,0,0,.07.05,0,.07-.05a2.61,2.61,0,0,1,1.07-.88,3.23,3.23,0,0,1,1.38-.3A2.71,2.71,0,0,1,125.38,224.73Z"/><path class="cls-1" d="M129.64,235a3.5,3.5,0,0,1-1-2.61v-5.09a3.53,3.53,0,0,1,1-2.61,3.61,3.61,0,0,1,2.66-1,4.11,4.11,0,0,1,2,.45,3.29,3.29,0,0,1,1.31,1.19A3.1,3.1,0,0,1,136,227v.23a.21.21,0,0,1-.24.24l-1.2.05a.21.21,0,0,1-.24-.24v-.17a1.86,1.86,0,0,0-.57-1.35,2,2,0,0,0-1.48-.58,1.85,1.85,0,0,0-1.45.63,2.4,2.4,0,0,0-.55,1.63v4.86a2.38,2.38,0,0,0,.55,1.63,1.85,1.85,0,0,0,1.45.63,2,2,0,0,0,1.48-.58,1.85,1.85,0,0,0,.57-1.35v-.17c0-.16.08-.23.24-.23l1.2,0a.21.21,0,0,1,.24.24v.26a3,3,0,0,1-1,2.34,3.85,3.85,0,0,1-2.7.93A3.64,3.64,0,0,1,129.64,235Z"/><path class="cls-1" d="M137.67,240.48a.26.26,0,0,1,0-.17v-.94a.21.21,0,0,1,.23-.24,2.29,2.29,0,0,0,1.15-.28,1.83,1.83,0,0,0,.67-.92,12.24,12.24,0,0,0,.52-2,.11.11,0,0,0,0-.08.13.13,0,0,1,0-.06l-3-11.59,0-.07c0-.13.08-.19.24-.19h1.27a.23.23,0,0,1,.26.21l2.07,9.26c0,.05,0,.07.05.07s0,0,.05-.07l2-9.26a.24.24,0,0,1,.26-.21l1.32,0a.24.24,0,0,1,.17.07.16.16,0,0,1,0,.19l-3.27,12.68a10.73,10.73,0,0,1-.84,2.33,2.22,2.22,0,0,1-1.07,1.05,4.62,4.62,0,0,1-1.86.3h-.12S137.7,240.52,137.67,240.48Z"/><path class="cls-2" d="M196.45,40.4a143,143,0,0,0-.32-15.9c-.31-5,.31-9.64-3.22-13.64C188.27,5.6,180.47.35,173.3,0c-7.49-.34-14.11,3.92-19.14,9.14-1.4,1.46-1.89,3.23-3.14,4.73-.59.7-1.53.9-2.12,1.73-.81,1.13-1.14,3.05-1.53,4.37a55.09,55.09,0,0,0-2.14,17.5,59.46,59.46,0,0,0,5.91,22.78c1.39,3,8.27,19.28,12.26,17.9-.71.35-.52,1.43-.14,2.13a11.45,11.45,0,0,0,3.69,4c2.11,1.4,2.49,3.8,5.45,4.65,3.17.91,5.21-.11,6.6-3.06,1.71-3.58,5-6.8,6.95-10.35A97,97,0,0,0,191,64.82,75.39,75.39,0,0,0,196.45,40.4Zm-12.1-27.54a12.85,12.85,0,0,1,1,1.4c2.7,4.19,3.55,9,3.83,13.87.15,2.57-.51,5.29-.88,7.86,0,3-.91,6.22-1.38,9.17-.42,2.65-1.32,5.43-1.4,8.1a31.88,31.88,0,0,1-2.29,10.82c-1.23,3.08-2.28,6.4-3.73,9.45a27.69,27.69,0,0,1-2.69,4.89c-.44.58-1.11,1.53-1.88,1.7-1.24.28-1.82-1.14-2.53-2-2.84-3.63-5.56-7.35-8.09-11.21a84.51,84.51,0,0,1-7.93-14.39,44.93,44.93,0,0,1-3-16.69c0-3.38-.21-7.39,1.16-10.57,1.15-2.67,2.54-6,4.49-8.23,1.58-1.76,3.75-2.84,5.54-4.34,2.14-1.81,4.06-3,7-2.84,2,.13,4,.7,6.06.73,1.83,0,3.44-.25,5.06.84A8,8,0,0,1,184.35,12.86Zm-19.2-11h0Z"/><path class="cls-2" d="M183.26,29.67a11,11,0,0,0-3.85-5.61c-1.92-1.58-4.43-2.18-6.84-2.74a15.36,15.36,0,0,0-4.56-.59c-3.88.26-6.1,4.27-7,7.65a12.77,12.77,0,0,0,2,11,3.89,3.89,0,0,0,5,2.1,2.15,2.15,0,0,0,2,2c2.43.25,6.61-2.59,8.53-4a11.68,11.68,0,0,0,4.67-6.21A7.37,7.37,0,0,0,183.26,29.67Zm-11.09,2.77a7.49,7.49,0,0,0-1.93.62,3,3,0,0,1,.15-4.55c.79.26,3.23,0,3.65.59.17.23-.46,3.17-.3,3.15C173.22,32.3,172.69,32.35,172.17,32.44Z"/></g></g></svg>