<svg xmlns="http://www.w3.org/2000/svg" viewBox="0 0 102.57 63.89"><defs><style>.cls-1{fill:#0b4c7c;}</style></defs><g id="Capa_2" data-name="Capa 2"><g id="Capa_1-2" data-name="Capa 1"><path class="cls-1" d="M85.8,62.4c-.52,0-.72.3-1,.57a3.8,3.8,0,0,1-1,.85c-.17.1-.3,0-.43.07a3.2,3.2,0,0,0-.51-1c-.37-.36-.44-.91-.84-1.22a2.47,2.47,0,0,1-.44-.58.66.66,0,0,0-.51-.35c-.1-.52-.11-.52-.66-.56a.51.51,0,0,0-.15-.6,12.16,12.16,0,0,1-.92-1l-.11.25a1,1,0,0,0-.59-.87c-.06,0-.09-.11-.13-.18a6.41,6.41,0,0,0-1-1.16,8.29,8.29,0,0,1-.58-.72,3,3,0,0,0-.86-.79c-.11,0-.17-.21-.26-.3-.48-.49-1-1-1.45-1.48-.2-.19-.42-.37-.63-.56l0,0c-.13-.15-.44,0-.52-.31,0-.18-.31-.31-.48-.46a4.33,4.33,0,0,0-.53-.43,3.82,3.82,0,0,0-.51-.23c-.13-.17-.24-.46-.41-.5-.34-.09-.48-.4-.75-.54s-.35-.12-.5-.21a6.16,6.16,0,0,0-.63-.41c-.44-.18-.81-.53-1.33-.49-.11,0-.23-.13-.39-.23a2,2,0,0,0-.12.51c0,1-.06,1.89-.1,2.84,0,.79-.1,1.59-.15,2.38,0,.4,0,.8,0,1.2,0,.67,0,1.34-.05,2,0,.13.06.27.05.41,0,.42-.07.84-.11,1.29a2.87,2.87,0,0,1-1-.05c-.23,0-.46,0-.69-.07L64.63,59c-.1-.06-.25-.09-.29-.18a1.28,1.28,0,0,1-.09-.48c0-.35.06-.7.07-1,0-1.15.07-2.3.1-3.45,0-1.33,0-2.66.06-4,0-.73.1-1.46.14-2.19,0-.57,0-1.13.07-1.7.06-1.13.14-2.26.18-3.39,0-.52,0-1-.06-1.56l-.06-1.06c.29-.19.29-.19.15-.64.36-.07.25-.44.43-.66l1.19-.1a1.92,1.92,0,0,0,.59-.1,3,3,0,0,1,1.21-.18h3.45a3.61,3.61,0,0,1,1.26.19,1.36,1.36,0,0,0,.35.07,3.24,3.24,0,0,1,.91.25c.35.14.72.21,1.07.39a7.33,7.33,0,0,1,1.9,1.36,1.75,1.75,0,0,1,.32.64,3.12,3.12,0,0,1,.26,1.65.55.55,0,0,0,0,.18,5,5,0,0,1-.45,2.59A11.18,11.18,0,0,1,76.77,47a1.7,1.7,0,0,1-.43.46,3.36,3.36,0,0,1-2,1,8,8,0,0,0-1.09.31,4,4,0,0,0,.54.5c.28.17.44.53.83.53a.07.07,0,0,1,.06,0c.27.64,1,.87,1.38,1.37s1,.91,1.43,1.4.82.77,1.23,1.16a8.8,8.8,0,0,1,.65.72c0,.05.06.13.1.15.4.19.52.62.8.9,0,0,.06.09.09.09.32.07.39.37.56.57s.24.16.34.26l1.11,1.25c.29.32.54.67.86,1a10.06,10.06,0,0,1,1.25,1.59c.3.41.66.77,1,1.17a2.32,2.32,0,0,1,.34.59C85.89,62.06,85.82,62.22,85.8,62.4ZM68.39,41.33a11.43,11.43,0,0,0-.54,3.89h.23c0,.39,0,.38.37.49s1,0,1.49.32c0,0,.12,0,.18,0,.36,0,.73,0,1.1,0a.64.64,0,0,0,.39-.11.51.51,0,0,1,.46-.13,4.26,4.26,0,0,0,1.86-.39.4.4,0,0,0,.16-.13,3.31,3.31,0,0,0,.53-1.61c.08-.58-.29-1.07-.3-1.63,0,0-.11-.1-.16-.15a1,1,0,0,0-.65-.28,3.44,3.44,0,0,1-.67-.26h-.09c-.61,0-1.22-.08-1.83-.08C70.08,41.28,69.24,41.31,68.39,41.33Z"/><path class="cls-1" d="M80.15,51.48a1.81,1.81,0,0,1,1.46,0,2.17,2.17,0,0,0,.84.17c.77,0,1.53,0,2.3,0s1.53,0,2.29,0c.53,0,1.06-.13,1.59-.2a.41.41,0,0,0,.4-.43,6.82,6.82,0,0,0,0-1,1.1,1.1,0,0,0-.93-.87c-.12,0-.24,0-.29-.15a.26.26,0,0,0-.15-.09l-1.43-.42c-.19-.06-.37-.15-.55-.19a9.23,9.23,0,0,1-1.07-.23,2.56,2.56,0,0,0-1-.31,1.15,1.15,0,0,1-.41-.13,1.07,1.07,0,0,0-.37-.15,2.19,2.19,0,0,1-1-.44,9.67,9.67,0,0,1-1.11-.73A4.28,4.28,0,0,1,79.56,45c-.08-.15-.16-.28-.25-.43,0-.5-.06-1-.09-1.56a5.22,5.22,0,0,1,.29-2.18A1.89,1.89,0,0,1,80,40a4.31,4.31,0,0,1,.63-.42l1.13-.47c.6-.23,1.24-.28,1.83-.53a3.35,3.35,0,0,1,.79-.12c.22,0,.43-.13.65-.17a8,8,0,0,1,1-.16A14.91,14.91,0,0,0,87.67,38a13.33,13.33,0,0,1,2.67-.24,7.85,7.85,0,0,0,1.46-.13,20.59,20.59,0,0,1,3.84-.17c.8,0,1.59-.11,2.38-.15.25,0,.49,0,.76,0l0-.38a2.11,2.11,0,0,0,1.22.22,1.55,1.55,0,0,1,1.15.13c.16.11.42.07.63.11s.43.14.48.5.09.67.11,1a1.2,1.2,0,0,0,.12.42,1,1,0,0,1-1,1.28c-.55,0-1.1-.06-1.65-.07s-1.13,0-1.7,0q-1.52,0-3,.09l-1.42.07a1.58,1.58,0,0,0-.37.11.58.58,0,0,1-.17.06c-.37,0-.75,0-1.12,0s-.77,0-1.16,0A11.26,11.26,0,0,0,88.7,41a14.11,14.11,0,0,1-1.93.17l-.87.1s-.11,0-.13,0c-.19.33-.51.19-.78.22a1.78,1.78,0,0,0-1.09.25,1.35,1.35,0,0,1-.66.12.4.4,0,0,0-.4.31,1.32,1.32,0,0,0,.44,1.56,4.8,4.8,0,0,0,1.81,1,4,4,0,0,0,1,.3.41.41,0,0,1,.28.13.69.69,0,0,0,.54.2c.21,0,.41,0,.6.22s.46.11.7.14a.56.56,0,0,1,.31.13,2.17,2.17,0,0,0,.59.21c.16.06.34,0,.47.22s.35.11.59.17a.54.54,0,0,0,.4.37c.09,0,.16.17.24.26.27.29.48.64.73.94A7.14,7.14,0,0,1,92,49a1,1,0,0,1,.15.48c0,.67,0,1.35,0,2,0,.29.13.61-.09.89a1.72,1.72,0,0,1-.59,1.21,4.31,4.31,0,0,1-1,.8c-.08,0-.21,0-.32,0a1.67,1.67,0,0,0-1,.32.51.51,0,0,1-.31.06c-1,0-2.11.08-3.16.09s-2,0-2.93,0c-.47,0-.94,0-1.41-.07a.57.57,0,0,1-.36-.16c-.28-.28-.54-.59-.8-.89a.38.38,0,0,1-.11-.24C80.1,52.86,80.13,52.17,80.15,51.48Z"/><path class="cls-1" d="M55.86,33.72c0-.15,0-.31,0-.47l0-4.88c0-1.09,0-2.18,0-3.27s0-2.46-.1-3.68a9.29,9.29,0,0,0-.3-2.16,1.35,1.35,0,0,1,0-.6.75.75,0,0,1,.2-.48,1.36,1.36,0,0,1,.9-.37c.54.05,1.08,0,1.6,0,.28.31.62.55.7,1,0,.09.07.18.05.26a1.56,1.56,0,0,0,.08.83,3.67,3.67,0,0,1,0,1.36c0,.16,0,.31,0,.46,0,1.43,0,2.85,0,4.28,0,1.14,0,2.29,0,3.44,0,.46.06.92.08,1.38,0,.18,0,.36,0,.54,0,1,0,2,0,2.94,0,.57,0,1.13,0,1.69a4.55,4.55,0,0,0,.09.63c.09.7.19,1.4.28,2.07a1,1,0,0,1-1.06.49c-.56,0-1.11,0-1.66,0a.63.63,0,0,1-.67-.49.46.46,0,0,0-.31-.36,1.84,1.84,0,0,1-1-1s-.11-.07-.17-.11l-.16.27c.14-.5-.32-.74-.31-1.13-.31-.08-.28-.44-.47-.59s-.28-.46-.47-.59-.42-.71-.84-.87a.1.1,0,0,1,0-.07c0-.43-.32-.47-.61-.54,0-.24.07-.45-.2-.57-.09,0-.12-.19-.19-.28l-.33-.36s-.1,0-.11-.07c-.1-.4-.49-.58-.68-.91,0,0,0-.1-.07-.12a1.33,1.33,0,0,1-.58-.68s0,0,0,0c-.56-.19-.64-.81-1-1.14a2,2,0,0,1-.67-.74s-.18,0-.35-.08c0,.91,0,1.76,0,2.61,0,.08,0,.16,0,.23,0,.94,0,1.87.06,2.81,0,.54,0,1.09,0,1.63s0,1.1,0,1.65c0,.27,0,.54,0,.77a4.14,4.14,0,0,1-.75.28,3.56,3.56,0,0,1-.8,0c-.07,0-.16-.05-.22,0-.45.17-.8-.14-1.25-.19,0-.3-.06-.59,0-.87.16-2.88.09-5.77.08-8.65,0-1.08-.1-2.16-.2-3.24,0-.22-.05-.45-.08-.67a1.1,1.1,0,0,0-.27-.46.86.86,0,0,1-.06-1.2,2.37,2.37,0,0,0,.22-.33c.1-.27.32-.3.55-.34a1.77,1.77,0,0,0,.56-.14,2.15,2.15,0,0,1,1.56,0c.14,0,.25.24.36.38.44.57.86,1.15,1.31,1.71s.91,1.07,1.35,1.61a2.37,2.37,0,0,1,.4.64c.11.27.4.35.56.59a9,9,0,0,0,.85,1s0,.09.07.11c.5.29.64.89,1.07,1.22s.44.69.82.87a.14.14,0,0,1,.05.08A5.31,5.31,0,0,0,54.5,32c.13.15.18.35.3.5s.49.57.73.85c.09.11.16.24.25.36Z"/><path class="cls-1" d="M38.39,56.07a3.7,3.7,0,0,0-.21-.33c-.32-.36-.74-.62-1-1-.38,0-.36-.55-.72-.6.09-.38-.27-.58-.37-.88-.18-.51-.4-1-.59-1.51a1.11,1.11,0,0,1-.08-.3c0-.63-.1-1.25-.1-1.88s.06-1.49.1-2.24c0-.09.08-.17.12-.27a1.42,1.42,0,0,0,.23-.76.42.42,0,0,1,.18-.47c.1-.06.11-.27.17-.41s.06-.35.17-.45.38-.32.35-.63c0-.14.21-.11.29-.27A4.75,4.75,0,0,1,37.67,43a13.26,13.26,0,0,1,1-1,6.82,6.82,0,0,1,.58-.49,4.78,4.78,0,0,1,.59-.41,10.23,10.23,0,0,1,1.73-.91,6,6,0,0,1,2.79-.39c.64.1,1.29.21,1.93.35a1.87,1.87,0,0,1,.68.33c.55.4,1.1.81,1.62,1.25a5.42,5.42,0,0,1,.54.7,4.63,4.63,0,0,1,.76,1.31.75.75,0,0,0,.17.19.41.41,0,0,0,.11.05c-.1.32.19.5.27.75A5,5,0,0,0,51,46.15a.51.51,0,0,1,0,.22,3.29,3.29,0,0,0,.16,1.16,1.46,1.46,0,0,1,0,.72,26.3,26.3,0,0,1-.37,3,7.53,7.53,0,0,1-1,2.75,9,9,0,0,1-2.61,2.52,13,13,0,0,1-1.28.67,1.89,1.89,0,0,1-.89.27H45c-.58.41-1.24.22-1.87.24a.7.7,0,0,1-.47-.12,1.66,1.66,0,0,0-.61-.14c-.28,0-.58,0-.81-.23-.06-.06-.2,0-.31-.06a1.42,1.42,0,0,1-.67-.23c-.29-.17-.62-.27-.93-.42-.15-.07-.33-.07-.44-.27S38.56,56.11,38.39,56.07Zm2.11-2.19c.13,0,.33,0,.36.07.16.29.43.31.7.34.12,0,.27,0,.35.07a1,1,0,0,0,.68.2c.43,0,.86.06,1.29,0a2.45,2.45,0,0,0,.9-.11,2.76,2.76,0,0,0,1.47-1.09,10.45,10.45,0,0,0,.62-.91c.26-.59.48-1.21.69-1.83a4.31,4.31,0,0,0,.27-1.48,1.13,1.13,0,0,1,0-.41,2.45,2.45,0,0,0,0-1.42,10.45,10.45,0,0,0-.4-1.72c-.11-.22-.14-.47-.38-.61,0-.42-.39-.59-.51-.93a4.85,4.85,0,0,0-.56-.55l-.79-.62a2.06,2.06,0,0,1-.43,0c-.14,0-.26-.14-.4-.18a1.19,1.19,0,0,0-.49-.07,2.88,2.88,0,0,0-1.68.61A7.47,7.47,0,0,0,41,44.39a6.62,6.62,0,0,0-1.17,2.17,1.08,1.08,0,0,1-.15.28c-.24.3-.21.73-.5,1,0,0,0,0,0,0-.06.34-.12.69-.15,1s0,.64-.07,1a.37.37,0,0,0,.31.48c-.24,0-.32.14-.24.35a3.9,3.9,0,0,1,.13.57,5.38,5.38,0,0,0,.73,1.85s.12,0,.18,0c0,.35,0,.34.31.51C40.45,53.69,40.46,53.8,40.5,53.88Z"/><path class="cls-1" d="M22.47,38c0-.13.05-.3,0-.4a5.25,5.25,0,0,0-.6-1.12.38.38,0,0,1,0-.16,1.07,1.07,0,0,0,0-.25c-.07-.18-.31-.25-.25-.55s-.18-.44-.29-.66-.21-.39-.3-.6c-.3-.74-.57-1.49-.9-2.21-.11-.26-.18-.53-.27-.79s-.39-.5-.42-.77-.31-.54-.34-.85a.44.44,0,0,0-.14-.28c-.17-.11-.17-.27-.22-.42-.1-.31-.23-.61-.35-.91s-.35-.85-.52-1.27a7.11,7.11,0,0,0-.56-1.26,3.87,3.87,0,0,1-.41-.93c-.06-.2-.1-.38-.36-.37.08-.24.1-.44-.11-.6s-.08-.19-.13-.28-.12-.2-.18-.3-.11-.07-.13-.12c-.14-.33-.25-.68-.4-1,0-.09-.16-.14-.27-.24a.9.9,0,0,0-.27-.82s-.07,0-.07-.06c-.07-.54-.48-.92-.67-1.41a5.38,5.38,0,0,0-.48-1c-.14-.21-.25-.49-.54-.45-.06-.15-.09-.27-.14-.38s-.09-.19-.12-.29a.68.68,0,0,1,.54-1,8,8,0,0,1,1.76-.2,1.08,1.08,0,0,1,.94.57,15.5,15.5,0,0,1,1,1.71c.32.65.62,1.32.93,2l.93,1.91a.59.59,0,0,1,0,.08c.44,1,.88,2.05,1.31,3.08.37.86.69,1.75,1.09,2.59s.79,1.79,1.17,2.7c.2.48.33,1,.57,1.46.39.77.64,1.61,1.06,2.38a9.83,9.83,0,0,1,.53,1.34l.08,0c.14-.58.28-1.15.43-1.72a2.75,2.75,0,0,1,.15-.36.44.44,0,0,0,.06-.16A9.84,9.84,0,0,1,26,32.17a8.41,8.41,0,0,1,.35-1.44c.39-.87.49-1.82.82-2.71a12.55,12.55,0,0,0,.31-1.38,3.2,3.2,0,0,1,.23-.91,1.65,1.65,0,0,0,.27-1c.41-.29.25-.81.48-1.18.07-.1,0-.28.05-.43s.19-.16.23-.28c.22-.61.42-1.23.6-1.85.07-.21,0-.45.29-.58.06,0,.07-.2.09-.3l.21-1a.78.78,0,0,1,.47-.53.34.34,0,0,1,.42.05,5.37,5.37,0,0,0,1,.64,3.35,3.35,0,0,1,.73.68.42.42,0,0,1,0,.35c-.15.47-.33.94-.5,1.41-.24.7-.49,1.4-.72,2.11a2.88,2.88,0,0,0-.1.51s0,.07,0,.08A3.47,3.47,0,0,0,30.69,26c-.2.63-.43,1.26-.61,1.9s-.36,1.48-.56,2.21c-.15.57-.38,1.12-.49,1.7s-.32,1.23-.49,1.84c-.23.85-.53,1.68-.77,2.53s-.47,1.77-.7,2.65c0,.05,0,.1,0,.14a1.94,1.94,0,0,1-.33,1.12.39.39,0,0,1-.42.27l-1.23-.11h-.29c-.28,0-.55.08-.82.09-.43,0-.61-.14-.68-.57a1.52,1.52,0,0,0-.25-.51,4.58,4.58,0,0,1-.22-.77,3.2,3.2,0,0,0-.26-.48Z"/><path class="cls-1" d="M61,36.22l.16-1a17.26,17.26,0,0,1,2.16-.1.65.65,0,0,1,.62.38,1.11,1.11,0,0,1,.16.83A8.28,8.28,0,0,0,64,37.72c0,1.06,0,2.12,0,3.18,0,.72,0,1.44-.06,2.15,0,.52-.08,1-.12,1.56,0,.33,0,.66-.06,1-.07.68-.15,1.36-.24,2s-.16,1.14-.25,1.71a8,8,0,0,1-.25,1.2c-.27.86-.57,1.71-.9,2.54a4.5,4.5,0,0,1-.59,1c-.15.19-.35.34-.4.6a.18.18,0,0,1-.08.11c-.65.35-1.09,1-1.87,1.21a4.72,4.72,0,0,1-2,.08c-.57-.1-1.15-.16-1.72-.21a1,1,0,0,1-.71-.32c-.27-.31-.28-.3-.63-.36-.09-.38-.2-.62-.58-.6a4.17,4.17,0,0,0-.64-1.21.43.43,0,0,1,0-.12,19.44,19.44,0,0,0-.68-1.85C52,51.16,52,51,52,50.74a20,20,0,0,1-.35-5.35c0-1,.13-1.89.17-2.84a7.36,7.36,0,0,0-.06-1.24,2.29,2.29,0,0,1,.07-1.1l.77-.25a2,2,0,0,1,1.6,0l.35.12a.73.73,0,0,1,.42.39c.06.12.15.24.24.4a1.23,1.23,0,0,0-.06,1,.44.44,0,0,1,0,.35,1.84,1.84,0,0,0-.15.8,5.77,5.77,0,0,1-.08.58,3.64,3.64,0,0,0,0,1.19,5,5,0,0,1-.07.85c0,.78,0,1.56,0,2.34a2,2,0,0,0,.19,1c-.15.47.12.89.15,1.34a.65.65,0,0,0,.32.57s.08.09.12.14a7.07,7.07,0,0,0,1.38,1.18,1,1,0,0,0,.36.17c.38.07.75.12,1.13.17a.41.41,0,0,0,.22,0c.31-.16.61-.34.92-.51l-.2-.24.49,0c.12-.52.5-.94.43-1.51,0,0,.06-.08.09-.13s.11-.11.11-.17a5.09,5.09,0,0,0,.14-1.4c0-.08,0-.23,0-.26.28-.14.22-.4.19-.61a4.43,4.43,0,0,1,0-1.36c.06-.41.07-.83.09-1.24,0-.81.07-1.62.11-2.43,0-.47.07-1,.08-1.42,0-.94.06-1.89.08-2.83,0-.57,0-1.14,0-1.71C61.19,36.57,61.2,36.32,61,36.22Z"/><path class="cls-1" d="M33.11,22.83a3,3,0,0,1,3-.65l.5.66s0,.05,0,.08a4.79,4.79,0,0,0,.61,1.72c.28.8.55,1.61.88,2.39a24.23,24.23,0,0,0,1.08,2.58c.21.36.28.8.49,1.16s.11.7.45.91c0,.27.21.48.3.72a7.65,7.65,0,0,0,.68,1.48,4.84,4.84,0,0,1,.28.66c.38.86.77,1.72,1.16,2.58a5.09,5.09,0,0,0,.37.59l.3-.06s.06.05,0,.06c-.09.44.09.91-.09,1.36a4.93,4.93,0,0,0-.57,0,1.6,1.6,0,0,0-.39.11c-.05,0-.09.11-.14.11a9.67,9.67,0,0,1-1.41.11.8.8,0,0,1-.66-.68,5.1,5.1,0,0,0-.56-1.26s-.1-.06-.1-.09c0-.41-.25-.66-.43-1a9.83,9.83,0,0,1-.52-1.26c-.16-.38-.18-.44-.59-.4-.71.06-1.41.15-2.13.21-.3,0-.61,0-.91,0l-1.66,0c-.56,0-.61.07-.76.58-.2.7-.44,1.39-.64,2.09a6.64,6.64,0,0,0-.23,1,.78.78,0,0,1-1.2.56.57.57,0,0,0-.25-.08.62.62,0,0,1-.47-.13s-.14,0-.21,0-.18,0-.21,0c-.25-.24-.57-.42-.66-.79a1.08,1.08,0,0,1,0-.31l.19-.93c.21,0,.26-.17.33-.37.16-.46.29-.94.43-1.4.19-.66.48-1.29.65-2,.05-.19,0-.4.24-.51,0,0,0-.06,0-.09.16-.62.32-1.25.51-1.87.05-.18,0-.4.26-.5,0,0,.06-.1.08-.15.13-.41.24-.82.37-1.23a3,3,0,0,0,.32-1c0-.1.2-.19.22-.31A27.54,27.54,0,0,1,33,25c0-.12.09-.26,0-.35a.36.36,0,0,1,.1-.48.6.6,0,0,0,.1-.43C33.2,23.42,33.15,23.15,33.11,22.83Zm3.15,9.08.52.29a1.2,1.2,0,0,0,0-.35,5.82,5.82,0,0,1-.58-1.41.11.11,0,0,0,0-.08c-.44-.44-.4-1.08-.7-1.58a8.38,8.38,0,0,1-.4-.9c-.1.3-.17.56-.26.81a1.43,1.43,0,0,0-.17.91c0,.09-.08.21-.12.32s0,.21-.06.27a.57.57,0,0,0-.16.25,4.63,4.63,0,0,1-.24.85,1.4,1.4,0,0,0-.17.88h2.25Z"/><path class="cls-1" d="M65.07,25l-2.51.11c-.07,0-.15,0-.22,0a.64.64,0,0,0-.78.41l-.1-.25c-.33,0-.66.07-1,.08a.72.72,0,0,1-.64-.52c-.08-.73-.13-1.45-.19-2.19l.24-.05a3.9,3.9,0,0,1,2-.28c.92,0,1.85-.11,2.78-.15.53,0,1.07,0,1.61,0s1,0,1.43,0,.91-.1,1.37-.13,1.15-.06,1.73,0c.31,0,.62.12.93.15.53.06,1.06.07,1.59.11l.69.07.22.36a.56.56,0,0,1,0,.12c0,.1-.15.22-.12.28.12.28-.1.5-.13.75a2.69,2.69,0,0,1-.23.78.7.7,0,0,1-.79.48c-.65-.07-1.3-.19-1.95-.23s-1.5,0-2.25,0c-.21,0-.29.2-.3.48a5,5,0,0,1,0,1.33,2.57,2.57,0,0,0,0,.68c0,1.26-.08,2.51-.09,3.77a18.15,18.15,0,0,0,.1,2.66c.08.51,0,1,0,1.49,0,.18,0,.37.12.51a.19.19,0,0,1,0,.17c-.2.26,0,.5,0,.74a1.25,1.25,0,0,1-.13,1c-.78,0-1.58,0-2.37,0-.56,0-.78-.36-.68-.91a1.85,1.85,0,0,0,0-.23c-.06-1.44-.13-2.88-.18-4.32,0-.52,0-1,0-1.56,0-.81,0-1.62,0-2.44s0-1.55-.09-2.33A7.39,7.39,0,0,0,65.07,25Z"/><path class="cls-1" d="M1.67,47.8l-.1-.56a0,0,0,0,0,0,0H.75a0,0,0,0,0,0,0l-.1.56s0,.06-.07.06H.06s-.07,0-.06-.07l.8-3.63s0-.06.07-.06h.57a.07.07,0,0,1,.07.06l.79,3.63v0s0,0-.06,0h-.5A.07.07,0,0,1,1.67,47.8ZM.85,46.72h.59s0,0,0,0L1.16,45l0,0s0,0,0,0L.82,46.7S.82,46.72.85,46.72Z"/><path class="cls-1" d="M3.87,45.14s0,0,0,0h.5a0,0,0,0,1,0,0,.05.05,0,0,1,0,0v2.58a1.37,1.37,0,0,1-.26.89,1.18,1.18,0,0,1-.94.32H3.09s-.06,0-.06-.07v-.41s0-.07.07-.06a1,1,0,0,0,.47-.08.41.41,0,0,0,.22-.23,1.18,1.18,0,0,0,.06-.41v-.08s0,0,0,0a.62.62,0,0,1-.51.23.66.66,0,0,1-.55-.24A1,1,0,0,1,2.58,47V45.94a1,1,0,0,1,.19-.64.65.65,0,0,1,.54-.23.62.62,0,0,1,.51.23,0,0,0,0,0,0,0,0,0,0,0,0,0,0v-.12S3.85,45.15,3.87,45.14Zm-.11,2.08A.4.4,0,0,0,3.85,47V46a.4.4,0,0,0-.09-.27.3.3,0,0,0-.23-.11.3.3,0,0,0-.24.11A.4.4,0,0,0,3.2,46v1a.4.4,0,0,0,.09.27.3.3,0,0,0,.24.11A.3.3,0,0,0,3.76,47.22Z"/><path class="cls-1" d="M6.77,46.7l0,0H5.54s0,0,0,0V47a.4.4,0,0,0,.09.27.3.3,0,0,0,.24.11.32.32,0,0,0,.21-.08.37.37,0,0,0,.12-.2A.07.07,0,0,1,6.24,47l.47,0h0s0,0,0,0a.78.78,0,0,1-.27.58,1,1,0,0,1-.66.2,1,1,0,0,1-.7-.23A.83.83,0,0,1,4.89,47V45.94a.82.82,0,0,1,.25-.63,1,1,0,0,1,.7-.24,1,1,0,0,1,.69.24.83.83,0,0,1,.26.63v.71A.08.08,0,0,1,6.77,46.7Zm-1.17-1a.4.4,0,0,0-.09.27v.24a0,0,0,0,0,0,0h.61s0,0,0,0V46a.4.4,0,0,0-.09-.27.32.32,0,0,0-.48,0Z"/><path class="cls-1" d="M8.92,45.31A1,1,0,0,1,9.1,46V47.8a.06.06,0,0,1,0,0l-.05,0H8.55l-.05,0a.08.08,0,0,1,0,0V46a.45.45,0,0,0-.08-.3.27.27,0,0,0-.23-.11.3.3,0,0,0-.24.11.5.5,0,0,0-.09.31V47.8a0,0,0,0,1,0,0l0,0h-.5l0,0a.08.08,0,0,1,0,0V45.18a.05.05,0,0,1,0,0,0,0,0,0,1,0,0h.5s0,0,0,0,0,0,0,0v.11a0,0,0,0,0,0,0l0,0a.64.64,0,0,1,.51-.22A.61.61,0,0,1,8.92,45.31Z"/><path class="cls-1" d="M9.79,47.67A.84.84,0,0,1,9.53,47V45.94a.83.83,0,0,1,.26-.63,1,1,0,0,1,.69-.24,1,1,0,0,1,.7.24.76.76,0,0,1,.26.59V46a.08.08,0,0,1,0,0l0,0-.5,0a.05.05,0,0,1-.06-.06v-.06a.3.3,0,0,0-.1-.23.32.32,0,0,0-.47,0,.4.4,0,0,0-.09.27v1a.4.4,0,0,0,.09.27.3.3,0,0,0,.23.11.33.33,0,0,0,.24-.1.33.33,0,0,0,.1-.24V47a0,0,0,0,1,0,0,.05.05,0,0,1,0,0h.54s0,0,0,0v.1a.79.79,0,0,1-.26.6,1,1,0,0,1-.7.22A1,1,0,0,1,9.79,47.67Z"/><path class="cls-1" d="M11.9,44.63a.39.39,0,0,1,0-.54.39.39,0,0,1,.54,0,.38.38,0,0,1-.54.54Zm0,3.21a.08.08,0,0,1,0,0V45.18a.05.05,0,0,1,0,0,.06.06,0,0,1,0,0h.49s0,0,.05,0a.05.05,0,0,1,0,0V47.8a.08.08,0,0,1,0,0l-.05,0h-.49Z"/><path class="cls-1" d="M14.62,45.32a.87.87,0,0,1,.26.65V47.8a0,0,0,0,1,0,0l0,0h-.5l0,0a.08.08,0,0,1,0,0v-.13h0a.68.68,0,0,1-.55.22.87.87,0,0,1-.54-.17.75.75,0,0,1-.23-.64.77.77,0,0,1,.28-.68A1.25,1.25,0,0,1,14,46.2h.28a0,0,0,0,0,0,0V46a.42.42,0,0,0-.1-.3.29.29,0,0,0-.24-.12.26.26,0,0,0-.19.07.34.34,0,0,0-.09.2s0,.06-.07.06h-.52a.05.05,0,0,1-.06-.06.86.86,0,0,1,.29-.59,1.07,1.07,0,0,1,1.34,0Zm-.48,2a.37.37,0,0,0,.12-.29v-.3a0,0,0,0,0,0,0H14a.39.39,0,0,0-.29.1.34.34,0,0,0-.11.29.29.29,0,0,0,.3.33A.51.51,0,0,0,14.14,47.29Z"/><path class="cls-1" d="M17.65,44.12l.05,0h.49l0,0a.07.07,0,0,1,0,.05V47.8a.06.06,0,0,1,0,0l0,0H17.7l-.05,0a.08.08,0,0,1,0,0v-.07s0,0,0,0h0a.68.68,0,0,1-.48.18.71.71,0,0,1-.56-.23,1,1,0,0,1-.2-.64V45.94a1,1,0,0,1,.2-.64.72.72,0,0,1,.56-.23.79.79,0,0,1,.25,0,.65.65,0,0,1,.23.15h0s0,0,0,0V44.17A.08.08,0,0,1,17.65,44.12Zm-.13,3.16a.33.33,0,0,0,.11-.22V45.92a.36.36,0,0,0-.11-.23.29.29,0,0,0-.21-.08.3.3,0,0,0-.24.11A.4.4,0,0,0,17,46v1a.4.4,0,0,0,.09.27.3.3,0,0,0,.24.11A.26.26,0,0,0,17.52,47.28Z"/><path class="cls-1" d="M20.59,46.7l-.05,0H19.36s0,0,0,0V47a.4.4,0,0,0,.09.27.3.3,0,0,0,.24.11.32.32,0,0,0,.21-.08.31.31,0,0,0,.11-.2.07.07,0,0,1,.07-.06l.48,0h0a.09.09,0,0,1,0,0,.86.86,0,0,1-.27.58,1.18,1.18,0,0,1-1.36,0,.83.83,0,0,1-.25-.64V45.94a.82.82,0,0,1,.25-.63,1.13,1.13,0,0,1,1.39,0,.83.83,0,0,1,.26.63v.71A.08.08,0,0,1,20.59,46.7Zm-1.17-1a.4.4,0,0,0-.09.27v.24a0,0,0,0,0,0,0H20a0,0,0,0,0,0,0V46a.4.4,0,0,0-.09-.27.32.32,0,0,0-.48,0Z"/><path class="cls-1" d="M22.62,47.81,22,45.18v0s0,0,.06,0h.55s.07,0,.07.06L23,46.84l0,0,0,0,.31-1.67a.07.07,0,0,1,.07-.06h.55c.05,0,.07,0,.06.07l-.65,2.62a.08.08,0,0,1-.08,0H22.7A.08.08,0,0,1,22.62,47.81Z"/><path class="cls-1" d="M24.39,44.63a.39.39,0,0,1,0-.54.36.36,0,0,1,.28-.11.33.33,0,0,1,.27.11.36.36,0,0,1,.1.27.33.33,0,0,1-.11.27.36.36,0,0,1-.26.11A.39.39,0,0,1,24.39,44.63Zm0,3.21a.08.08,0,0,1,0,0V45.18a.05.05,0,0,1,0,0,0,0,0,0,1,0,0h.5s0,0,0,0,0,0,0,0V47.8a0,0,0,0,1,0,0l0,0h-.5Z"/><path class="cls-1" d="M27.11,45.32a.85.85,0,0,1,.27.65V47.8a.08.08,0,0,1,0,0l-.05,0h-.49l-.05,0a.08.08,0,0,1,0,0v-.13h0a.67.67,0,0,1-.55.22.87.87,0,0,1-.54-.17.78.78,0,0,1-.23-.64.79.79,0,0,1,.28-.68,1.28,1.28,0,0,1,.77-.21h.28s0,0,0,0V46a.47.47,0,0,0-.09-.3.31.31,0,0,0-.24-.12.25.25,0,0,0-.19.07.34.34,0,0,0-.09.2.07.07,0,0,1-.07.06h-.52q-.07,0-.06-.06a.85.85,0,0,1,.28-.59,1,1,0,0,1,.66-.22A1,1,0,0,1,27.11,45.32Zm-.48,2a.37.37,0,0,0,.12-.29v-.3s0,0,0,0h-.28a.44.44,0,0,0-.3.1.37.37,0,0,0-.11.29.3.3,0,0,0,.09.24.28.28,0,0,0,.22.09A.48.48,0,0,0,26.63,47.29Z"/><path class="cls-1" d="M27.32,48.9v-.41s0-.06.07-.06a.39.39,0,0,0,.33-.13.52.52,0,0,0,.1-.35V45.18a.05.05,0,0,1,0,0s0,0,.05,0h.49a.06.06,0,0,1,.05,0,.05.05,0,0,1,0,0V48a2.1,2.1,0,0,1-.07.57.6.6,0,0,1-.3.33,1.6,1.6,0,0,1-.69.11S27.32,48.94,27.32,48.9Zm.54-4.27a.39.39,0,0,1,0-.54.34.34,0,0,1,.28-.11.33.33,0,0,1,.27.11.36.36,0,0,1,.1.27.37.37,0,0,1-.11.27.36.36,0,0,1-.26.11A.38.38,0,0,1,27.86,44.63Z"/><path class="cls-1" d="M30.8,46.7l-.05,0H29.56a0,0,0,0,0,0,0V47a.4.4,0,0,0,.09.27.3.3,0,0,0,.23.11.33.33,0,0,0,.22-.08.43.43,0,0,0,.11-.2.07.07,0,0,1,.07-.06l.48,0h.05a.09.09,0,0,1,0,0,.83.83,0,0,1-.28.58.93.93,0,0,1-.66.2,1,1,0,0,1-.69-.23.84.84,0,0,1-.26-.64V45.94a.83.83,0,0,1,.26-.63,1.13,1.13,0,0,1,1.39,0,.82.82,0,0,1,.25.63v.71A.07.07,0,0,1,30.8,46.7Zm-1.17-1a.4.4,0,0,0-.09.27v.24s0,0,0,0h.61a0,0,0,0,0,0,0V46a.4.4,0,0,0-.09-.27.34.34,0,0,0-.25-.11A.3.3,0,0,0,29.63,45.72Z"/><path class="cls-1" d="M31.41,47.69a.68.68,0,0,1-.26-.55v0s0,0,0-.05l0,0h.46l0,0a.06.06,0,0,1,0,.05v0a.3.3,0,0,0,.1.22.37.37,0,0,0,.25.09.29.29,0,0,0,.22-.09.28.28,0,0,0,.08-.2.29.29,0,0,0-.07-.18.72.72,0,0,0-.15-.11l-.29-.12a1.51,1.51,0,0,1-.5-.3.69.69,0,0,1-.2-.55.73.73,0,0,1,.24-.58,1.07,1.07,0,0,1,1.31,0,.78.78,0,0,1,.24.6,0,0,0,0,1,0,0l0,0h-.45l-.05,0a.08.08,0,0,1,0,0v0a.29.29,0,0,0-.09-.21.3.3,0,0,0-.46.39l.14.11.27.12a2.74,2.74,0,0,1,.38.18.91.91,0,0,1,.27.25.65.65,0,0,1,.12.4.7.7,0,0,1-.26.57,1,1,0,0,1-.68.21A1,1,0,0,1,31.41,47.69Z"/><path class="cls-1" d="M10.12,50v.22a.05.05,0,0,1-.06.06h-.7s0,0,0,0v3.35s0,0-.05,0H9s-.06,0-.06,0V50.33s0,0,0,0H8.27a.05.05,0,0,1-.06-.06V50s0-.05.06-.05h1.79S10.12,50,10.12,50Z"/><path class="cls-1" d="M11.65,51.05a.08.08,0,0,1,0,.07l-.07.28s0,0-.06,0a.41.41,0,0,0-.16,0h-.07a.42.42,0,0,0-.32.21.83.83,0,0,0-.12.46v1.61s0,0-.05,0h-.28s-.05,0-.05,0V51.07a0,0,0,0,1,.05,0h.28a0,0,0,0,1,.05,0v.32s0,0,0,0h0a.53.53,0,0,1,.51-.41A.44.44,0,0,1,11.65,51.05Z"/><path class="cls-1" d="M13.45,51.22a.92.92,0,0,1,.23.65v1.81s0,0,0,0h-.28s0,0,0,0v-.16a0,0,0,0,0,0,0h0a.69.69,0,0,1-.6.27.85.85,0,0,1-.51-.17.73.73,0,0,1-.22-.6.8.8,0,0,1,.27-.67,1.05,1.05,0,0,1,.69-.21h.38l0,0V51.9a.65.65,0,0,0-.13-.43.38.38,0,0,0-.33-.16.36.36,0,0,0-.27.1.44.44,0,0,0-.14.28s0,.05-.06.05h-.3l0,0s0,0,0,0a.7.7,0,0,1,.25-.51.88.88,0,0,1,.57-.2A.79.79,0,0,1,13.45,51.22Zm-.31,2.08a.5.5,0,0,0,.16-.39v-.45s0,0,0,0h-.39a.57.57,0,0,0-.4.14.53.53,0,0,0-.15.41.52.52,0,0,0,.11.35.41.41,0,0,0,.31.11A.54.54,0,0,0,13.14,53.3Z"/><path class="cls-1" d="M14.72,53.69l-.67-2.61v0s0,0,.05,0h.31s.06,0,.06,0l.46,2v0l0,0,.45-2s0,0,.06,0h.31l0,0s0,0,0,0l-.66,2.61a.05.05,0,0,1-.06,0h-.33S14.72,53.72,14.72,53.69Z"/><path class="cls-1" d="M17.81,52.52H16.58l0,0v.39a.51.51,0,0,0,.13.37.39.39,0,0,0,.33.14.43.43,0,0,0,.29-.1.47.47,0,0,0,.16-.27.06.06,0,0,1,.06,0h.27l0,0s0,0,0,0a.79.79,0,0,1-.26.5.84.84,0,0,1-.57.19.82.82,0,0,1-.61-.23.81.81,0,0,1-.23-.59V51.8a.86.86,0,0,1,1.45-.6.78.78,0,0,1,.23.6v.67A0,0,0,0,1,17.81,52.52Zm-1.12-1.07a.51.51,0,0,0-.13.37v.36s0,0,0,0h.88s0,0,0,0v-.36a.55.55,0,0,0-.13-.37.42.42,0,0,0-.34-.14A.39.39,0,0,0,16.69,51.45Z"/><path class="cls-1" d="M18.39,53.68V50s0-.05.06-.05h.27s.06,0,.06.05v3.65s0,0-.06,0h-.27S18.39,53.72,18.39,53.68Z"/><path class="cls-1" d="M21.87,51.22a.92.92,0,0,1,.22.65v1.81s0,0-.05,0h-.27s-.06,0-.06,0v-.16s0,0,0,0h0a.68.68,0,0,1-.59.27.8.8,0,0,1-.51-.17.7.7,0,0,1-.22-.6.83.83,0,0,1,.26-.67,1.09,1.09,0,0,1,.69-.21h.38l0,0V51.9a.71.71,0,0,0-.12-.43.38.38,0,0,0-.33-.16.4.4,0,0,0-.28.1.5.5,0,0,0-.14.28,0,0,0,0,1-.05.05h-.3l0,0s0,0,0,0a.71.71,0,0,1,.26-.51.84.84,0,0,1,.57-.2A.79.79,0,0,1,21.87,51.22Zm-.32,2.08a.47.47,0,0,0,.16-.39v-.45s0,0,0,0h-.38a.6.6,0,0,0-.41.14.53.53,0,0,0-.15.41.48.48,0,0,0,.12.35.37.37,0,0,0,.3.11A.53.53,0,0,0,21.55,53.3Z"/><path class="cls-1" d="M24,51h.27s.06,0,.06,0v2.61a1.26,1.26,0,0,1-.27.87,1.06,1.06,0,0,1-.89.27,0,0,0,0,1,0,0v-.24a0,0,0,0,1,0-.05.69.69,0,0,0,.6-.2.93.93,0,0,0,.17-.63v-.18h0a.59.59,0,0,1-.24.2.6.6,0,0,1-.3.07.63.63,0,0,1-.53-.23.86.86,0,0,1-.2-.59V51.8a.89.89,0,0,1,.2-.6.66.66,0,0,1,.53-.23.73.73,0,0,1,.3.07.59.59,0,0,1,.24.2l0,0v-.19S23.94,51,24,51Zm-.18,2.26a.57.57,0,0,0,.12-.37V51.82a.55.55,0,0,0-.12-.37.4.4,0,0,0-.33-.14.42.42,0,0,0-.33.14.51.51,0,0,0-.13.37v1.09a.52.52,0,0,0,.13.37.45.45,0,0,0,.33.14A.44.44,0,0,0,23.8,53.28Z"/><path class="cls-1" d="M26.48,52.52H25.25l0,0v.39a.51.51,0,0,0,.13.37.39.39,0,0,0,.33.14.43.43,0,0,0,.29-.1.53.53,0,0,0,.16-.27.06.06,0,0,1,.06,0h.26l0,0s0,0,0,0a.74.74,0,0,1-.26.5.79.79,0,0,1-.56.19.82.82,0,0,1-.61-.23.77.77,0,0,1-.23-.59V51.8a.78.78,0,0,1,.23-.6.82.82,0,0,1,.61-.23.84.84,0,0,1,.61.23.81.81,0,0,1,.23.6v.67A0,0,0,0,1,26.48,52.52Zm-1.12-1.07a.51.51,0,0,0-.13.37v.36s0,0,0,0h.88s0,0,0,0v-.36a.51.51,0,0,0-.13-.37.4.4,0,0,0-.33-.14A.39.39,0,0,0,25.36,51.45Z"/><path class="cls-1" d="M28.57,51.21a1,1,0,0,1,.18.62v1.85s0,0-.06,0h-.27s-.05,0-.05,0V51.87a.61.61,0,0,0-.12-.41.38.38,0,0,0-.32-.15.4.4,0,0,0-.34.16.66.66,0,0,0-.12.42v1.79s0,0,0,0h-.27s-.06,0-.06,0V51.07s0,0,.06,0h.27s0,0,0,0v.19h0a.6.6,0,0,1,.25-.2.64.64,0,0,1,.31-.07A.59.59,0,0,1,28.57,51.21Z"/><path class="cls-1" d="M29.54,53.55a.81.81,0,0,1-.23-.59V51.8a.81.81,0,0,1,.23-.6.84.84,0,0,1,.61-.23.9.9,0,0,1,.44.11.66.66,0,0,1,.3.27.67.67,0,0,1,.11.37v.05a.05.05,0,0,1-.06.06h-.27s-.06,0-.06-.05v0a.42.42,0,0,0-.13-.31.43.43,0,0,0-.33-.13.39.39,0,0,0-.33.14.51.51,0,0,0-.13.37v1.11a.51.51,0,0,0,.13.37.39.39,0,0,0,.33.14.43.43,0,0,0,.33-.13.4.4,0,0,0,.13-.31v0a.05.05,0,0,1,.06-.06h.27s.06,0,.06,0V53a.66.66,0,0,1-.24.53.83.83,0,0,1-.61.22A.82.82,0,0,1,29.54,53.55Z"/><path class="cls-1" d="M31.37,54.79s0,0,0,0v-.21s0,0,.05,0a.58.58,0,0,0,.26-.07.44.44,0,0,0,.15-.21,2.64,2.64,0,0,0,.12-.46s0,0,0,0h0l-.68-2.64v0s0,0,.06,0h.29s0,0,.06,0l.47,2.11h0l.47-2.11s0,0,.06,0H33l0,0s0,0,0,0L32.27,54a1.94,1.94,0,0,1-.19.53.47.47,0,0,1-.24.24,1,1,0,0,1-.42.07h0A0,0,0,0,1,31.37,54.79Z"/><path class="cls-1" d="M44.76,9.21a33.83,33.83,0,0,0-.07-3.63c-.07-1.13.07-2.19-.73-3.1A7.17,7.17,0,0,0,39.49,0a5.9,5.9,0,0,0-4.36,2.09c-.32.33-.43.73-.72,1.07-.13.16-.35.21-.48.4a3.39,3.39,0,0,0-.35,1,12.46,12.46,0,0,0-.49,4,13.58,13.58,0,0,0,1.35,5.19c.31.69,1.88,4.4,2.79,4.08-.16.08-.12.33,0,.49a2.73,2.73,0,0,0,.84.92c.48.32.57.86,1.24,1.06a1.14,1.14,0,0,0,1.51-.7c.38-.82,1.13-1.55,1.58-2.36a22.81,22.81,0,0,0,1.16-2.45A17.18,17.18,0,0,0,44.76,9.21ZM42,2.93a2.43,2.43,0,0,1,.24.32,6.46,6.46,0,0,1,.87,3.16,9.91,9.91,0,0,1-.2,1.79,13.54,13.54,0,0,1-.32,2.09,16.64,16.64,0,0,0-.32,1.85,7,7,0,0,1-.52,2.46c-.28.7-.52,1.46-.85,2.15a5.77,5.77,0,0,1-.61,1.12c-.1.13-.25.35-.43.39s-.41-.26-.57-.47c-.65-.83-1.27-1.67-1.85-2.55A19,19,0,0,1,35.64,12,10.15,10.15,0,0,1,35,8.15a6.07,6.07,0,0,1,.27-2.4,7.28,7.28,0,0,1,1-1.88,11,11,0,0,1,1.26-1,2.09,2.09,0,0,1,1.59-.64c.47,0,.92.16,1.39.16a1.91,1.91,0,0,1,1.15.19A1.67,1.67,0,0,1,42,2.93ZM37.63.42h0Z"/><path class="cls-1" d="M41.75,6.76a2.48,2.48,0,0,0-.87-1.28,3.61,3.61,0,0,0-1.56-.62,3.67,3.67,0,0,0-1-.14c-.88.06-1.39,1-1.6,1.75A2.92,2.92,0,0,0,37.13,9a.89.89,0,0,0,1.15.48.49.49,0,0,0,.46.45A4,4,0,0,0,40.68,9a2.67,2.67,0,0,0,1.07-1.41A1.67,1.67,0,0,0,41.75,6.76Zm-2.52.63a1.73,1.73,0,0,0-.44.14.68.68,0,0,1,0-1c.18,0,.74,0,.84.13s-.11.72-.07.72Z"/></g></g></svg>