<svg xmlns="http://www.w3.org/2000/svg" viewBox="0 0 155.11 96.61"><defs><style>.cls-1{fill:#0b4c7c;}.cls-2{fill:#e26b0e;}</style></defs><g id="Capa_2" data-name="Capa 2"><g id="Capa_1-2" data-name="Capa 1"><path class="cls-1" d="M129.74,94.36c-.78-.07-1.08.45-1.44.86a5.73,5.73,0,0,1-1.48,1.29c-.25.15-.45,0-.64.1a5.49,5.49,0,0,0-.77-1.53c-.57-.54-.67-1.36-1.27-1.85a3.32,3.32,0,0,1-.67-.87,1,1,0,0,0-.77-.52c-.16-.79-.17-.8-1-.85a.74.74,0,0,0-.22-.91,17.77,17.77,0,0,1-1.39-1.44l-.16.39a1.5,1.5,0,0,0-.9-1.32c-.09,0-.13-.18-.19-.27a9.2,9.2,0,0,0-1.6-1.76c-.34-.3-.55-.75-.88-1.08a4.3,4.3,0,0,0-1.3-1.21c-.16-.07-.24-.3-.38-.45-.73-.75-1.45-1.49-2.19-2.23-.3-.3-.64-.57-1-.86l0,0c-.2-.24-.66,0-.78-.47-.07-.28-.47-.47-.72-.7a8.53,8.53,0,0,0-.81-.65,4.75,4.75,0,0,0-.77-.34c-.2-.27-.36-.7-.62-.77-.52-.13-.73-.59-1.14-.81-.24-.12-.51-.18-.75-.31a7.1,7.1,0,0,0-.95-.63c-.66-.26-1.22-.8-2-.74-.16,0-.34-.19-.58-.35a3.87,3.87,0,0,0-.19.78c-.06,1.43-.09,2.86-.15,4.29-.06,1.2-.15,2.4-.21,3.6,0,.6,0,1.21-.07,1.81,0,1,0,2-.07,3,0,.21.08.41.07.62,0,.64-.11,1.27-.17,2a4.15,4.15,0,0,1-1.54-.07c-.35-.06-.7-.07-1-.1l-1.24-.74c-.14-.09-.36-.15-.42-.28a1.64,1.64,0,0,1-.14-.73c0-.53.09-1.06.11-1.59,0-1.74.1-3.47.14-5.21,0-2,0-4,.1-6,0-1.1.14-2.21.2-3.32.05-.85.06-1.71.11-2.57.09-1.71.21-3.41.27-5.13,0-.78,0-1.57-.09-2.36,0-.52-.06-1.05-.09-1.6.44-.28.44-.28.23-1,.54-.1.37-.66.65-1,.57,0,1.19-.08,1.8-.14a2.91,2.91,0,0,0,.89-.15,4.55,4.55,0,0,1,1.83-.27h5.22a5.39,5.39,0,0,1,1.9.29,2.47,2.47,0,0,0,.54.11,4.43,4.43,0,0,1,1.37.37c.52.22,1.09.32,1.61.59a10.9,10.9,0,0,1,2.88,2.06,2.61,2.61,0,0,1,.49,1,4.84,4.84,0,0,1,.39,2.49,1.22,1.22,0,0,0,0,.27,7.65,7.65,0,0,1-.68,3.92A22.46,22.46,0,0,1,116.1,71a3,3,0,0,1-.65.69,5.16,5.16,0,0,1-3,1.47,12,12,0,0,0-1.64.47,6.07,6.07,0,0,0,.82.75c.42.26.66.8,1.25.8,0,0,.08,0,.09,0,.42,1,1.44,1.32,2.09,2.07s1.48,1.38,2.17,2.12,1.23,1.17,1.85,1.75a11.57,11.57,0,0,1,1,1.1c.06.06.08.19.15.23.6.27.78.92,1.21,1.34.05,0,.08.14.14.15.47.11.59.55.85.86s.36.24.5.39c.57.62,1.12,1.25,1.68,1.88s.82,1,1.3,1.48a15.6,15.6,0,0,1,1.89,2.4c.45.62,1,1.17,1.48,1.77a3.52,3.52,0,0,1,.52.9A1.8,1.8,0,0,1,129.74,94.36ZM103.41,62.49a17.77,17.77,0,0,0-.82,5.89l.35,0c0,.58.06.58.57.73.74.22,1.57,0,2.25.5a.59.59,0,0,0,.27,0c.55,0,1.11,0,1.67,0a1,1,0,0,0,.58-.17.81.81,0,0,1,.7-.2,6.66,6.66,0,0,0,2.82-.58.69.69,0,0,0,.24-.21,5.08,5.08,0,0,0,.8-2.43c.12-.88-.44-1.62-.46-2.46,0-.08-.16-.15-.23-.23a1.51,1.51,0,0,0-1-.42,5,5,0,0,1-1-.4s-.09,0-.14,0c-.92,0-1.84-.12-2.76-.12C106,62.43,104.7,62.47,103.41,62.49Z"/><path class="cls-1" d="M121.2,77.85a2.67,2.67,0,0,1,2.2.06,3.44,3.44,0,0,0,1.28.26c1.16,0,2.32,0,3.48,0s2.31,0,3.46,0c.8,0,1.61-.19,2.41-.29a.63.63,0,0,0,.6-.65,9.77,9.77,0,0,0,0-1.53,1.66,1.66,0,0,0-1.41-1.31c-.19,0-.36,0-.45-.23,0-.07-.14-.12-.22-.15l-2.16-.63c-.28-.09-.55-.22-.84-.29a12.1,12.1,0,0,1-1.61-.34,4,4,0,0,0-1.48-.47,1.67,1.67,0,0,1-.62-.2,2.21,2.21,0,0,0-.56-.23,3.31,3.31,0,0,1-1.54-.65,17.28,17.28,0,0,1-1.67-1.11A6.76,6.76,0,0,1,120.3,68c-.11-.22-.24-.42-.38-.65,0-.75-.08-1.55-.12-2.35a7.64,7.64,0,0,1,.43-3.29,2.79,2.79,0,0,1,.78-1.26,5.64,5.64,0,0,1,.95-.64c.57-.22,1.13-.48,1.71-.71.9-.35,1.87-.42,2.76-.81a6.55,6.55,0,0,1,1.2-.17c.33-.06.65-.2,1-.27a14.72,14.72,0,0,1,1.48-.24,18.29,18.29,0,0,0,2.47-.21,22.1,22.1,0,0,1,4.05-.36,11.57,11.57,0,0,0,2.21-.19c1.93-.47,3.87-.15,5.81-.26l3.6-.23c.36,0,.74,0,1.14,0l0-.58a3.08,3.08,0,0,0,1.84.33,2.37,2.37,0,0,1,1.74.21c.24.16.63.1.95.15.52.09.65.22.73.77s.13,1,.16,1.51a2.05,2.05,0,0,0,.19.64,1.42,1.42,0,0,1,0,.91,1.47,1.47,0,0,1-1.56,1c-.83,0-1.66-.08-2.48-.1s-1.72,0-2.58,0c-1.53,0-3.06.08-4.59.14-.71,0-1.43.06-2.14.11a2.23,2.23,0,0,0-.56.16,1,1,0,0,1-.25.09c-.57,0-1.14,0-1.71,0s-1.16,0-1.74,0a18.08,18.08,0,0,0-3.3.28,19.34,19.34,0,0,1-2.92.27l-1.31.14c-.07,0-.17,0-.2,0-.28.5-.77.29-1.18.33a2.72,2.72,0,0,0-1.65.38,1.87,1.87,0,0,1-1,.18.65.65,0,0,0-.61.47,2,2,0,0,0,.67,2.36,7.27,7.27,0,0,0,2.74,1.57,6.31,6.31,0,0,0,1.54.44.65.65,0,0,1,.42.21,1.14,1.14,0,0,0,.82.3c.32,0,.63,0,.91.32s.69.16,1.06.21a.91.91,0,0,1,.47.21,3.33,3.33,0,0,0,.89.31c.23.09.52,0,.71.33.09.18.53.17.89.26a.81.81,0,0,0,.6.56c.15,0,.24.26.37.4.41.44.73,1,1.11,1.41a13.87,13.87,0,0,1,.71,1.38,1.52,1.52,0,0,1,.22.72c0,1,0,2,0,3.07,0,.45.19.94-.15,1.35a2.59,2.59,0,0,1-.88,1.84,6.89,6.89,0,0,1-1.56,1.2c-.12.08-.32,0-.48,0a2.56,2.56,0,0,0-1.46.49c-.1.1-.31.09-.46.1-1.6,0-3.2.11-4.79.14s-3,0-4.43,0c-.71,0-1.43,0-2.13-.11a.92.92,0,0,1-.55-.24c-.42-.43-.82-.88-1.21-1.34a.68.68,0,0,1-.16-.37C121.13,79.94,121.16,78.89,121.2,77.85Z"/><path class="cls-1" d="M84.47,51c0-.23,0-.47,0-.71,0-2.46,0-4.92,0-7.38,0-1.65,0-3.3,0-4.95,0-1.85,0-3.71-.16-5.56a14,14,0,0,0-.46-3.27,2.1,2.1,0,0,1-.06-.9,1.09,1.09,0,0,1,.31-.72,2,2,0,0,1,1.36-.56c.81.06,1.62,0,2.42,0a3.09,3.09,0,0,1,1,1.48c0,.13.11.28.08.39a2.44,2.44,0,0,0,.12,1.26,5.71,5.71,0,0,1,0,2.06c0,.23,0,.46,0,.69,0,2.16,0,4.31,0,6.47,0,1.73,0,3.47,0,5.2,0,.7.1,1.4.12,2.1,0,.27-.07.54-.07.81l.06,4.44c0,.86,0,1.71,0,2.56,0,.32.09.64.13,1,.15,1.06.29,2.12.43,3.14a1.53,1.53,0,0,1-1.61.73c-.83,0-1.67,0-2.5,0a.94.94,0,0,1-1-.75.74.74,0,0,0-.47-.54,2.79,2.79,0,0,1-1.44-1.43c0-.08-.17-.11-.25-.16l-.25.4c.21-.76-.48-1.11-.47-1.71-.46-.12-.41-.66-.71-.89s-.42-.69-.71-.89c-.52-.36-.64-1.08-1.26-1.32a.12.12,0,0,1-.07-.11c0-.64-.48-.7-.92-.81,0-.36.1-.68-.3-.86-.14-.06-.19-.29-.3-.43A6.15,6.15,0,0,0,77,49.2c0-.05-.15-.07-.16-.12-.16-.6-.75-.87-1-1.37,0-.06-.06-.15-.12-.18a2,2,0,0,1-.86-1,.15.15,0,0,0,0-.06c-.84-.29-1-1.23-1.59-1.72a3.12,3.12,0,0,1-1-1.12c0-.08-.27-.07-.53-.13,0,1.37,0,2.67,0,4,0,.11,0,.23,0,.34,0,1.42.08,2.83.08,4.24,0,.83-.06,1.65-.06,2.48s.06,1.66.06,2.49c0,.41-.05.82-.07,1.17a7.32,7.32,0,0,1-1.14.42,6.86,6.86,0,0,1-1.2,0c-.11,0-.24-.09-.34-.05-.67.26-1.2-.22-1.88-.3a11.8,11.8,0,0,1-.08-1.31c.23-4.36.14-8.72.12-13.07,0-1.64-.15-3.28-.31-4.91,0-.33-.07-.67-.12-1a1.61,1.61,0,0,0-.4-.7,1.31,1.31,0,0,1-.1-1.81,3.16,3.16,0,0,0,.34-.5c.15-.41.49-.45.83-.51a3,3,0,0,0,.85-.21,3.21,3.21,0,0,1,2.36,0c.22.06.38.36.54.57.67.86,1.31,1.74,2,2.59s1.37,1.61,2,2.43a3.78,3.78,0,0,1,.61,1c.17.41.6.53.85.89A12.45,12.45,0,0,0,78,43.2s.06.14.11.17c.76.44,1,1.35,1.62,1.85.49.38.67,1,1.24,1.31a.21.21,0,0,1,.08.12,7.32,7.32,0,0,0,1.42,1.77c.18.22.27.53.45.76.35.44.74.85,1.1,1.29.13.16.25.35.37.53Z"/><path class="cls-1" d="M58.05,84.79a3.56,3.56,0,0,0-.32-.5c-.48-.54-1.12-.93-1.56-1.52-.58,0-.55-.82-1.1-.9.14-.58-.4-.88-.56-1.34-.27-.77-.6-1.52-.89-2.28a1.47,1.47,0,0,1-.11-.46c-.06-.94-.16-1.89-.15-2.83,0-1.13.07-2.26.14-3.38,0-.14.12-.27.18-.41A2.22,2.22,0,0,0,54,70a.63.63,0,0,1,.28-.71c.15-.09.16-.41.24-.62s.1-.53.26-.67.58-.49.53-1c0-.21.32-.17.45-.42A7.49,7.49,0,0,1,57,65c.47-.52,1-1,1.52-1.46.29-.26.58-.52.89-.75a7.86,7.86,0,0,1,.89-.62,16.33,16.33,0,0,1,2.61-1.38,9,9,0,0,1,4.22-.58c1,.15,2,.31,2.92.52a2.86,2.86,0,0,1,1,.5c.84.6,1.67,1.22,2.46,1.89a9.91,9.91,0,0,1,.82,1.06,6.89,6.89,0,0,1,1.15,2,1,1,0,0,0,.26.29s.17.07.17.08c-.16.48.28.75.4,1.13a7.16,7.16,0,0,0,.82,2.08.89.89,0,0,1,.07.34,5.09,5.09,0,0,0,.24,1.76,2.32,2.32,0,0,1,0,1.08,41.52,41.52,0,0,1-.55,4.48,11.69,11.69,0,0,1-1.45,4.15,13.4,13.4,0,0,1-4,3.81,21.2,21.2,0,0,1-1.94,1,3,3,0,0,1-1.34.4.22.22,0,0,0-.14,0c-.88.62-1.87.32-2.82.36a1.1,1.1,0,0,1-.71-.18,2.4,2.4,0,0,0-.94-.21c-.42-.06-.87,0-1.22-.35-.08-.09-.3-.08-.46-.09a2.26,2.26,0,0,1-1-.35c-.44-.27-.94-.41-1.4-.64-.23-.11-.5-.1-.67-.4S58.31,84.85,58.05,84.79Zm3.19-3.31c.2,0,.5,0,.55.09.24.45.64.48,1.06.52.18,0,.41,0,.52.11a1.47,1.47,0,0,0,1,.31c.65,0,1.29.08,1.94.07a3.91,3.91,0,0,0,1.37-.17,4.19,4.19,0,0,0,2.22-1.65,15.16,15.16,0,0,0,.93-1.38,29.39,29.39,0,0,0,1-2.75,6.3,6.3,0,0,0,.4-2.24,1.83,1.83,0,0,1,0-.62,3.61,3.61,0,0,0,0-2.16,15.29,15.29,0,0,0-.61-2.6c-.16-.33-.2-.71-.56-.92,0-.63-.59-.89-.78-1.4a8.44,8.44,0,0,0-.85-.84l-1.19-.93a2.85,2.85,0,0,1-.65,0c-.21,0-.39-.21-.61-.27a2.1,2.1,0,0,0-.74-.1,4.31,4.31,0,0,0-2.54.92A10.71,10.71,0,0,0,62,67.13a10.25,10.25,0,0,0-1.78,3.28,1.11,1.11,0,0,1-.23.41c-.35.46-.3,1.11-.75,1.53,0,0,0,0,0,.06-.07.53-.17,1-.22,1.57a14.52,14.52,0,0,1-.1,1.47.57.57,0,0,0,.47.73c-.36.07-.48.21-.37.54a5.14,5.14,0,0,1,.21.86,8.28,8.28,0,0,0,1.09,2.79s.18,0,.28,0c0,.53,0,.52.47.78C61.16,81.19,61.18,81.35,61.24,81.48Z"/><path class="cls-1" d="M34,57.42c0-.2.07-.45,0-.61a8.2,8.2,0,0,0-.91-1.7.52.52,0,0,1,0-.23,1.64,1.64,0,0,0,0-.38c-.12-.27-.48-.38-.39-.84,0-.29-.27-.66-.44-1s-.32-.6-.45-.91c-.45-1.11-.86-2.25-1.36-3.34-.17-.4-.27-.8-.41-1.19s-.6-.76-.64-1.16-.47-.82-.51-1.3a.68.68,0,0,0-.21-.42c-.26-.16-.26-.4-.34-.64-.15-.47-.35-.92-.53-1.37-.26-.64-.52-1.28-.77-1.92a11.28,11.28,0,0,0-.86-1.91,5.31,5.31,0,0,1-.61-1.4c-.1-.3-.16-.57-.56-.56.13-.37.17-.66-.15-.91-.11-.09-.13-.28-.2-.42a4.21,4.21,0,0,0-.28-.45c-.05-.07-.16-.11-.19-.18-.21-.51-.38-1-.6-1.54-.07-.14-.25-.23-.42-.37a1.38,1.38,0,0,0-.4-1.25s-.1-.05-.11-.08c-.1-.82-.73-1.4-1-2.14a8.56,8.56,0,0,0-.73-1.45c-.2-.32-.37-.73-.82-.68l-.2-.57a4.07,4.07,0,0,1-.18-.44,1,1,0,0,1,.8-1.45,11.47,11.47,0,0,1,2.68-.3,1.63,1.63,0,0,1,1.41.85A23.54,23.54,0,0,1,26,27.77c.48,1,.93,2,1.41,3s.94,1.92,1.41,2.88c0,0,0,.09.05.13l2,4.65c.55,1.31,1,2.64,1.65,3.92S33.74,45,34.31,46.4c.31.73.5,1.51.86,2.21.6,1.18,1,2.44,1.61,3.6a17.12,17.12,0,0,1,.8,2c.05,0,.11,0,.12-.05.22-.86.42-1.73.65-2.6a4,4,0,0,1,.23-.53,1.52,1.52,0,0,0,.09-.25,14.54,14.54,0,0,1,.65-2.16,12.85,12.85,0,0,1,.53-2.18c.58-1.32.74-2.76,1.23-4.1a17.92,17.92,0,0,0,.47-2.08,4.31,4.31,0,0,1,.36-1.38,2.55,2.55,0,0,0,.4-1.48c.62-.42.38-1.22.73-1.77.11-.16.05-.43.06-.66s.3-.24.36-.41c.33-.93.63-1.87.91-2.81.1-.32.06-.67.43-.88.1,0,.1-.29.14-.44.11-.5.22-1,.32-1.49a1.19,1.19,0,0,1,.7-.8.55.55,0,0,1,.65.07,8.2,8.2,0,0,0,1.52,1,5.31,5.31,0,0,1,1.1,1,.68.68,0,0,1,0,.53c-.24.72-.51,1.42-.76,2.13-.37,1.06-.74,2.12-1.1,3.19a5.19,5.19,0,0,0-.14.77s0,.11,0,.13a5.19,5.19,0,0,0-.85,2.27c-.3,1-.64,1.92-.91,2.88s-.56,2.24-.85,3.35c-.23.86-.58,1.69-.74,2.57s-.49,1.85-.74,2.77c-.35,1.29-.8,2.55-1.17,3.83s-.71,2.68-1.06,4a.51.51,0,0,0,0,.2,3,3,0,0,1-.5,1.7.57.57,0,0,1-.63.4c-.63,0-1.25-.11-1.87-.16a1.62,1.62,0,0,0-.44,0c-.41,0-.82.13-1.23.13-.65,0-.92-.21-1-.86a2.26,2.26,0,0,0-.38-.76,7.49,7.49,0,0,1-.33-1.17,3.89,3.89,0,0,0-.4-.72Z"/><path class="cls-1" d="M92.2,54.78l.24-1.55a27.44,27.44,0,0,1,3.27-.16,1,1,0,0,1,.93.58,1.7,1.7,0,0,1,.25,1.25A12.76,12.76,0,0,0,96.75,57c0,1.6,0,3.2-.06,4.8,0,1.09,0,2.18-.09,3.26,0,.79-.13,1.57-.19,2.35,0,.5,0,1-.08,1.51C96.22,70,96.1,71,96,72q-.18,1.29-.39,2.58a12.49,12.49,0,0,1-.37,1.82c-.42,1.29-.87,2.57-1.37,3.84A6.57,6.57,0,0,1,93,81.72a2.34,2.34,0,0,0-.6.91.24.24,0,0,1-.12.16c-1,.53-1.65,1.52-2.83,1.83a6.85,6.85,0,0,1-3.05.11c-.86-.14-1.73-.23-2.6-.3a1.4,1.4,0,0,1-1.06-.49,1.15,1.15,0,0,0-1-.55c-.15-.58-.32-.93-.89-.91a6.28,6.28,0,0,0-1-1.82.42.42,0,0,1-.08-.18,28.67,28.67,0,0,0-1-2.81,9.2,9.2,0,0,1-.21-.94A30.94,30.94,0,0,1,78,68.64c.07-1.44.2-2.87.26-4.3a10.65,10.65,0,0,0-.09-1.87,3.35,3.35,0,0,1,.11-1.66l1.16-.39a3.11,3.11,0,0,1,2.43.07c.16.07.34.12.52.18a1.09,1.09,0,0,1,.63.58c.1.19.22.37.37.61a1.81,1.81,0,0,0-.09,1.52.7.7,0,0,1-.08.52A2.81,2.81,0,0,0,83,65.11a6.64,6.64,0,0,1-.12.88,5.38,5.38,0,0,0-.07,1.79,7.2,7.2,0,0,1-.12,1.29c0,1.18,0,2.36,0,3.54A3,3,0,0,0,83,74.14c-.22.71.18,1.34.23,2a1,1,0,0,0,.49.87c.07,0,.11.14.17.21A11.18,11.18,0,0,0,86,79a1.44,1.44,0,0,0,.55.25c.57.11,1.14.19,1.71.27a.61.61,0,0,0,.33,0c.47-.24.92-.51,1.39-.77l-.31-.37.74.07c.19-.78.76-1.42.65-2.28,0,0,.1-.12.15-.19s.16-.18.16-.27a7.49,7.49,0,0,0,.21-2.11c0-.12,0-.35.06-.39.43-.22.34-.61.28-.92a7.18,7.18,0,0,1,0-2.07c.09-.62.11-1.24.14-1.87.06-1.22.1-2.45.16-3.67,0-.72.11-1.44.13-2.15.05-1.43.08-2.86.11-4.29,0-.85,0-1.71,0-2.57C92.53,55.3,92.54,54.93,92.2,54.78Z"/><path class="cls-1" d="M50.07,34.52a4.46,4.46,0,0,1,4.46-1l.76,1a.2.2,0,0,1,.06.12c0,1,.62,1.73.93,2.6.42,1.21.84,2.43,1.33,3.61a37,37,0,0,0,1.64,3.9c.31.55.43,1.21.74,1.76s.17,1.06.68,1.37a3.65,3.65,0,0,0,.45,1.1,12.59,12.59,0,0,0,1,2.24,7.39,7.39,0,0,1,.43,1c.57,1.3,1.15,2.61,1.75,3.91a7.68,7.68,0,0,0,.55.88l.46-.09s.09.07.08.1c-.14.67.13,1.37-.14,2a7.48,7.48,0,0,0-.87.07,2.41,2.41,0,0,0-.58.17c-.08,0-.14.16-.22.17a13.87,13.87,0,0,1-2.13.15,1.21,1.21,0,0,1-1-1,7.45,7.45,0,0,0-.84-1.91c0-.06-.15-.1-.15-.14.07-.61-.38-1-.65-1.46a14.35,14.35,0,0,1-.79-1.9c-.24-.58-.27-.66-.88-.61-1.08.09-2.15.23-3.22.32a13,13,0,0,1-1.39,0l-2.51,0c-.85,0-.92.1-1.15.88-.3,1.06-.65,2.11-1,3.16a13,13,0,0,0-.34,1.47,1.19,1.19,0,0,1-1.82.86.87.87,0,0,0-.37-.13,1,1,0,0,1-.72-.19s-.2,0-.31,0-.27.07-.32,0c-.37-.36-.87-.64-1-1.2a1.19,1.19,0,0,1,0-.46c.08-.46.18-.9.28-1.41.32,0,.39-.26.5-.57.25-.69.44-1.41.65-2.11.29-1,.73-1.95,1-2.95.08-.29,0-.6.37-.77,0,0,0-.08,0-.13.25-.94.49-1.89.77-2.83.08-.27,0-.61.39-.76.07,0,.1-.14.13-.23.19-.61.36-1.23.56-1.85a4.38,4.38,0,0,0,.48-1.55c0-.16.31-.3.34-.48a41,41,0,0,1,1.31-4c0-.18.14-.4.08-.54a.55.55,0,0,1,.14-.72,1,1,0,0,0,.17-.64C50.21,35.41,50.13,35,50.07,34.52Zm4.76,13.73.79.44a1.67,1.67,0,0,0,0-.53A9.17,9.17,0,0,1,54.7,46a.2.2,0,0,0-.06-.12c-.66-.66-.6-1.64-1-2.4A13.22,13.22,0,0,1,53,42.16c-.14.46-.25.84-.39,1.22a2.26,2.26,0,0,0-.26,1.38c0,.13-.12.32-.17.48s0,.33-.09.42a.84.84,0,0,0-.25.37,6.52,6.52,0,0,1-.36,1.28,2.13,2.13,0,0,0-.25,1.34h3.4Z"/><path class="cls-1" d="M98.4,37.85,94.6,38a1.29,1.29,0,0,1-.33,0,1,1,0,0,0-1.19.62l-.14-.38c-.5,0-1,.1-1.51.12a1.08,1.08,0,0,1-1-.79c-.12-1.1-.19-2.19-.28-3.3a2.74,2.74,0,0,0,.35-.09,6.07,6.07,0,0,1,3-.42c1.4-.06,2.8-.17,4.2-.23.81,0,1.63,0,2.44,0s1.44,0,2.16,0,1.39-.14,2.08-.18c.87-.05,1.74-.09,2.61-.07.47,0,.93.19,1.4.24.81.07,1.61.1,2.42.16.34,0,.69.07,1,.1l.34.55a1.34,1.34,0,0,1-.07.18c-.06.14-.22.32-.18.42.19.43-.15.75-.19,1.13a4.27,4.27,0,0,1-.35,1.19,1.05,1.05,0,0,1-1.19.72c-1-.11-2-.29-2.95-.35s-2.27-.06-3.4-.06c-.33,0-.45.31-.46.72a8.06,8.06,0,0,1-.06,2,4.4,4.4,0,0,0,0,1c0,1.9-.12,3.8-.13,5.69a27,27,0,0,0,.16,4c.11.77-.06,1.5,0,2.25,0,.27-.08.56.18.78a.27.27,0,0,1,.07.25c-.29.39,0,.76,0,1.12a1.88,1.88,0,0,1-.2,1.45c-1.18,0-2.39,0-3.59,0-.84,0-1.18-.54-1-1.37a2.06,2.06,0,0,0,0-.35c-.09-2.17-.19-4.35-.26-6.53,0-.78.05-1.57.07-2.35,0-1.23.06-2.46,0-3.69s-.07-2.35-.13-3.53C98.56,38.7,98.47,38.32,98.4,37.85Z"/><path class="cls-2" d="M2.53,72.28l-.15-.85s0,0,0,0H1.14s0,0,0,0l-.15.85a.1.1,0,0,1-.11.09H.09c-.07,0-.1,0-.09-.1l1.21-5.49a.09.09,0,0,1,.1-.09h.86a.1.1,0,0,1,.11.09l1.2,5.49v0s0,.07-.09.07H2.63C2.57,72.37,2.53,72.34,2.53,72.28ZM1.28,70.65h.9s0,0,0,0l-.47-2.56s0,0,0,0,0,0,0,0l-.46,2.56S1.25,70.65,1.28,70.65Z"/><path class="cls-2" d="M5.85,68.25a.09.09,0,0,1,.07,0h.74a.1.1,0,0,1,.1.1v3.9a2,2,0,0,1-.4,1.35,1.76,1.76,0,0,1-1.42.48H4.67a.1.1,0,0,1-.09-.11v-.62c0-.07,0-.1.1-.09a1.65,1.65,0,0,0,.71-.12.64.64,0,0,0,.34-.35,1.81,1.81,0,0,0,.09-.62V72s0,0,0,0l0,0a.91.91,0,0,1-.76.35A1,1,0,0,1,4.18,72a1.5,1.5,0,0,1-.29-1v-1.6a1.5,1.5,0,0,1,.29-1A1,1,0,0,1,5,68.16a.91.91,0,0,1,.76.35l0,0s0,0,0,0v-.18A.09.09,0,0,1,5.85,68.25Zm-.17,3.16A.62.62,0,0,0,5.82,71V69.55a.61.61,0,0,0-.14-.42A.41.41,0,0,0,5.33,69a.45.45,0,0,0-.36.16.64.64,0,0,0-.13.42V71a.61.61,0,0,0,.13.41.45.45,0,0,0,.36.16A.41.41,0,0,0,5.68,71.41Z"/><path class="cls-2" d="M10.24,70.61a.09.09,0,0,1-.07,0H8.38a0,0,0,0,0-.05,0v.37a.6.6,0,0,0,.14.41.45.45,0,0,0,.36.17.47.47,0,0,0,.32-.12.57.57,0,0,0,.18-.31.1.1,0,0,1,.1-.08l.72,0a.09.09,0,0,1,.07,0,.08.08,0,0,1,0,.08,1.24,1.24,0,0,1-.41.87,1.46,1.46,0,0,1-1,.31,1.49,1.49,0,0,1-1-.36,1.21,1.21,0,0,1-.39-1V69.47a1.24,1.24,0,0,1,.39-1,1.49,1.49,0,0,1,1-.36,1.49,1.49,0,0,1,1.05.36,1.24,1.24,0,0,1,.39,1v1.08A.07.07,0,0,1,10.24,70.61ZM8.47,69.13a.64.64,0,0,0-.14.42v.36s0,0,.05,0h.91s0,0,0,0v-.36a.6.6,0,0,0-.13-.42A.47.47,0,0,0,8.83,69,.44.44,0,0,0,8.47,69.13Z"/><path class="cls-2" d="M13.5,68.51a1.63,1.63,0,0,1,.27,1v2.76a.08.08,0,0,1,0,.07.09.09,0,0,1-.07,0h-.75a.11.11,0,0,1-.07,0,.12.12,0,0,1,0-.07V69.59a.7.7,0,0,0-.13-.46.39.39,0,0,0-.34-.16.45.45,0,0,0-.37.17.73.73,0,0,0-.13.47v2.66a.08.08,0,0,1,0,.07.09.09,0,0,1-.07,0H11a.09.09,0,0,1-.06,0,.08.08,0,0,1,0-.07v-4a.09.09,0,0,1,0-.07.09.09,0,0,1,.06,0h.75a.1.1,0,0,1,.1.1v.16s0,0,0,0a0,0,0,0,0,0,0,1,1,0,0,1,.78-.32A1,1,0,0,1,13.5,68.51Z"/><path class="cls-2" d="M14.8,72.08a1.28,1.28,0,0,1-.38-1V69.47a1.27,1.27,0,0,1,.38-1,1.49,1.49,0,0,1,1-.36,1.54,1.54,0,0,1,1.06.35,1.17,1.17,0,0,1,.39.9v.11a.1.1,0,0,1-.1.1l-.75,0a.08.08,0,0,1-.09-.09v-.09a.49.49,0,0,0-.15-.35.46.46,0,0,0-.36-.15.43.43,0,0,0-.35.16.59.59,0,0,0-.14.42v1.5a.55.55,0,0,0,.14.41.44.44,0,0,0,.35.17.46.46,0,0,0,.36-.15.51.51,0,0,0,.15-.37V71a.11.11,0,0,1,0-.07s0,0,.06,0h.75a.1.1,0,0,1,.1.1v.15a1.14,1.14,0,0,1-.39.9,1.54,1.54,0,0,1-1.06.35A1.49,1.49,0,0,1,14.8,72.08Z"/><path class="cls-2" d="M18,67.49a.53.53,0,0,1-.16-.41.57.57,0,0,1,.16-.42.6.6,0,0,1,.41-.16.55.55,0,0,1,.57.58.53.53,0,0,1-.16.41.54.54,0,0,1-.41.16A.56.56,0,0,1,18,67.49Zm0,4.85a.08.08,0,0,1,0-.07v-4a.1.1,0,0,1,.1-.1h.75a.11.11,0,0,1,.07,0,.14.14,0,0,1,0,.07v4a.12.12,0,0,1,0,.07.11.11,0,0,1-.07,0H18A.09.09,0,0,1,18,72.34Z"/><path class="cls-2" d="M22.11,68.53a1.3,1.3,0,0,1,.39,1v2.76a.12.12,0,0,1,0,.07.11.11,0,0,1-.07,0h-.75a.09.09,0,0,1-.07,0,.08.08,0,0,1,0-.07v-.15s0,0,0,0,0,0,0,0a1,1,0,0,1-.82.34,1.32,1.32,0,0,1-.82-.27,1.1,1.1,0,0,1-.35-1,1.21,1.21,0,0,1,.42-1,2,2,0,0,1,1.16-.31h.42s0,0,0,0v-.21a.77.77,0,0,0-.14-.47.48.48,0,0,0-.37-.17.39.39,0,0,0-.28.11.47.47,0,0,0-.14.3.1.1,0,0,1-.11.09h-.78q-.1,0-.09-.09a1.21,1.21,0,0,1,.43-.89,1.48,1.48,0,0,1,1-.33A1.46,1.46,0,0,1,22.11,68.53Zm-.73,3a.52.52,0,0,0,.18-.43v-.46s0,0,0,0H21.1a.68.68,0,0,0-.45.15.56.56,0,0,0-.17.43.53.53,0,0,0,.13.38.45.45,0,0,0,.34.13A.64.64,0,0,0,21.38,71.5Z"/><path class="cls-2" d="M26.69,66.72a.09.09,0,0,1,.07,0h.75a.11.11,0,0,1,.07,0,.14.14,0,0,1,0,.07v5.48a.12.12,0,0,1,0,.07.11.11,0,0,1-.07,0h-.75a.09.09,0,0,1-.07,0,.08.08,0,0,1,0-.07v-.09s0,0,0,0,0,0,0,0a1,1,0,0,1-.73.29,1,1,0,0,1-.84-.36,1.45,1.45,0,0,1-.3-1V69.47a1.42,1.42,0,0,1,.3-1,1.09,1.09,0,0,1,.84-.35,1,1,0,0,1,.38.07.87.87,0,0,1,.35.22h0a0,0,0,0,0,0,0V66.79A.09.09,0,0,1,26.69,66.72ZM26.5,71.5a.55.55,0,0,0,.16-.34V69.43a.52.52,0,0,0-.16-.33.44.44,0,0,0-.33-.13.44.44,0,0,0-.36.16.61.61,0,0,0-.14.42v1.5a.64.64,0,0,0,.14.42.47.47,0,0,0,.36.16A.49.49,0,0,0,26.5,71.5Z"/><path class="cls-2" d="M31.13,70.61a.09.09,0,0,1-.07,0H29.27a0,0,0,0,0,0,0v.37a.55.55,0,0,0,.14.41.44.44,0,0,0,.35.17.45.45,0,0,0,.32-.12.57.57,0,0,0,.18-.31.1.1,0,0,1,.1-.08l.73,0a.11.11,0,0,1,.07,0,.19.19,0,0,1,0,.08,1.25,1.25,0,0,1-.42.87,1.46,1.46,0,0,1-1,.31,1.49,1.49,0,0,1-1-.36,1.21,1.21,0,0,1-.38-1V69.47a1.23,1.23,0,0,1,.38-1,1.49,1.49,0,0,1,1-.36,1.45,1.45,0,0,1,1.05.36,1.24,1.24,0,0,1,.39,1v1.08A.07.07,0,0,1,31.13,70.61Zm-1.76-1.48a.59.59,0,0,0-.14.42v.36s0,0,0,0h.92a0,0,0,0,0,0,0v-.36a.61.61,0,0,0-.14-.42.46.46,0,0,0-.37-.16A.43.43,0,0,0,29.37,69.13Z"/><path class="cls-2" d="M34.2,72.29l-1-4v0c0-.05,0-.07.09-.07h.83c.07,0,.1,0,.11.08l.48,2.53s0,0,0,0,0,0,0,0l.48-2.53c0-.06,0-.08.11-.08h.83c.07,0,.1,0,.09.11l-1,4c0,.06,0,.08-.11.08h-.86A.11.11,0,0,1,34.2,72.29Z"/><path class="cls-2" d="M36.88,67.49a.57.57,0,0,1-.16-.41.55.55,0,0,1,.58-.58.58.58,0,0,1,.41.16.61.61,0,0,1,.16.42.53.53,0,0,1-.17.41.52.52,0,0,1-.4.16A.57.57,0,0,1,36.88,67.49Zm0,4.85s0,0,0-.07v-4a.08.08,0,0,1,0-.07.11.11,0,0,1,.07,0h.75a.1.1,0,0,1,.1.1v4a.08.08,0,0,1,0,.07.09.09,0,0,1-.07,0h-.75A.11.11,0,0,1,36.86,72.34Z"/><path class="cls-2" d="M41,68.53a1.27,1.27,0,0,1,.4,1v2.76a.08.08,0,0,1,0,.07.09.09,0,0,1-.07,0h-.75a.07.07,0,0,1-.06,0,.08.08,0,0,1,0-.07v-.15s0,0,0,0,0,0,0,0a1,1,0,0,1-.83.34,1.32,1.32,0,0,1-.82-.27,1.13,1.13,0,0,1-.35-1,1.19,1.19,0,0,1,.43-1A2,2,0,0,1,40,69.86h.43a0,0,0,0,0,0,0v-.21a.72.72,0,0,0-.15-.47A.48.48,0,0,0,40,69a.42.42,0,0,0-.29.11.53.53,0,0,0-.14.3c0,.06,0,.09-.1.09h-.79c-.07,0-.09,0-.09-.09a1.22,1.22,0,0,1,.44-.89,1.47,1.47,0,0,1,1-.33A1.44,1.44,0,0,1,41,68.53Zm-.73,3a.53.53,0,0,0,.19-.43v-.46a0,0,0,0,0,0,0H40a.63.63,0,0,0-.44.15.53.53,0,0,0-.17.43.49.49,0,0,0,.13.38.42.42,0,0,0,.33.13A.62.62,0,0,0,40.27,71.5Z"/><path class="cls-2" d="M41.32,73.94v-.61a.09.09,0,0,1,.1-.1.63.63,0,0,0,.5-.19.85.85,0,0,0,.15-.54V68.32a.1.1,0,0,1,.1-.1h.75a.11.11,0,0,1,.07,0,.09.09,0,0,1,0,.07V72.5a2.88,2.88,0,0,1-.11.87.86.86,0,0,1-.46.5,2.31,2.31,0,0,1-1,.17C41.35,74,41.32,74,41.32,73.94Zm.81-6.45a.53.53,0,0,1-.16-.41.57.57,0,0,1,.16-.42.6.6,0,0,1,.41-.16.55.55,0,0,1,.57.58.53.53,0,0,1-.16.41.54.54,0,0,1-.41.16A.56.56,0,0,1,42.13,67.49Z"/><path class="cls-2" d="M46.57,70.61a.09.09,0,0,1-.07,0H44.7a0,0,0,0,0,0,0v.37a.6.6,0,0,0,.14.41.45.45,0,0,0,.36.17.47.47,0,0,0,.32-.12.5.5,0,0,0,.17-.31.12.12,0,0,1,.11-.08l.72,0a.09.09,0,0,1,.07,0,.08.08,0,0,1,0,.08,1.24,1.24,0,0,1-.41.87,1.74,1.74,0,0,1-2,0,1.21,1.21,0,0,1-.39-1V69.47a1.24,1.24,0,0,1,.39-1,1.47,1.47,0,0,1,1-.36,1.49,1.49,0,0,1,1.05.36,1.24,1.24,0,0,1,.39,1v1.08A.07.07,0,0,1,46.57,70.61ZM44.8,69.13a.64.64,0,0,0-.14.42v.36a0,0,0,0,0,0,0h.92s0,0,0,0v-.36a.56.56,0,0,0-.14-.42.49.49,0,0,0-.72,0Z"/><path class="cls-2" d="M47.49,72.11a1,1,0,0,1-.38-.83v-.06a.09.09,0,0,1,0-.07.08.08,0,0,1,.07,0h.69a.1.1,0,0,1,.1.1v0a.43.43,0,0,0,.15.33.57.57,0,0,0,.37.13.45.45,0,0,0,.33-.13.38.38,0,0,0,.13-.3.41.41,0,0,0-.11-.28.69.69,0,0,0-.23-.16l-.44-.19a2.55,2.55,0,0,1-.76-.45,1.29,1.29,0,0,1,.07-1.71,1.4,1.4,0,0,1,1-.33,1.46,1.46,0,0,1,1,.34,1.17,1.17,0,0,1,.37.91.11.11,0,0,1,0,.07l-.07,0h-.68l-.07,0a.11.11,0,0,1,0-.07v0a.44.44,0,0,0-.13-.33.49.49,0,0,0-.34-.13.46.46,0,0,0-.46.46.35.35,0,0,0,.1.26.69.69,0,0,0,.22.16,3.14,3.14,0,0,0,.4.19,4.6,4.6,0,0,1,.58.27,1.43,1.43,0,0,1,.4.38,1,1,0,0,1,.18.61,1,1,0,0,1-.39.86,1.5,1.5,0,0,1-1,.32A1.55,1.55,0,0,1,47.49,72.11Z"/><path class="cls-2" d="M15.3,75.65V76c0,.06,0,.08-.08.08H14.15s0,0,0,0v5.06c0,.06,0,.08-.09.08h-.41s-.08,0-.08-.08V76.11s0,0,0,0h-1c-.05,0-.08,0-.08-.08v-.34a.07.07,0,0,1,.08-.08h2.72A.07.07,0,0,1,15.3,75.65Z"/><path class="cls-2" d="M17.61,77.2a.08.08,0,0,1,.05.1l-.1.42s0,.07-.1,0a.57.57,0,0,0-.24,0h-.1a.6.6,0,0,0-.48.31,1.28,1.28,0,0,0-.19.7v2.43c0,.06,0,.08-.08.08H16c-.06,0-.08,0-.08-.08V77.23c0-.06,0-.08.08-.08h.41c.06,0,.08,0,.08.08v.48s0,0,0,0l0,0a.81.81,0,0,1,.78-.61A.62.62,0,0,1,17.61,77.2Z"/><path class="cls-2" d="M20.34,77.45a1.41,1.41,0,0,1,.35,1v2.73c0,.06,0,.08-.09.08h-.41c-.05,0-.08,0-.08-.08v-.24a0,0,0,0,0,0,0h0a1,1,0,0,1-.9.4,1.19,1.19,0,0,1-.78-.26,1.07,1.07,0,0,1-.33-.9,1.2,1.2,0,0,1,.4-1,1.57,1.57,0,0,1,1.05-.32h.57s0,0,0,0v-.31a1,1,0,0,0-.19-.65.62.62,0,0,0-.92-.08.63.63,0,0,0-.21.41c0,.06,0,.08-.08.08h-.45s-.05,0-.06,0a.07.07,0,0,1,0-.06,1.11,1.11,0,0,1,.39-.77,1.29,1.29,0,0,1,.86-.3A1.16,1.16,0,0,1,20.34,77.45Zm-.48,3.15a.73.73,0,0,0,.25-.6v-.68a0,0,0,0,0,0,0H19.5a.88.88,0,0,0-.62.21.78.78,0,0,0-.23.61.69.69,0,0,0,.18.53.62.62,0,0,0,.46.18A.8.8,0,0,0,19.86,80.6Z"/><path class="cls-2" d="M22.25,81.18l-1-3.94v0s0,0,.07,0h.47a.08.08,0,0,1,.09.07l.7,3.08a0,0,0,0,0,0,0,0,0,0,0,0,0,0l.69-3.08a.08.08,0,0,1,.09-.07h.47a.06.06,0,0,1,.06,0,0,0,0,0,1,0,.06l-1,3.94a.08.08,0,0,1-.09.07h-.49A.08.08,0,0,1,22.25,81.18Z"/><path class="cls-2" d="M26.93,79.42H25.08a0,0,0,0,0,0,0V80a.79.79,0,0,0,.19.56.61.61,0,0,0,.5.22.68.68,0,0,0,.44-.16.78.78,0,0,0,.24-.41.09.09,0,0,1,.09-.08l.4,0a.09.09,0,0,1,.06,0s0,0,0,.06a1.2,1.2,0,0,1-.4.76A1.44,1.44,0,0,1,24.81,81a1.21,1.21,0,0,1-.34-.9V78.32a1.21,1.21,0,0,1,.34-.89,1.26,1.26,0,0,1,.93-.35,1.24,1.24,0,0,1,.92.35,1.21,1.21,0,0,1,.35.89v1A.07.07,0,0,1,26.93,79.42ZM25.24,77.8a.79.79,0,0,0-.19.56v.55a0,0,0,0,0,0,0h1.33a0,0,0,0,0,0,0v-.55a.79.79,0,0,0-.19-.56.67.67,0,0,0-.51-.22A.64.64,0,0,0,25.24,77.8Z"/><path class="cls-2" d="M27.81,81.17V75.65c0-.05,0-.08.09-.08h.41a.07.07,0,0,1,.08.08v5.52c0,.06,0,.08-.08.08H27.9C27.84,81.25,27.81,81.23,27.81,81.17Z"/><path class="cls-2" d="M33.07,77.45a1.4,1.4,0,0,1,.34,1v2.73c0,.06,0,.08-.08.08h-.42s-.08,0-.08-.08v-.24s0,0,0,0h0a1,1,0,0,1-.9.4,1.19,1.19,0,0,1-.78-.26,1.1,1.1,0,0,1-.32-.9,1.23,1.23,0,0,1,.39-1,1.61,1.61,0,0,1,1-.32h.57s0,0,0,0v-.31a1.07,1.07,0,0,0-.18-.65.63.63,0,0,0-.51-.25.61.61,0,0,0-.42.17.67.67,0,0,0-.2.41c0,.06,0,.08-.08.08H31s-.05,0-.06,0a.07.07,0,0,1,0-.06,1,1,0,0,1,.39-.77,1.27,1.27,0,0,1,.86-.3A1.17,1.17,0,0,1,33.07,77.45Zm-.48,3.15a.75.75,0,0,0,.24-.6v-.68a0,0,0,0,0,0,0h-.58a.85.85,0,0,0-.61.21.74.74,0,0,0-.23.61.73.73,0,0,0,.17.53.62.62,0,0,0,.46.18A.82.82,0,0,0,32.59,80.6Z"/><path class="cls-2" d="M36.26,77.15h.41c.06,0,.08,0,.08.08v3.94a1.91,1.91,0,0,1-.4,1.32A1.61,1.61,0,0,1,35,82.9c-.06,0-.08,0-.08-.09v-.35s0-.08.08-.08a1.1,1.1,0,0,0,.91-.29,1.52,1.52,0,0,0,.26-1v-.26s0,0,0,0a1,1,0,0,1-.36.3,1,1,0,0,1-.46.11,1,1,0,0,1-.8-.34,1.32,1.32,0,0,1-.3-.9V78.32a1.29,1.29,0,0,1,.3-.9,1,1,0,0,1,.8-.34,1.15,1.15,0,0,1,.46.1.89.89,0,0,1,.36.31l0,0a0,0,0,0,0,0,0v-.25C36.18,77.17,36.2,77.15,36.26,77.15ZM36,80.56a.84.84,0,0,0,.19-.56V78.36A.84.84,0,0,0,36,77.8a.64.64,0,0,0-.49-.22.67.67,0,0,0-.51.22.79.79,0,0,0-.19.56V80a.79.79,0,0,0,.19.56.67.67,0,0,0,.51.22A.64.64,0,0,0,36,80.56Z"/><path class="cls-2" d="M40,79.42H38.18a0,0,0,0,0,0,0V80a.79.79,0,0,0,.19.56.62.62,0,0,0,.5.22.68.68,0,0,0,.44-.16.72.72,0,0,0,.24-.41s0-.08.09-.08l.41,0a.05.05,0,0,1,0,0,0,0,0,0,1,0,.06,1.15,1.15,0,0,1-.39.76,1.27,1.27,0,0,1-.86.28,1.25,1.25,0,0,1-.92-.34,1.22,1.22,0,0,1-.35-.9V78.32a1.21,1.21,0,0,1,.35-.89,1.4,1.4,0,0,1,1.85,0,1.21,1.21,0,0,1,.35.89v1S40.09,79.42,40,79.42ZM38.34,77.8a.79.79,0,0,0-.19.56v.55a0,0,0,0,0,0,0h1.33s0,0,0,0v-.55a.8.8,0,0,0-.2-.56.67.67,0,0,0-.51-.22A.65.65,0,0,0,38.34,77.8Z"/><path class="cls-2" d="M43.2,77.43a1.49,1.49,0,0,1,.27.95v2.79c0,.06,0,.08-.08.08H43s-.08,0-.08-.08V78.43a1,1,0,0,0-.17-.62.61.61,0,0,0-.49-.22.59.59,0,0,0-.5.24,1,1,0,0,0-.18.64v2.7c0,.06,0,.08-.09.08h-.41s-.08,0-.08-.08V77.23c0-.06,0-.08.08-.08h.41c.06,0,.09,0,.09.08v.26s0,0,0,0,0,0,0,0a.89.89,0,0,1,.36-.31,1.12,1.12,0,0,1,.48-.1A.92.92,0,0,1,43.2,77.43Z"/><path class="cls-2" d="M44.67,81a1.22,1.22,0,0,1-.35-.9V78.32a1.21,1.21,0,0,1,.35-.89,1.25,1.25,0,0,1,.92-.35,1.33,1.33,0,0,1,.67.16,1.06,1.06,0,0,1,.45.41,1,1,0,0,1,.16.56v.08c0,.06,0,.08-.08.08l-.41,0c-.06,0-.09,0-.09-.08v-.06a.66.66,0,0,0-.19-.47.73.73,0,0,0-.51-.2.65.65,0,0,0-.5.22.79.79,0,0,0-.19.56V80a.79.79,0,0,0,.19.56.62.62,0,0,0,.5.22.73.73,0,0,0,.51-.2.66.66,0,0,0,.19-.47v-.06s0-.08.09-.08h.41a.07.07,0,0,1,.08.08v.09a1.05,1.05,0,0,1-.35.81,1.36,1.36,0,0,1-.93.32A1.23,1.23,0,0,1,44.67,81Z"/><path class="cls-2" d="M47.43,82.86a.13.13,0,0,1,0-.06v-.33s0-.08.08-.08a.72.72,0,0,0,.39-.1.59.59,0,0,0,.23-.31,4.26,4.26,0,0,0,.18-.7,0,0,0,0,0,0,0v0l-1-4v0s0-.06.08-.06h.44s.09,0,.09.07l.72,3.19a0,0,0,0,0,0,0s0,0,0,0l.7-3.19a.08.08,0,0,1,.09-.07h.46a.07.07,0,0,1,.06,0,.06.06,0,0,1,0,.06L48.8,81.61a4.08,4.08,0,0,1-.28.81.85.85,0,0,1-.37.36,1.59,1.59,0,0,1-.64.1h0Z"/><path class="cls-2" d="M67.68,13.92a47.69,47.69,0,0,0-.1-5.48c-.11-1.71.1-3.32-1.11-4.7C64.87,1.93,62.18.12,59.71,0s-4.86,1.35-6.59,3.15c-.49.5-.66,1.11-1.09,1.63-.2.24-.52.3-.73.59a5.2,5.2,0,0,0-.52,1.51,18.63,18.63,0,0,0-.74,6,20.69,20.69,0,0,0,2,7.85c.48,1,2.86,6.64,4.23,6.16-.25.12-.18.49,0,.74a3.94,3.94,0,0,0,1.27,1.39c.73.48.86,1.31,1.88,1.6a1.71,1.71,0,0,0,2.27-1.05c.59-1.24,1.72-2.34,2.4-3.57a33.07,33.07,0,0,0,1.75-3.71A25.86,25.86,0,0,0,67.68,13.92ZM63.52,4.43c.12.15.24.32.35.48a9.68,9.68,0,0,1,1.32,4.78,13.9,13.9,0,0,1-.31,2.71,21.33,21.33,0,0,1-.47,3.16,20.6,20.6,0,0,0-.48,2.79,11.11,11.11,0,0,1-.79,3.73c-.43,1.06-.79,2.2-1.29,3.25A9,9,0,0,1,60.92,27c-.15.2-.38.53-.64.59-.43.09-.63-.4-.87-.71-1-1.25-1.92-2.53-2.79-3.86a28.8,28.8,0,0,1-2.73-5,15.27,15.27,0,0,1-1-5.75,9.13,9.13,0,0,1,.4-3.64,10.88,10.88,0,0,1,1.55-2.84,17.44,17.44,0,0,1,1.91-1.49,3.2,3.2,0,0,1,2.4-1c.7.05,1.39.24,2.09.25A2.81,2.81,0,0,1,63,3.92,3,3,0,0,1,63.52,4.43ZM56.9.64Z"/><path class="cls-2" d="M63.14,10.22a3.81,3.81,0,0,0-1.33-1.93,5.72,5.72,0,0,0-2.35-.95,5.25,5.25,0,0,0-1.57-.2c-1.34.09-2.1,1.47-2.42,2.64a4.4,4.4,0,0,0,.68,3.8,1.35,1.35,0,0,0,1.73.73.75.75,0,0,0,.7.67c.84.09,2.28-.89,2.94-1.36a4.07,4.07,0,0,0,1.61-2.14A2.56,2.56,0,0,0,63.14,10.22Zm-3.82,1a2.21,2.21,0,0,0-.66.21,1,1,0,0,1,.05-1.57c.27.09,1.11,0,1.26.21s-.16,1.09-.11,1.08Z"/></g></g></svg>